<svg width="909" height="184" viewBox="0 0 909 184" fill="none" xmlns="http://www.w3.org/2000/svg">
<path d="M839.741 115.72L839.485 116.68H841.709L841.469 115.72C841.33 115.197 841.186 114.643 841.037 114.056C840.898 113.469 840.76 112.904 840.621 112.36H840.557C840.429 112.915 840.296 113.485 840.157 114.072C840.029 114.648 839.89 115.197 839.741 115.72ZM835.965 121L839.229 110.568H842.061L845.325 121H842.829L842.189 118.52H839.005L838.365 121H835.965ZM848.807 121.192C847.943 121.192 847.313 120.909 846.919 120.344C846.535 119.768 846.343 118.984 846.343 117.992V113.064H848.695V117.688C848.695 118.253 848.775 118.648 848.935 118.872C849.095 119.085 849.345 119.192 849.687 119.192C849.985 119.192 850.236 119.123 850.439 118.984C850.641 118.845 850.86 118.621 851.095 118.312V113.064H853.447V121H851.527L851.351 119.896H851.303C850.972 120.291 850.609 120.605 850.215 120.84C849.82 121.075 849.351 121.192 848.807 121.192ZM855.667 121V113.064H857.587L857.747 114.456H857.811C858.099 113.923 858.445 113.528 858.851 113.272C859.256 113.005 859.661 112.872 860.067 112.872C860.291 112.872 860.477 112.888 860.627 112.92C860.776 112.941 860.904 112.979 861.011 113.032L860.627 115.064C860.488 115.021 860.349 114.989 860.211 114.968C860.083 114.947 859.933 114.936 859.763 114.936C859.464 114.936 859.149 115.048 858.819 115.272C858.499 115.485 858.232 115.859 858.019 116.392V121H855.667ZM866.352 121.192C866 121.192 865.642 121.107 865.28 120.936C864.928 120.755 864.597 120.493 864.288 120.152H864.224L864.032 121H862.192V109.784H864.544V112.536L864.48 113.752C864.789 113.475 865.125 113.261 865.488 113.112C865.85 112.952 866.213 112.872 866.576 112.872C867.216 112.872 867.77 113.037 868.24 113.368C868.709 113.699 869.066 114.168 869.312 114.776C869.568 115.373 869.696 116.077 869.696 116.888C869.696 117.795 869.536 118.573 869.216 119.224C868.896 119.864 868.48 120.355 867.968 120.696C867.466 121.027 866.928 121.192 866.352 121.192ZM865.808 119.272C866.213 119.272 866.56 119.085 866.848 118.712C867.136 118.339 867.28 117.747 867.28 116.936C867.28 115.507 866.821 114.792 865.904 114.792C865.434 114.792 864.981 115.032 864.544 115.512V118.76C864.757 118.952 864.97 119.085 865.184 119.16C865.397 119.235 865.605 119.272 865.808 119.272ZM873.342 121.192C872.616 121.192 872.04 120.963 871.614 120.504C871.187 120.035 870.974 119.464 870.974 118.792C870.974 117.96 871.326 117.309 872.03 116.84C872.734 116.371 873.87 116.056 875.438 115.896C875.416 115.544 875.31 115.267 875.118 115.064C874.936 114.851 874.627 114.744 874.19 114.744C873.859 114.744 873.523 114.808 873.182 114.936C872.84 115.064 872.478 115.24 872.094 115.464L871.246 113.912C871.747 113.603 872.28 113.352 872.846 113.16C873.422 112.968 874.019 112.872 874.638 112.872C875.651 112.872 876.43 113.165 876.974 113.752C877.518 114.339 877.79 115.24 877.79 116.456V121H875.87L875.71 120.184H875.646C875.315 120.483 874.958 120.728 874.574 120.92C874.2 121.101 873.79 121.192 873.342 121.192ZM874.142 119.368C874.408 119.368 874.638 119.309 874.83 119.192C875.032 119.064 875.235 118.899 875.438 118.696V117.304C874.606 117.411 874.03 117.581 873.71 117.816C873.39 118.04 873.23 118.307 873.23 118.616C873.23 118.872 873.31 119.064 873.47 119.192C873.64 119.309 873.864 119.368 874.142 119.368ZM882.265 121.192C881.742 121.192 881.204 121.091 880.649 120.888C880.105 120.685 879.63 120.419 879.225 120.088L880.281 118.616C880.644 118.883 880.99 119.091 881.321 119.24C881.662 119.379 881.998 119.448 882.329 119.448C882.681 119.448 882.937 119.389 883.097 119.272C883.257 119.144 883.337 118.979 883.337 118.776C883.337 118.595 883.257 118.445 883.097 118.328C882.948 118.211 882.75 118.104 882.505 118.008C882.26 117.901 881.998 117.795 881.721 117.688C881.401 117.56 881.081 117.4 880.761 117.208C880.452 117.016 880.19 116.771 879.977 116.472C879.764 116.163 879.657 115.789 879.657 115.352C879.657 114.616 879.934 114.019 880.489 113.56C881.054 113.101 881.79 112.872 882.697 112.872C883.305 112.872 883.838 112.979 884.297 113.192C884.766 113.395 885.166 113.624 885.497 113.88L884.441 115.288C884.164 115.075 883.886 114.909 883.609 114.792C883.332 114.675 883.054 114.616 882.777 114.616C882.169 114.616 881.865 114.824 881.865 115.24C881.865 115.496 882.014 115.693 882.313 115.832C882.622 115.96 882.98 116.099 883.385 116.248C883.726 116.365 884.057 116.52 884.377 116.712C884.708 116.893 884.98 117.139 885.193 117.448C885.417 117.747 885.529 118.141 885.529 118.632C885.529 119.347 885.252 119.955 884.697 120.456C884.142 120.947 883.332 121.192 882.265 121.192ZM890.725 121.192C889.967 121.192 889.285 121.027 888.677 120.696C888.069 120.365 887.589 119.891 887.237 119.272C886.885 118.653 886.709 117.907 886.709 117.032C886.709 116.168 886.885 115.427 887.237 114.808C887.599 114.189 888.069 113.715 888.645 113.384C889.221 113.043 889.823 112.872 890.453 112.872C891.21 112.872 891.834 113.043 892.325 113.384C892.826 113.715 893.199 114.168 893.445 114.744C893.701 115.309 893.829 115.955 893.829 116.68C893.829 116.883 893.818 117.085 893.797 117.288C893.775 117.48 893.754 117.624 893.733 117.72H888.981C889.087 118.296 889.327 118.723 889.701 119C890.074 119.267 890.522 119.4 891.045 119.4C891.61 119.4 892.181 119.224 892.757 118.872L893.541 120.296C893.135 120.573 892.682 120.792 892.181 120.952C891.679 121.112 891.194 121.192 890.725 121.192ZM888.965 116.168H891.829C891.829 115.731 891.722 115.373 891.509 115.096C891.306 114.808 890.97 114.664 890.501 114.664C890.138 114.664 889.813 114.792 889.525 115.048C889.237 115.293 889.05 115.667 888.965 116.168ZM895.604 121V113.064H897.524L897.684 114.456H897.748C898.036 113.923 898.383 113.528 898.788 113.272C899.193 113.005 899.599 112.872 900.004 112.872C900.228 112.872 900.415 112.888 900.564 112.92C900.713 112.941 900.841 112.979 900.948 113.032L900.564 115.064C900.425 115.021 900.287 114.989 900.148 114.968C900.02 114.947 899.871 114.936 899.7 114.936C899.401 114.936 899.087 115.048 898.756 115.272C898.436 115.485 898.169 115.859 897.956 116.392V121H895.604Z" fill="#121212"/>
<path d="M4.51648 167V156.536H7.81248C8.59114 156.536 9.28448 156.637 9.89248 156.84C10.5005 157.043 10.9805 157.379 11.3325 157.848C11.6845 158.317 11.8605 158.957 11.8605 159.768C11.8605 160.536 11.6845 161.171 11.3325 161.672C10.9805 162.173 10.5058 162.547 9.90848 162.792C9.31114 163.037 8.63381 163.16 7.87648 163.16H6.37248V167H4.51648ZM6.37248 161.672H7.73248C9.26848 161.672 10.0365 161.037 10.0365 159.768C10.0365 159.107 9.83381 158.653 9.42848 158.408C9.03381 158.152 8.44714 158.024 7.66848 158.024H6.37248V161.672ZM16.8196 167.192C16.0943 167.192 15.4383 167.032 14.8516 166.712C14.2649 166.381 13.8009 165.912 13.4596 165.304C13.1183 164.685 12.9476 163.944 12.9476 163.08C12.9476 162.227 13.1183 161.491 13.4596 160.872C13.8116 160.253 14.2649 159.779 14.8196 159.448C15.3743 159.117 15.9556 158.952 16.5636 158.952C17.2783 158.952 17.8756 159.112 18.3556 159.432C18.8356 159.741 19.1983 160.179 19.4436 160.744C19.6889 161.299 19.8116 161.944 19.8116 162.68C19.8116 163.064 19.7849 163.363 19.7316 163.576H14.7396C14.8249 164.269 15.0756 164.808 15.4916 165.192C15.9076 165.576 16.4303 165.768 17.0596 165.768C17.4009 165.768 17.7156 165.72 18.0036 165.624C18.3023 165.517 18.5956 165.373 18.8836 165.192L19.5076 166.344C19.1343 166.589 18.7183 166.792 18.2596 166.952C17.8009 167.112 17.3209 167.192 16.8196 167.192ZM14.7236 162.328H18.2116C18.2116 161.72 18.0783 161.245 17.8116 160.904C17.5449 160.552 17.1449 160.376 16.6116 160.376C16.1529 160.376 15.7423 160.547 15.3796 160.888C15.0276 161.219 14.8089 161.699 14.7236 162.328ZM21.719 167V159.144H23.239L23.367 160.536H23.431C23.7083 160.024 24.0443 159.635 24.439 159.368C24.8336 159.091 25.239 158.952 25.655 158.952C26.0283 158.952 26.327 159.005 26.551 159.112L26.231 160.712C26.0923 160.669 25.9643 160.637 25.847 160.616C25.7296 160.595 25.5856 160.584 25.415 160.584C25.1056 160.584 24.7803 160.707 24.439 160.952C24.0976 161.187 23.8043 161.603 23.559 162.2V167H21.719ZM29.936 167.192C29.4026 167.192 28.8693 167.091 28.336 166.888C27.8026 166.675 27.344 166.413 26.96 166.104L27.824 164.92C28.176 165.187 28.528 165.4 28.88 165.56C29.232 165.72 29.6053 165.8 30 165.8C30.4266 165.8 30.7413 165.709 30.944 165.528C31.1466 165.347 31.248 165.123 31.248 164.856C31.248 164.632 31.1626 164.451 30.992 164.312C30.832 164.163 30.624 164.035 30.368 163.928C30.112 163.811 29.8453 163.699 29.568 163.592C29.2266 163.464 28.8853 163.309 28.544 163.128C28.2133 162.936 27.9413 162.696 27.728 162.408C27.5146 162.109 27.408 161.741 27.408 161.304C27.408 160.611 27.664 160.045 28.176 159.608C28.688 159.171 29.3813 158.952 30.256 158.952C30.8106 158.952 31.3066 159.048 31.744 159.24C32.1813 159.432 32.56 159.651 32.88 159.896L32.032 161.016C31.7546 160.813 31.472 160.653 31.184 160.536C30.9066 160.408 30.6133 160.344 30.304 160.344C29.9093 160.344 29.616 160.429 29.424 160.6C29.232 160.76 29.136 160.963 29.136 161.208C29.136 161.517 29.296 161.752 29.616 161.912C29.936 162.072 30.3093 162.227 30.736 162.376C31.0986 162.504 31.4506 162.664 31.792 162.856C32.1333 163.037 32.416 163.277 32.64 163.576C32.8746 163.875 32.992 164.269 32.992 164.76C32.992 165.432 32.7306 166.008 32.208 166.488C31.6853 166.957 30.928 167.192 29.936 167.192ZM38.0006 167.192C37.3499 167.192 36.7419 167.032 36.1766 166.712C35.6113 166.381 35.1526 165.912 34.8006 165.304C34.4486 164.685 34.2726 163.944 34.2726 163.08C34.2726 162.205 34.4486 161.464 34.8006 160.856C35.1526 160.237 35.6113 159.768 36.1766 159.448C36.7419 159.117 37.3499 158.952 38.0006 158.952C38.6619 158.952 39.2753 159.117 39.8406 159.448C40.4059 159.768 40.8646 160.237 41.2166 160.856C41.5686 161.464 41.7446 162.205 41.7446 163.08C41.7446 163.944 41.5686 164.685 41.2166 165.304C40.8646 165.912 40.4059 166.381 39.8406 166.712C39.2753 167.032 38.6619 167.192 38.0006 167.192ZM38.0006 165.688C38.5766 165.688 39.0299 165.448 39.3606 164.968C39.6913 164.488 39.8566 163.859 39.8566 163.08C39.8566 162.291 39.6913 161.656 39.3606 161.176C39.0299 160.696 38.5766 160.456 38.0006 160.456C37.4246 160.456 36.9713 160.696 36.6406 161.176C36.3206 161.656 36.1606 162.291 36.1606 163.08C36.1606 163.859 36.3206 164.488 36.6406 164.968C36.9713 165.448 37.4246 165.688 38.0006 165.688ZM43.7159 167V159.144H45.2359L45.3639 160.2H45.4279C45.7799 159.859 46.1639 159.565 46.5799 159.32C46.9959 159.075 47.4705 158.952 48.0039 158.952C48.8465 158.952 49.4599 159.224 49.8439 159.768C50.2279 160.312 50.4199 161.08 50.4199 162.072V167H48.5799V162.312C48.5799 161.661 48.4839 161.203 48.2919 160.936C48.0999 160.669 47.7852 160.536 47.3479 160.536C47.0065 160.536 46.7025 160.621 46.4359 160.792C46.1799 160.952 45.8865 161.192 45.5559 161.512V167H43.7159ZM54.723 167.192C54.0403 167.192 53.4803 166.979 53.043 166.552C52.6163 166.125 52.403 165.571 52.403 164.888C52.403 164.045 52.771 163.395 53.507 162.936C54.243 162.467 55.4163 162.147 57.027 161.976C57.0163 161.56 56.9043 161.203 56.691 160.904C56.4883 160.595 56.1203 160.44 55.587 160.44C55.203 160.44 54.8243 160.515 54.451 160.664C54.0883 160.813 53.731 160.995 53.379 161.208L52.707 159.976C53.1443 159.699 53.635 159.459 54.179 159.256C54.7336 159.053 55.3203 158.952 55.939 158.952C56.9203 158.952 57.651 159.245 58.131 159.832C58.6216 160.408 58.867 161.245 58.867 162.344V167H57.347L57.219 166.136H57.155C56.803 166.435 56.4243 166.685 56.019 166.888C55.6243 167.091 55.1923 167.192 54.723 167.192ZM55.315 165.752C55.635 165.752 55.923 165.677 56.179 165.528C56.4456 165.368 56.7283 165.155 57.027 164.888V163.128C55.9603 163.267 55.219 163.475 54.803 163.752C54.387 164.019 54.179 164.349 54.179 164.744C54.179 165.096 54.2856 165.352 54.499 165.512C54.7123 165.672 54.9843 165.752 55.315 165.752ZM63.011 167.192C62.3603 167.192 61.8963 166.995 61.619 166.6C61.3523 166.205 61.219 165.667 61.219 164.984V155.704H63.059V165.08C63.059 165.304 63.1016 165.464 63.187 165.56C63.2723 165.645 63.363 165.688 63.459 165.688C63.5016 165.688 63.539 165.688 63.571 165.688C63.6136 165.677 63.6723 165.667 63.747 165.656L63.987 167.032C63.8803 167.075 63.7416 167.112 63.571 167.144C63.411 167.176 63.2243 167.192 63.011 167.192ZM65.7127 167V159.144H67.5527V167H65.7127ZM66.6407 157.768C66.3101 157.768 66.0434 157.672 65.8407 157.48C65.6381 157.288 65.5367 157.032 65.5367 156.712C65.5367 156.403 65.6381 156.152 65.8407 155.96C66.0434 155.768 66.3101 155.672 66.6407 155.672C66.9714 155.672 67.2381 155.768 67.4407 155.96C67.6434 156.152 67.7447 156.403 67.7447 156.712C67.7447 157.032 67.6434 157.288 67.4407 157.48C67.2381 157.672 66.9714 157.768 66.6407 157.768ZM72.8182 167.192C71.9116 167.192 71.2662 166.931 70.8822 166.408C70.5089 165.875 70.3222 165.187 70.3222 164.344V160.6H69.2022V159.224L70.4182 159.144L70.6422 157H72.1782V159.144H74.1782V160.6H72.1782V164.344C72.1782 165.261 72.5462 165.72 73.2822 165.72C73.4209 165.72 73.5649 165.704 73.7142 165.672C73.8636 165.629 73.9916 165.587 74.0982 165.544L74.4182 166.904C74.2049 166.979 73.9596 167.043 73.6822 167.096C73.4156 167.16 73.1276 167.192 72.8182 167.192ZM76.5095 170.232C76.2961 170.232 76.1095 170.216 75.9495 170.184C75.7895 170.152 75.6348 170.115 75.4855 170.072L75.8215 168.632C75.8961 168.653 75.9815 168.675 76.0775 168.696C76.1841 168.728 76.2855 168.744 76.3815 168.744C76.7975 168.744 77.1281 168.616 77.3735 168.36C77.6295 168.115 77.8215 167.795 77.9495 167.4L78.0935 166.904L75.0055 159.144H76.8775L78.2375 163C78.3548 163.341 78.4668 163.704 78.5735 164.088C78.6908 164.461 78.8081 164.835 78.9255 165.208H78.9895C79.0855 164.845 79.1815 164.477 79.2775 164.104C79.3841 163.72 79.4855 163.352 79.5815 163L80.7655 159.144H82.5415L79.6935 167.352C79.3628 168.237 78.9628 168.936 78.4935 169.448C78.0241 169.971 77.3628 170.232 76.5095 170.232Z" fill="black"/>
<path d="M171.221 132V121.536H173.077V130.432H177.429V132H171.221ZM181.146 132.192C180.463 132.192 179.903 131.979 179.466 131.552C179.039 131.125 178.826 130.571 178.826 129.888C178.826 129.045 179.194 128.395 179.93 127.936C180.666 127.467 181.839 127.147 183.45 126.976C183.439 126.56 183.327 126.203 183.114 125.904C182.911 125.595 182.543 125.44 182.01 125.44C181.626 125.44 181.247 125.515 180.874 125.664C180.511 125.813 180.154 125.995 179.802 126.208L179.13 124.976C179.567 124.699 180.058 124.459 180.602 124.256C181.156 124.053 181.743 123.952 182.362 123.952C183.343 123.952 184.074 124.245 184.554 124.832C185.044 125.408 185.29 126.245 185.29 127.344V132H183.77L183.642 131.136H183.578C183.226 131.435 182.847 131.685 182.442 131.888C182.047 132.091 181.615 132.192 181.146 132.192ZM181.738 130.752C182.058 130.752 182.346 130.677 182.602 130.528C182.868 130.368 183.151 130.155 183.45 129.888V128.128C182.383 128.267 181.642 128.475 181.226 128.752C180.81 129.019 180.602 129.349 180.602 129.744C180.602 130.096 180.708 130.352 180.922 130.512C181.135 130.672 181.407 130.752 181.738 130.752ZM187.642 132V124.144H189.162L189.29 125.2H189.354C189.706 124.859 190.09 124.565 190.506 124.32C190.922 124.075 191.396 123.952 191.93 123.952C192.772 123.952 193.386 124.224 193.77 124.768C194.154 125.312 194.346 126.08 194.346 127.072V132H192.506V127.312C192.506 126.661 192.41 126.203 192.218 125.936C192.026 125.669 191.711 125.536 191.274 125.536C190.932 125.536 190.628 125.621 190.362 125.792C190.106 125.952 189.812 126.192 189.482 126.512V132H187.642ZM199.481 135.472C198.862 135.472 198.302 135.397 197.801 135.248C197.31 135.099 196.921 134.869 196.633 134.56C196.356 134.261 196.217 133.883 196.217 133.424C196.217 132.773 196.59 132.213 197.337 131.744V131.68C197.134 131.552 196.964 131.381 196.825 131.168C196.697 130.955 196.633 130.688 196.633 130.368C196.633 130.059 196.718 129.781 196.889 129.536C197.07 129.28 197.273 129.072 197.497 128.912V128.848C197.23 128.645 196.99 128.363 196.777 128C196.574 127.637 196.473 127.227 196.473 126.768C196.473 126.16 196.617 125.648 196.905 125.232C197.193 124.816 197.572 124.501 198.041 124.288C198.521 124.064 199.033 123.952 199.577 123.952C199.79 123.952 199.993 123.973 200.185 124.016C200.388 124.048 200.569 124.091 200.729 124.144H203.545V125.504H202.105C202.233 125.653 202.34 125.845 202.425 126.08C202.51 126.304 202.553 126.555 202.553 126.832C202.553 127.408 202.42 127.899 202.153 128.304C201.886 128.699 201.529 128.997 201.081 129.2C200.633 129.403 200.132 129.504 199.577 129.504C199.406 129.504 199.23 129.488 199.049 129.456C198.868 129.424 198.686 129.371 198.505 129.296C198.388 129.403 198.292 129.509 198.217 129.616C198.153 129.723 198.121 129.867 198.121 130.048C198.121 130.272 198.212 130.448 198.393 130.576C198.585 130.704 198.921 130.768 199.401 130.768H200.793C201.742 130.768 202.457 130.923 202.937 131.232C203.428 131.531 203.673 132.021 203.673 132.704C203.673 133.216 203.502 133.68 203.161 134.096C202.82 134.523 202.334 134.859 201.705 135.104C201.076 135.349 200.334 135.472 199.481 135.472ZM199.577 128.352C199.95 128.352 200.27 128.213 200.537 127.936C200.804 127.659 200.937 127.269 200.937 126.768C200.937 126.277 200.804 125.899 200.537 125.632C200.281 125.355 199.961 125.216 199.577 125.216C199.193 125.216 198.868 125.349 198.601 125.616C198.334 125.883 198.201 126.267 198.201 126.768C198.201 127.269 198.334 127.659 198.601 127.936C198.868 128.213 199.193 128.352 199.577 128.352ZM199.769 134.272C200.398 134.272 200.91 134.144 201.305 133.888C201.7 133.632 201.897 133.339 201.897 133.008C201.897 132.699 201.774 132.491 201.529 132.384C201.294 132.277 200.953 132.224 200.505 132.224H199.433C199.006 132.224 198.649 132.187 198.361 132.112C197.956 132.421 197.753 132.768 197.753 133.152C197.753 133.504 197.934 133.776 198.297 133.968C198.66 134.171 199.15 134.272 199.769 134.272ZM207.543 132.192C206.701 132.192 206.087 131.92 205.703 131.376C205.319 130.832 205.127 130.064 205.127 129.072V124.144H206.967V128.832C206.967 129.483 207.063 129.941 207.255 130.208C207.447 130.475 207.757 130.608 208.183 130.608C208.525 130.608 208.823 130.523 209.079 130.352C209.346 130.181 209.629 129.904 209.927 129.52V124.144H211.767V132H210.263L210.119 130.848H210.071C209.73 131.253 209.357 131.579 208.951 131.824C208.546 132.069 208.077 132.192 207.543 132.192ZM216.152 132.192C215.469 132.192 214.909 131.979 214.472 131.552C214.045 131.125 213.832 130.571 213.832 129.888C213.832 129.045 214.2 128.395 214.936 127.936C215.672 127.467 216.845 127.147 218.456 126.976C218.445 126.56 218.333 126.203 218.12 125.904C217.917 125.595 217.549 125.44 217.016 125.44C216.632 125.44 216.253 125.515 215.88 125.664C215.517 125.813 215.16 125.995 214.808 126.208L214.136 124.976C214.573 124.699 215.064 124.459 215.608 124.256C216.163 124.053 216.749 123.952 217.368 123.952C218.349 123.952 219.08 124.245 219.56 124.832C220.051 125.408 220.296 126.245 220.296 127.344V132H218.776L218.648 131.136H218.584C218.232 131.435 217.853 131.685 217.448 131.888C217.053 132.091 216.621 132.192 216.152 132.192ZM216.744 130.752C217.064 130.752 217.352 130.677 217.608 130.528C217.875 130.368 218.157 130.155 218.456 129.888V128.128C217.389 128.267 216.648 128.475 216.232 128.752C215.816 129.019 215.608 129.349 215.608 129.744C215.608 130.096 215.715 130.352 215.928 130.512C216.141 130.672 216.413 130.752 216.744 130.752ZM225.384 135.472C224.765 135.472 224.205 135.397 223.704 135.248C223.213 135.099 222.824 134.869 222.536 134.56C222.259 134.261 222.12 133.883 222.12 133.424C222.12 132.773 222.493 132.213 223.24 131.744V131.68C223.037 131.552 222.867 131.381 222.728 131.168C222.6 130.955 222.536 130.688 222.536 130.368C222.536 130.059 222.621 129.781 222.792 129.536C222.973 129.28 223.176 129.072 223.4 128.912V128.848C223.133 128.645 222.893 128.363 222.68 128C222.477 127.637 222.376 127.227 222.376 126.768C222.376 126.16 222.52 125.648 222.808 125.232C223.096 124.816 223.475 124.501 223.944 124.288C224.424 124.064 224.936 123.952 225.48 123.952C225.693 123.952 225.896 123.973 226.088 124.016C226.291 124.048 226.472 124.091 226.632 124.144H229.448V125.504H228.008C228.136 125.653 228.243 125.845 228.328 126.08C228.413 126.304 228.456 126.555 228.456 126.832C228.456 127.408 228.323 127.899 228.056 128.304C227.789 128.699 227.432 128.997 226.984 129.2C226.536 129.403 226.035 129.504 225.48 129.504C225.309 129.504 225.133 129.488 224.952 129.456C224.771 129.424 224.589 129.371 224.408 129.296C224.291 129.403 224.195 129.509 224.12 129.616C224.056 129.723 224.024 129.867 224.024 130.048C224.024 130.272 224.115 130.448 224.296 130.576C224.488 130.704 224.824 130.768 225.304 130.768H226.696C227.645 130.768 228.36 130.923 228.84 131.232C229.331 131.531 229.576 132.021 229.576 132.704C229.576 133.216 229.405 133.68 229.064 134.096C228.723 134.523 228.237 134.859 227.608 135.104C226.979 135.349 226.237 135.472 225.384 135.472ZM225.48 128.352C225.853 128.352 226.173 128.213 226.44 127.936C226.707 127.659 226.84 127.269 226.84 126.768C226.84 126.277 226.707 125.899 226.44 125.632C226.184 125.355 225.864 125.216 225.48 125.216C225.096 125.216 224.771 125.349 224.504 125.616C224.237 125.883 224.104 126.267 224.104 126.768C224.104 127.269 224.237 127.659 224.504 127.936C224.771 128.213 225.096 128.352 225.48 128.352ZM225.672 134.272C226.301 134.272 226.813 134.144 227.208 133.888C227.603 133.632 227.8 133.339 227.8 133.008C227.8 132.699 227.677 132.491 227.432 132.384C227.197 132.277 226.856 132.224 226.408 132.224H225.336C224.909 132.224 224.552 132.187 224.264 132.112C223.859 132.421 223.656 132.768 223.656 133.152C223.656 133.504 223.837 133.776 224.2 133.968C224.563 134.171 225.053 134.272 225.672 134.272ZM234.221 132.192C233.495 132.192 232.839 132.032 232.253 131.712C231.666 131.381 231.202 130.912 230.861 130.304C230.519 129.685 230.349 128.944 230.349 128.08C230.349 127.227 230.519 126.491 230.861 125.872C231.213 125.253 231.666 124.779 232.221 124.448C232.775 124.117 233.357 123.952 233.965 123.952C234.679 123.952 235.277 124.112 235.757 124.432C236.237 124.741 236.599 125.179 236.845 125.744C237.09 126.299 237.213 126.944 237.213 127.68C237.213 128.064 237.186 128.363 237.133 128.576H232.141C232.226 129.269 232.477 129.808 232.893 130.192C233.309 130.576 233.831 130.768 234.461 130.768C234.802 130.768 235.117 130.72 235.405 130.624C235.703 130.517 235.997 130.373 236.285 130.192L236.909 131.344C236.535 131.589 236.119 131.792 235.661 131.952C235.202 132.112 234.722 132.192 234.221 132.192ZM232.125 127.328H235.613C235.613 126.72 235.479 126.245 235.213 125.904C234.946 125.552 234.546 125.376 234.013 125.376C233.554 125.376 233.143 125.547 232.781 125.888C232.429 126.219 232.21 126.699 232.125 127.328Z" fill="black"/>
<path d="M356.616 170.192C355.912 170.192 355.23 170.059 354.568 169.792C353.918 169.525 353.342 169.147 352.84 168.656L353.928 167.392C354.302 167.744 354.728 168.032 355.208 168.256C355.688 168.469 356.168 168.576 356.648 168.576C357.246 168.576 357.699 168.453 358.008 168.208C358.318 167.963 358.472 167.637 358.472 167.232C358.472 166.795 358.318 166.48 358.008 166.288C357.71 166.096 357.326 165.899 356.856 165.696L355.416 165.072C355.075 164.923 354.739 164.731 354.408 164.496C354.088 164.261 353.822 163.963 353.608 163.6C353.406 163.237 353.304 162.8 353.304 162.288C353.304 161.733 353.454 161.237 353.752 160.8C354.062 160.352 354.478 160 355 159.744C355.534 159.477 356.142 159.344 356.824 159.344C357.432 159.344 358.019 159.467 358.584 159.712C359.15 159.947 359.635 160.267 360.04 160.672L359.096 161.856C358.766 161.579 358.414 161.36 358.04 161.2C357.678 161.04 357.272 160.96 356.824 160.96C356.334 160.96 355.934 161.072 355.624 161.296C355.326 161.509 355.176 161.808 355.176 162.192C355.176 162.459 355.251 162.683 355.4 162.864C355.56 163.035 355.768 163.184 356.024 163.312C356.28 163.429 356.552 163.547 356.84 163.664L358.264 164.256C358.883 164.523 359.39 164.875 359.784 165.312C360.179 165.739 360.376 166.331 360.376 167.088C360.376 167.653 360.227 168.171 359.928 168.64C359.63 169.109 359.198 169.488 358.632 169.776C358.078 170.053 357.406 170.192 356.616 170.192ZM364.615 170.192C363.709 170.192 363.063 169.931 362.679 169.408C362.306 168.875 362.119 168.187 362.119 167.344V163.6H360.999V162.224L362.215 162.144L362.439 160H363.975V162.144H365.975V163.6H363.975V167.344C363.975 168.261 364.343 168.72 365.079 168.72C365.218 168.72 365.362 168.704 365.511 168.672C365.661 168.629 365.789 168.587 365.895 168.544L366.215 169.904C366.002 169.979 365.757 170.043 365.479 170.096C365.213 170.16 364.925 170.192 364.615 170.192ZM369.339 170.192C368.656 170.192 368.096 169.979 367.659 169.552C367.232 169.125 367.019 168.571 367.019 167.888C367.019 167.045 367.387 166.395 368.123 165.936C368.859 165.467 370.032 165.147 371.643 164.976C371.632 164.56 371.52 164.203 371.307 163.904C371.104 163.595 370.736 163.44 370.203 163.44C369.819 163.44 369.44 163.515 369.067 163.664C368.704 163.813 368.347 163.995 367.995 164.208L367.323 162.976C367.76 162.699 368.251 162.459 368.795 162.256C369.349 162.053 369.936 161.952 370.555 161.952C371.536 161.952 372.267 162.245 372.747 162.832C373.237 163.408 373.483 164.245 373.483 165.344V170H371.963L371.835 169.136H371.771C371.419 169.435 371.04 169.685 370.635 169.888C370.24 170.091 369.808 170.192 369.339 170.192ZM369.931 168.752C370.251 168.752 370.539 168.677 370.795 168.528C371.061 168.368 371.344 168.155 371.643 167.888V166.128C370.576 166.267 369.835 166.475 369.419 166.752C369.003 167.019 368.795 167.349 368.795 167.744C368.795 168.096 368.901 168.352 369.115 168.512C369.328 168.672 369.6 168.752 369.931 168.752ZM379.115 170.192C378.4 170.192 377.755 170.032 377.179 169.712C376.613 169.381 376.16 168.912 375.819 168.304C375.488 167.685 375.323 166.944 375.323 166.08C375.323 165.205 375.504 164.464 375.867 163.856C376.229 163.237 376.709 162.768 377.307 162.448C377.915 162.117 378.565 161.952 379.259 161.952C379.76 161.952 380.197 162.037 380.571 162.208C380.944 162.379 381.275 162.587 381.563 162.832L380.667 164.032C380.464 163.851 380.256 163.712 380.043 163.616C379.829 163.509 379.6 163.456 379.355 163.456C378.725 163.456 378.208 163.696 377.803 164.176C377.408 164.656 377.211 165.291 377.211 166.08C377.211 166.859 377.403 167.488 377.787 167.968C378.181 168.448 378.688 168.688 379.307 168.688C379.616 168.688 379.904 168.624 380.171 168.496C380.448 168.357 380.699 168.197 380.923 168.016L381.675 169.232C381.312 169.552 380.907 169.792 380.459 169.952C380.011 170.112 379.563 170.192 379.115 170.192ZM383.375 170V158.704H385.183V165.76H385.231L388.143 162.144H390.159L387.471 165.344L390.431 170H388.431L386.415 166.592L385.183 168V170H383.375Z" fill="black"/>
<path d="M524.5 134V123.536H526.356V132.432H530.708V134H524.5ZM532.521 134V126.144H534.361V134H532.521ZM533.449 124.768C533.118 124.768 532.851 124.672 532.649 124.48C532.446 124.288 532.345 124.032 532.345 123.712C532.345 123.403 532.446 123.152 532.649 122.96C532.851 122.768 533.118 122.672 533.449 122.672C533.779 122.672 534.046 122.768 534.249 122.96C534.451 123.152 534.553 123.403 534.553 123.712C534.553 124.032 534.451 124.288 534.249 124.48C534.046 124.672 533.779 124.768 533.449 124.768ZM538.618 134L535.882 126.144H537.754L539.002 130.224C539.109 130.608 539.216 130.997 539.322 131.392C539.44 131.787 539.552 132.187 539.658 132.592H539.722C539.84 132.187 539.952 131.787 540.058 131.392C540.176 130.997 540.288 130.608 540.394 130.224L541.642 126.144H543.418L540.746 134H538.618ZM548.196 134.192C547.471 134.192 546.815 134.032 546.228 133.712C545.642 133.381 545.178 132.912 544.836 132.304C544.495 131.685 544.324 130.944 544.324 130.08C544.324 129.227 544.495 128.491 544.836 127.872C545.188 127.253 545.642 126.779 546.196 126.448C546.751 126.117 547.332 125.952 547.94 125.952C548.655 125.952 549.252 126.112 549.732 126.432C550.212 126.741 550.575 127.179 550.82 127.744C551.066 128.299 551.188 128.944 551.188 129.68C551.188 130.064 551.162 130.363 551.108 130.576H546.116C546.202 131.269 546.452 131.808 546.868 132.192C547.284 132.576 547.807 132.768 548.436 132.768C548.778 132.768 549.092 132.72 549.38 132.624C549.679 132.517 549.972 132.373 550.26 132.192L550.884 133.344C550.511 133.589 550.095 133.792 549.636 133.952C549.178 134.112 548.698 134.192 548.196 134.192ZM546.1 129.328H549.588C549.588 128.72 549.455 128.245 549.188 127.904C548.922 127.552 548.522 127.376 547.988 127.376C547.53 127.376 547.119 127.547 546.756 127.888C546.404 128.219 546.186 128.699 546.1 129.328ZM505.445 149V138.536H507.301V149H505.445ZM509.951 149V141.144H511.471L511.599 142.2H511.663C512.015 141.859 512.399 141.565 512.815 141.32C513.231 141.075 513.705 140.952 514.239 140.952C515.081 140.952 515.695 141.224 516.079 141.768C516.463 142.312 516.655 143.08 516.655 144.072V149H514.815V144.312C514.815 143.661 514.719 143.203 514.527 142.936C514.335 142.669 514.02 142.536 513.583 142.536C513.241 142.536 512.937 142.621 512.671 142.792C512.415 142.952 512.121 143.192 511.791 143.512V149H509.951ZM521.822 149.192C520.915 149.192 520.27 148.931 519.886 148.408C519.512 147.875 519.326 147.187 519.326 146.344V142.6H518.206V141.224L519.422 141.144L519.646 139H521.182V141.144H523.182V142.6H521.182V146.344C521.182 147.261 521.55 147.72 522.286 147.72C522.424 147.72 522.568 147.704 522.718 147.672C522.867 147.629 522.995 147.587 523.102 147.544L523.422 148.904C523.208 148.979 522.963 149.043 522.686 149.096C522.419 149.16 522.131 149.192 521.822 149.192ZM528.095 149.192C527.37 149.192 526.714 149.032 526.127 148.712C525.54 148.381 525.076 147.912 524.735 147.304C524.394 146.685 524.223 145.944 524.223 145.08C524.223 144.227 524.394 143.491 524.735 142.872C525.087 142.253 525.54 141.779 526.095 141.448C526.65 141.117 527.231 140.952 527.839 140.952C528.554 140.952 529.151 141.112 529.631 141.432C530.111 141.741 530.474 142.179 530.719 142.744C530.964 143.299 531.087 143.944 531.087 144.68C531.087 145.064 531.06 145.363 531.007 145.576H526.015C526.1 146.269 526.351 146.808 526.767 147.192C527.183 147.576 527.706 147.768 528.335 147.768C528.676 147.768 528.991 147.72 529.279 147.624C529.578 147.517 529.871 147.373 530.159 147.192L530.783 148.344C530.41 148.589 529.994 148.792 529.535 148.952C529.076 149.112 528.596 149.192 528.095 149.192ZM525.999 144.328H529.487C529.487 143.72 529.354 143.245 529.087 142.904C528.82 142.552 528.42 142.376 527.887 142.376C527.428 142.376 527.018 142.547 526.655 142.888C526.303 143.219 526.084 143.699 525.999 144.328ZM532.994 149V141.144H534.514L534.642 142.536H534.706C534.984 142.024 535.32 141.635 535.714 141.368C536.109 141.091 536.514 140.952 536.93 140.952C537.304 140.952 537.602 141.005 537.826 141.112L537.506 142.712C537.368 142.669 537.24 142.637 537.122 142.616C537.005 142.595 536.861 142.584 536.69 142.584C536.381 142.584 536.056 142.707 535.714 142.952C535.373 143.187 535.08 143.603 534.834 144.2V149H532.994ZM541.123 149L538.387 141.144H540.259L541.507 145.224C541.614 145.608 541.72 145.997 541.827 146.392C541.944 146.787 542.056 147.187 542.163 147.592H542.227C542.344 147.187 542.456 146.787 542.563 146.392C542.68 145.997 542.792 145.608 542.899 145.224L544.147 141.144H545.923L543.251 149H541.123ZM547.435 149V141.144H549.275V149H547.435ZM548.363 139.768C548.032 139.768 547.766 139.672 547.563 139.48C547.36 139.288 547.259 139.032 547.259 138.712C547.259 138.403 547.36 138.152 547.563 137.96C547.766 137.768 548.032 137.672 548.363 137.672C548.694 137.672 548.96 137.768 549.163 137.96C549.366 138.152 549.467 138.403 549.467 138.712C549.467 139.032 549.366 139.288 549.163 139.48C548.96 139.672 548.694 139.768 548.363 139.768ZM555.132 149.192C554.407 149.192 553.751 149.032 553.164 148.712C552.578 148.381 552.114 147.912 551.772 147.304C551.431 146.685 551.26 145.944 551.26 145.08C551.26 144.227 551.431 143.491 551.772 142.872C552.124 142.253 552.578 141.779 553.132 141.448C553.687 141.117 554.268 140.952 554.876 140.952C555.591 140.952 556.188 141.112 556.668 141.432C557.148 141.741 557.511 142.179 557.756 142.744C558.002 143.299 558.124 143.944 558.124 144.68C558.124 145.064 558.098 145.363 558.044 145.576H553.052C553.138 146.269 553.388 146.808 553.804 147.192C554.22 147.576 554.743 147.768 555.372 147.768C555.714 147.768 556.028 147.72 556.316 147.624C556.615 147.517 556.908 147.373 557.196 147.192L557.82 148.344C557.447 148.589 557.031 148.792 556.572 148.952C556.114 149.112 555.634 149.192 555.132 149.192ZM553.036 144.328H556.524C556.524 143.72 556.391 143.245 556.124 142.904C555.858 142.552 555.458 142.376 554.924 142.376C554.466 142.376 554.055 142.547 553.692 142.888C553.34 143.219 553.122 143.699 553.036 144.328ZM561.328 149L559.248 141.144H561.104L562.048 145.224C562.133 145.597 562.202 145.971 562.256 146.344C562.32 146.717 562.389 147.096 562.464 147.48H562.528C562.602 147.096 562.677 146.717 562.752 146.344C562.837 145.96 562.928 145.587 563.024 145.224L564.048 141.144H565.728L566.768 145.224C566.864 145.597 566.954 145.971 567.04 146.344C567.125 146.717 567.21 147.096 567.296 147.48H567.36C567.434 147.096 567.504 146.717 567.568 146.344C567.632 145.971 567.701 145.597 567.776 145.224L568.72 141.144H570.448L568.448 149H566.256L565.344 145.336C565.258 144.963 565.178 144.595 565.104 144.232C565.029 143.859 564.949 143.464 564.864 143.048H564.8C564.725 143.464 564.65 143.859 564.576 144.232C564.501 144.605 564.421 144.979 564.336 145.352L563.44 149H561.328Z" fill="black"/>
<path d="M674.207 162V151.536H676.303L678.159 156.656C678.276 156.987 678.388 157.328 678.495 157.68C678.612 158.021 678.724 158.363 678.831 158.704H678.895C679.012 158.363 679.124 158.021 679.231 157.68C679.338 157.328 679.444 156.987 679.551 156.656L681.359 151.536H683.471V162H681.759V157.216C681.759 156.885 681.77 156.528 681.791 156.144C681.823 155.749 681.855 155.355 681.887 154.96C681.93 154.565 681.967 154.208 681.999 153.888H681.935L681.087 156.32L679.375 161.024H678.271L676.543 156.32L675.711 153.888H675.647C675.679 154.208 675.711 154.565 675.743 154.96C675.786 155.355 675.818 155.749 675.839 156.144C675.871 156.528 675.887 156.885 675.887 157.216V162H674.207ZM688.023 162.192C687.34 162.192 686.78 161.979 686.343 161.552C685.916 161.125 685.703 160.571 685.703 159.888C685.703 159.045 686.071 158.395 686.807 157.936C687.543 157.467 688.716 157.147 690.327 156.976C690.316 156.56 690.204 156.203 689.991 155.904C689.788 155.595 689.42 155.44 688.887 155.44C688.503 155.44 688.124 155.515 687.751 155.664C687.388 155.813 687.031 155.995 686.679 156.208L686.007 154.976C686.444 154.699 686.935 154.459 687.479 154.256C688.034 154.053 688.62 153.952 689.239 153.952C690.22 153.952 690.951 154.245 691.431 154.832C691.922 155.408 692.167 156.245 692.167 157.344V162H690.647L690.519 161.136H690.455C690.103 161.435 689.724 161.685 689.319 161.888C688.924 162.091 688.492 162.192 688.023 162.192ZM688.615 160.752C688.935 160.752 689.223 160.677 689.479 160.528C689.746 160.368 690.028 160.155 690.327 159.888V158.128C689.26 158.267 688.519 158.475 688.103 158.752C687.687 159.019 687.479 159.349 687.479 159.744C687.479 160.096 687.586 160.352 687.799 160.512C688.012 160.672 688.284 160.752 688.615 160.752ZM697.037 162.192C696.13 162.192 695.485 161.931 695.101 161.408C694.728 160.875 694.541 160.187 694.541 159.344V155.6H693.421V154.224L694.637 154.144L694.861 152H696.397V154.144H698.397V155.6H696.397V159.344C696.397 160.261 696.765 160.72 697.501 160.72C697.64 160.72 697.784 160.704 697.933 160.672C698.082 160.629 698.21 160.587 698.317 160.544L698.637 161.904C698.424 161.979 698.178 162.043 697.901 162.096C697.634 162.16 697.346 162.192 697.037 162.192ZM703.23 162.192C702.516 162.192 701.87 162.032 701.294 161.712C700.729 161.381 700.276 160.912 699.934 160.304C699.604 159.685 699.438 158.944 699.438 158.08C699.438 157.205 699.62 156.464 699.982 155.856C700.345 155.237 700.825 154.768 701.422 154.448C702.03 154.117 702.681 153.952 703.374 153.952C703.876 153.952 704.313 154.037 704.686 154.208C705.06 154.379 705.39 154.587 705.678 154.832L704.782 156.032C704.58 155.851 704.372 155.712 704.158 155.616C703.945 155.509 703.716 155.456 703.47 155.456C702.841 155.456 702.324 155.696 701.918 156.176C701.524 156.656 701.326 157.291 701.326 158.08C701.326 158.859 701.518 159.488 701.902 159.968C702.297 160.448 702.804 160.688 703.422 160.688C703.732 160.688 704.02 160.624 704.286 160.496C704.564 160.357 704.814 160.197 705.038 160.016L705.79 161.232C705.428 161.552 705.022 161.792 704.574 161.952C704.126 162.112 703.678 162.192 703.23 162.192ZM707.491 162V150.704H709.331V153.616L709.267 155.136C709.598 154.827 709.966 154.555 710.371 154.32C710.776 154.075 711.246 153.952 711.779 153.952C712.622 153.952 713.235 154.224 713.619 154.768C714.003 155.312 714.195 156.08 714.195 157.072V162H712.355V157.312C712.355 156.661 712.259 156.203 712.067 155.936C711.875 155.669 711.56 155.536 711.123 155.536C710.782 155.536 710.478 155.621 710.211 155.792C709.955 155.952 709.662 156.192 709.331 156.512V162H707.491ZM716.563 162V154.144H718.403V162H716.563ZM717.491 152.768C717.16 152.768 716.893 152.672 716.691 152.48C716.488 152.288 716.387 152.032 716.387 151.712C716.387 151.403 716.488 151.152 716.691 150.96C716.893 150.768 717.16 150.672 717.491 150.672C717.821 150.672 718.088 150.768 718.291 150.96C718.493 151.152 718.595 151.403 718.595 151.712C718.595 152.032 718.493 152.288 718.291 152.48C718.088 152.672 717.821 152.768 717.491 152.768ZM720.9 162V154.144H722.42L722.548 155.2H722.612C722.964 154.859 723.348 154.565 723.764 154.32C724.18 154.075 724.655 153.952 725.188 153.952C726.031 153.952 726.644 154.224 727.028 154.768C727.412 155.312 727.604 156.08 727.604 157.072V162H725.764V157.312C725.764 156.661 725.668 156.203 725.476 155.936C725.284 155.669 724.97 155.536 724.532 155.536C724.191 155.536 723.887 155.621 723.62 155.792C723.364 155.952 723.071 156.192 722.74 156.512V162H720.9ZM732.739 165.472C732.121 165.472 731.561 165.397 731.059 165.248C730.569 165.099 730.179 164.869 729.891 164.56C729.614 164.261 729.475 163.883 729.475 163.424C729.475 162.773 729.849 162.213 730.595 161.744V161.68C730.393 161.552 730.222 161.381 730.083 161.168C729.955 160.955 729.891 160.688 729.891 160.368C729.891 160.059 729.977 159.781 730.147 159.536C730.329 159.28 730.531 159.072 730.755 158.912V158.848C730.489 158.645 730.249 158.363 730.035 158C729.833 157.637 729.731 157.227 729.731 156.768C729.731 156.16 729.875 155.648 730.163 155.232C730.451 154.816 730.83 154.501 731.299 154.288C731.779 154.064 732.291 153.952 732.835 153.952C733.049 153.952 733.251 153.973 733.443 154.016C733.646 154.048 733.827 154.091 733.987 154.144H736.803V155.504H735.363C735.491 155.653 735.598 155.845 735.683 156.08C735.769 156.304 735.811 156.555 735.811 156.832C735.811 157.408 735.678 157.899 735.411 158.304C735.145 158.699 734.787 158.997 734.339 159.2C733.891 159.403 733.39 159.504 732.835 159.504C732.665 159.504 732.489 159.488 732.307 159.456C732.126 159.424 731.945 159.371 731.763 159.296C731.646 159.403 731.55 159.509 731.475 159.616C731.411 159.723 731.379 159.867 731.379 160.048C731.379 160.272 731.47 160.448 731.651 160.576C731.843 160.704 732.179 160.768 732.659 160.768H734.051C735.001 160.768 735.715 160.923 736.195 161.232C736.686 161.531 736.931 162.021 736.931 162.704C736.931 163.216 736.761 163.68 736.419 164.096C736.078 164.523 735.593 164.859 734.963 165.104C734.334 165.349 733.593 165.472 732.739 165.472ZM732.835 158.352C733.209 158.352 733.529 158.213 733.795 157.936C734.062 157.659 734.195 157.269 734.195 156.768C734.195 156.277 734.062 155.899 733.795 155.632C733.539 155.355 733.219 155.216 732.835 155.216C732.451 155.216 732.126 155.349 731.859 155.616C731.593 155.883 731.459 156.267 731.459 156.768C731.459 157.269 731.593 157.659 731.859 157.936C732.126 158.213 732.451 158.352 732.835 158.352ZM733.027 164.272C733.657 164.272 734.169 164.144 734.563 163.888C734.958 163.632 735.155 163.339 735.155 163.008C735.155 162.699 735.033 162.491 734.787 162.384C734.553 162.277 734.211 162.224 733.763 162.224H732.691C732.265 162.224 731.907 162.187 731.619 162.112C731.214 162.421 731.011 162.768 731.011 163.152C731.011 163.504 731.193 163.776 731.555 163.968C731.918 164.171 732.409 164.272 733.027 164.272Z" fill="black"/>
<path d="M180.216 92.0001C134.731 142.768 60.9854 142.768 15.5003 92" stroke="#121212" stroke-dasharray="10 10"/>
<path d="M509.854 91.9239C464.369 142.692 390.623 142.692 345.138 91.9239" stroke="#121212" stroke-dasharray="10 10"/>
<path d="M839.559 91.9239C794.074 142.692 720.328 142.692 674.843 91.9239" stroke="#121212" stroke-dasharray="10 10"/>
<path d="M180.284 91.9238C225.77 41.1556 299.516 41.1556 345.001 91.9238" stroke="#121212" stroke-dasharray="10 10"/>
<path d="M509.99 91.9238C555.475 41.1556 629.221 41.1556 674.706 91.9238" stroke="#121212" stroke-dasharray="10 10"/>
<ellipse cx="40.6369" cy="107.5" rx="40.5266" ry="39.5" fill="#121212"/>
<ellipse cx="40.6371" cy="107.501" rx="28.3686" ry="27.65" fill="white"/>
<path d="M32.1884 121.86V117.63H38.5784V98.8204H33.3134V95.5803C34.7234 95.3103 35.9534 94.9953 37.0034 94.6354C38.0534 94.2454 39.0284 93.7804 39.9284 93.2403H43.7984V117.63H49.4234V121.86H32.1884Z" fill="black"/>
<ellipse cx="204.263" cy="69.5" rx="40.5266" ry="39.5" fill="#121212"/>
<ellipse cx="204.263" cy="69.5006" rx="28.3686" ry="27.65" fill="white"/>
<path d="M195.221 83.8604V80.8454C197.891 78.2654 200.186 75.9704 202.106 73.9604C204.056 71.9204 205.556 70.0754 206.606 68.4254C207.656 66.7454 208.181 65.1854 208.181 63.7454C208.181 62.2454 207.776 61.0454 206.966 60.1454C206.156 59.2454 204.986 58.7953 203.456 58.7953C202.346 58.7953 201.326 59.1104 200.396 59.7404C199.496 60.3704 198.656 61.1203 197.876 61.9904L194.996 59.1104C196.316 57.7004 197.681 56.6204 199.091 55.8703C200.501 55.0904 202.181 54.7004 204.131 54.7004C206.891 54.7004 209.081 55.4954 210.701 57.0854C212.351 58.6753 213.176 60.8053 213.176 63.4754C213.176 65.1554 212.696 66.8804 211.736 68.6504C210.806 70.3904 209.546 72.1754 207.956 74.0054C206.396 75.8354 204.671 77.7554 202.781 79.7654C203.531 79.7054 204.341 79.6454 205.211 79.5854C206.081 79.4954 206.861 79.4504 207.551 79.4504H214.571V83.8604H195.221Z" fill="black"/>
<ellipse cx="373.265" cy="108.5" rx="40.5266" ry="39.5" fill="#121212"/>
<ellipse cx="373.265" cy="108.501" rx="28.3686" ry="27.65" fill="white"/>
<path d="M374.338 123.4C372.028 123.4 370.078 123.01 368.488 122.23C366.928 121.42 365.638 120.46 364.618 119.35L367.093 116.02C367.963 116.89 368.953 117.64 370.063 118.27C371.173 118.87 372.448 119.17 373.888 119.17C375.448 119.17 376.708 118.795 377.668 118.045C378.658 117.265 379.153 116.2 379.153 114.85C379.153 113.86 378.898 113.005 378.388 112.285C377.908 111.535 377.053 110.965 375.823 110.575C374.623 110.185 372.928 109.99 370.738 109.99V106.21C373.558 106.21 375.508 105.775 376.588 104.905C377.668 104.035 378.208 102.94 378.208 101.62C378.208 100.42 377.833 99.4904 377.083 98.8303C376.333 98.1403 375.298 97.7953 373.978 97.7953C372.868 97.7953 371.848 98.0504 370.918 98.5604C369.988 99.0403 369.088 99.6853 368.218 100.495L365.563 97.3004C366.793 96.2204 368.098 95.3503 369.478 94.6903C370.888 94.0304 372.448 93.7004 374.158 93.7004C376.918 93.7004 379.153 94.3604 380.863 95.6804C382.573 96.9703 383.428 98.8303 383.428 101.26C383.428 102.85 382.978 104.2 382.078 105.31C381.208 106.39 379.993 107.23 378.433 107.83V108.01C380.113 108.46 381.523 109.285 382.663 110.485C383.803 111.685 384.373 113.23 384.373 115.12C384.373 116.86 383.908 118.345 382.978 119.575C382.078 120.805 380.863 121.75 379.333 122.41C377.833 123.07 376.168 123.4 374.338 123.4Z" fill="black"/>
<ellipse cx="537.476" cy="73.5" rx="40.5266" ry="39.5" fill="#121212"/>
<ellipse cx="537.476" cy="73.5006" rx="28.3686" ry="27.65" fill="white"/>
<path d="M530.612 76.4754H538.127V69.9954C538.127 69.1554 538.157 68.1654 538.217 67.0254C538.277 65.8853 538.322 64.8953 538.352 64.0553H538.172C537.812 64.8054 537.437 65.5404 537.047 66.2604C536.657 66.9804 536.252 67.7304 535.832 68.5104L530.612 76.4754ZM538.127 87.8604V80.4804H525.482V76.9704L536.822 59.2403H542.987V76.4754H546.587V80.4804H542.987V87.8604H538.127Z" fill="black"/>
<ellipse cx="705.527" cy="103.5" rx="40.5266" ry="39.5" fill="#121212"/>
<ellipse cx="705.527" cy="103.501" rx="28.3686" ry="27.65" fill="white"/>
<path d="M705.619 119.4C703.309 119.4 701.359 119.01 699.769 118.23C698.209 117.42 696.904 116.49 695.854 115.44L698.239 112.11C699.109 112.92 700.084 113.64 701.164 114.27C702.244 114.87 703.504 115.17 704.944 115.17C706.534 115.17 707.854 114.69 708.904 113.73C709.954 112.77 710.479 111.42 710.479 109.68C710.479 107.97 709.999 106.65 709.039 105.72C708.079 104.79 706.804 104.325 705.214 104.325C704.284 104.325 703.504 104.46 702.874 104.73C702.244 104.97 701.494 105.375 700.624 105.945L698.149 104.37L699.004 90.2403H714.304V94.6054H703.504L702.919 101.535C703.519 101.235 704.104 101.01 704.674 100.86C705.274 100.68 705.949 100.59 706.699 100.59C708.349 100.59 709.849 100.905 711.199 101.535C712.549 102.165 713.629 103.14 714.439 104.46C715.279 105.78 715.699 107.475 715.699 109.545C715.699 111.615 715.219 113.385 714.259 114.855C713.329 116.325 712.099 117.45 710.569 118.23C709.039 119.01 707.389 119.4 705.619 119.4Z" fill="black"/>
<ellipse cx="867.584" cy="61.5" rx="40.5266" ry="39.5" fill="#121212"/>
<ellipse cx="867.584" cy="61.5006" rx="28.3686" ry="27.65" fill="white"/>
<g clip-path="url(#clip0_1_7352)">
<path d="M874.17 70.7843C873.872 70.4564 873.518 70.1811 873.135 70.1085C873.135 70.1062 873.136 70.1039 873.136 70.1015C873.136 69.5228 872.654 69.0537 872.061 69.0537H864.16C863.566 69.0537 863.085 69.5228 863.085 70.1015C863.085 70.1039 863.085 70.1061 863.085 70.1085C862.702 70.1811 862.348 70.4564 862.05 70.7843C861.558 71.3256 861.953 72.1801 862.696 72.1801H873.525C874.267 72.1801 874.663 71.3256 874.17 70.7843Z" fill="#E2A042"/>
<path d="M879.524 53.0336C878.951 52.3664 878.11 51.9838 877.218 51.9838H876.057V50.6211H860.164V51.9838H858.977C858.084 51.9838 857.244 52.3664 856.671 53.0336C856.098 53.7007 855.86 54.5744 856.017 55.4308L856.946 60.4903C857.203 61.8891 858.448 62.9045 859.906 62.9045H863.612C863.717 62.9045 863.822 62.8987 863.926 62.8882C864.401 63.4141 864.908 63.9314 865.44 64.45C865.826 64.827 866.173 65.1377 866.495 65.3828C866.406 65.8131 866.305 66.2412 866.194 66.6665L866.054 67.1826C866.004 67.3528 865.96 67.5203 865.907 67.6824C865.852 67.8445 865.777 68.0012 865.693 68.1498C865.608 68.2984 865.519 68.4389 865.447 68.5686C865.38 68.6832 865.319 68.8013 865.266 68.9225C865.245 68.9752 865.223 69.0245 865.208 69.0702C865.194 69.1158 865.184 69.1576 865.18 69.1955C865.162 69.3468 865.222 69.4332 865.222 69.4332C865.521 69.8666 866.004 70.2367 866.64 70.4731C868.228 71.0629 870.167 70.5973 870.971 69.4332C870.971 69.4332 871.031 69.3468 871.013 69.1955C871.01 69.1576 871 69.1158 870.985 69.0702C870.971 69.0245 870.948 68.9752 870.927 68.9225C870.874 68.8013 870.814 68.6832 870.747 68.5686C870.674 68.4389 870.585 68.2984 870.501 68.1498C870.417 68.0012 870.341 67.8445 870.286 67.6824C870.233 67.5203 870.19 67.3528 870.139 67.1826L870 66.6665C869.89 66.2472 869.79 65.8252 869.702 65.4011C870.03 65.1532 870.385 64.8365 870.782 64.45C871.313 63.932 871.819 63.4154 872.294 62.8902C872.39 62.8995 872.486 62.9042 872.583 62.9045H876.289C877.747 62.9045 878.991 61.8892 879.248 60.4902L880.177 55.4308C880.335 54.5745 880.096 53.7007 879.524 53.0336V53.0336ZM859.906 60.9077C859.681 60.9079 859.463 60.8309 859.291 60.6902C859.119 60.5495 859.002 60.3541 858.963 60.1384L858.034 55.079C857.965 54.7054 858.135 54.44 858.242 54.3151C858.349 54.1902 858.587 53.9806 858.977 53.9806H860.165C860.196 56.8002 861.025 58.9757 862.348 60.9077H859.906ZM878.161 55.079L877.232 60.1384C877.192 60.3541 877.076 60.5495 876.904 60.6902C876.731 60.8309 876.513 60.9079 876.289 60.9077H873.874C875.196 58.9758 876.025 56.8002 876.056 53.9806H877.218C877.607 53.9806 877.845 54.1902 877.953 54.3151C878.06 54.44 878.229 54.7054 878.161 55.079V55.079Z" fill="#FFB636"/>
<path d="M862.2 72.0286C862.848 72.6602 865.365 72.9059 868.11 72.9059C870.856 72.9059 873.659 72.3968 874.1 71.9674C874.54 71.5379 871.644 71.5264 871.644 71.5264L862.2 72.0286V72.0286Z" fill="#E2A042"/>
<path d="M868.097 51.9402C872.481 51.9402 876.036 51.3495 876.036 50.621C876.036 49.8924 872.481 49.3018 868.097 49.3018C863.712 49.3018 860.158 49.8924 860.158 50.621C860.158 51.3495 863.712 51.9402 868.097 51.9402Z" fill="#FFD469"/>
<path d="M873.412 57.9742C873.317 57.9742 873.221 57.9576 873.128 57.9226C872.719 57.7697 872.514 57.3224 872.671 56.9235C873.259 55.4303 873.203 54.5663 873.145 53.6517C873.118 53.2253 873.45 52.8582 873.887 52.8316C874.326 52.8052 874.701 53.1292 874.729 53.5554C874.805 54.7536 874.811 55.8031 874.153 57.4775C874.032 57.7852 873.731 57.9742 873.412 57.9742Z" fill="#FFD469"/>
</g>
<defs>
<clipPath id="clip0_1_7352">
<rect width="24.6237" height="24" fill="white" transform="translate(855.785 49)"/>
</clipPath>
</defs>
</svg>
