<svg width="380" height="432" viewBox="0 0 380 432" fill="none" xmlns="http://www.w3.org/2000/svg">
<g clip-path="url(#clip0_28_2026)">
<path d="M199.813 67.1457L223.577 88.3014C223.85 88.5445 224.182 88.7114 224.541 88.7853C224.899 88.8592 225.27 88.8375 225.618 88.7223L254.982 78.957C257.706 78.0884 257.936 74.3231 255.332 73.1363L179.073 38.267C178.546 38.0263 177.962 37.9373 177.386 38.0097C176.811 38.082 176.267 38.3131 175.816 38.6769C175.364 39.0407 175.023 39.523 174.83 40.0698C174.637 40.6165 174.6 41.2062 174.722 41.7729L192.582 123.701C193.191 126.496 196.92 127.072 198.344 124.597L214.127 97.9767C214.313 97.6619 214.413 97.3036 214.417 96.9378C214.421 96.572 214.329 96.2117 214.149 95.8929L198.529 68.1752C198.431 68.0031 198.397 67.8016 198.433 67.6068C198.47 67.412 198.575 67.2366 198.729 67.1122C198.884 66.9878 199.077 66.9226 199.276 66.9281C199.474 66.9336 199.664 67.0097 199.811 67.1425L199.813 67.1457Z" fill="black"/>
</g>
<path d="M182.437 425.458C231.611 388.862 268.243 359.521 261.662 292.517C258.521 260.536 238.225 235.533 205.597 227.365C146.224 212.499 172.345 306.649 217.974 294.659C301.624 272.677 272.038 161.257 228.612 109.346C215.957 94.2176 201.293 77.2236 187.267 63.5721C175.102 51.7308 192.946 61.9395 198.897 64.533M198.897 64.533C209.923 69.3376 212.723 90.7352 231.691 75.4471C217.974 80.6735 232.343 94.8678 223.892 90.6519M198.897 64.533C189.509 73.9106 209.133 79.676 198.427 89.1093M198.897 64.533C211.748 51.6963 232.288 87.5367 223.892 90.6519M223.892 90.6519C199.651 78.5585 180.695 45.5987 183.202 80.9088C198.897 64.533 194.651 92.4366 198.427 89.1093M223.892 90.6519C215.497 93.7672 208.285 97.7603 200.254 101.182C187.018 106.821 202.901 96.2266 204.867 95.9529C210.578 95.1578 219.842 87.3292 208.038 92.3579C204.999 93.6525 193.777 100.745 196.395 97.7776M198.427 89.1093C196.792 91.2163 196.577 103.935 199.552 100.563" stroke="#1C1C1C" stroke-opacity="0.7" stroke-width="3" stroke-linecap="round" stroke-dasharray="2 2"/>
<defs>
<clipPath id="clip0_28_2026">
<rect width="100" height="100" fill="white" transform="translate(193.745 140.61) rotate(-128.863)"/>
</clipPath>
</defs>
</svg>
