<svg width="358" height="411" viewBox="0 0 358 411" fill="none" xmlns="http://www.w3.org/2000/svg">
<g clip-path="url(#clip0_28_2024)">
<path d="M217.109 343.507L188.652 329.277C188.325 329.113 187.961 329.039 187.596 329.061C187.23 329.083 186.878 329.201 186.572 329.402L160.769 346.485C158.365 348.033 159.124 351.728 161.948 352.195L244.66 365.981C245.232 366.075 245.819 366.009 246.356 365.789C246.892 365.569 247.357 365.205 247.698 364.736C248.039 364.267 248.243 363.712 248.287 363.134C248.331 362.556 248.213 361.977 247.946 361.462L209.348 287.021C208.031 284.482 204.282 284.898 203.551 287.659L195.254 317.473C195.156 317.825 195.153 318.197 195.244 318.551C195.336 318.906 195.519 319.229 195.775 319.49L218.08 342.178C218.22 342.318 218.306 342.504 218.321 342.702C218.336 342.899 218.281 343.096 218.164 343.256C218.047 343.417 217.878 343.53 217.685 343.577C217.492 343.623 217.289 343.599 217.112 343.509L217.109 343.507Z" fill="black"/>
</g>
<path d="M140.465 4.26438C102.531 52.4135 74.814 90.2894 98.633 153.261C110.002 183.318 136.114 202.166 169.743 201.547C230.939 200.421 181.179 116.335 140.252 139.806C65.2245 182.832 122.832 282.688 178.289 321.485C194.45 332.791 213.037 345.375 230.136 354.899C244.967 363.159 225.079 357.955 218.658 357.002C206.761 355.238 195.781 356.739 184.152 355.014C163.803 351.996 183.343 352.948 192.601 354.815C219.157 360.172 241.166 370.537 229.541 337.102C227.201 330.373 205.358 328.326 202.579 332.522M202.579 332.522C194.702 344.42 191.463 321.004 184.844 332.505C175.783 348.248 165.366 354.227 187.718 338.302C195.011 333.106 200.933 327.371 207.795 321.974C219.103 313.08 206.531 327.448 204.704 328.225C199.398 330.481 192.495 340.454 202.579 332.522ZM202.579 332.522C205.175 330.48 214.162 320.707 212.408 324.255C206.87 335.456 187.574 344.257 197.816 344.267C206.423 344.276 209.682 340.381 212.705 333.153C213.734 330.693 210.627 318.357 208.633 322.389" stroke="#1C1C1C" stroke-opacity="0.7" stroke-width="3" stroke-linecap="round" stroke-dasharray="2 2"/>
<defs>
<clipPath id="clip0_28_2024">
<rect width="100" height="100" fill="white" transform="translate(203.817 271) rotate(36.0274)"/>
</clipPath>
</defs>
</svg>
