<svg width="20" height="20" viewBox="0 0 20 20" fill="none" xmlns="http://www.w3.org/2000/svg">
<path fill-rule="evenodd" clip-rule="evenodd" d="M9.99967 0.833496C4.93717 0.833496 0.833008 4.93766 0.833008 10.0002C0.833008 15.0627 4.93717 19.1668 9.99967 19.1668C15.0622 19.1668 19.1663 15.0627 19.1663 10.0002C19.1663 4.93766 15.0622 0.833496 9.99967 0.833496ZM9.58301 5.00016C9.36199 5.00016 9.15003 5.08796 8.99375 5.24424C8.83747 5.40052 8.74967 5.61248 8.74967 5.8335C8.74967 6.05451 8.83747 6.26647 8.99375 6.42275C9.15003 6.57903 9.36199 6.66683 9.58301 6.66683H9.99967C10.2207 6.66683 10.4326 6.57903 10.5889 6.42275C10.7452 6.26647 10.833 6.05451 10.833 5.8335C10.833 5.61248 10.7452 5.40052 10.5889 5.24424C10.4326 5.08796 10.2207 5.00016 9.99967 5.00016H9.58301ZM8.33301 8.3335C8.11199 8.3335 7.90003 8.42129 7.74375 8.57757C7.58747 8.73385 7.49967 8.94582 7.49967 9.16683C7.49967 9.38784 7.58747 9.5998 7.74375 9.75609C7.90003 9.91237 8.11199 10.0002 8.33301 10.0002H9.16634V12.5002H8.33301C8.11199 12.5002 7.90003 12.588 7.74375 12.7442C7.58747 12.9005 7.49967 13.1125 7.49967 13.3335C7.49967 13.5545 7.58747 13.7665 7.74375 13.9228C7.90003 14.079 8.11199 14.1668 8.33301 14.1668H11.6663C11.8874 14.1668 12.0993 14.079 12.2556 13.9228C12.4119 13.7665 12.4997 13.5545 12.4997 13.3335C12.4997 13.1125 12.4119 12.9005 12.2556 12.7442C12.0993 12.588 11.8874 12.5002 11.6663 12.5002H10.833V9.16683C10.833 8.94582 10.7452 8.73385 10.5889 8.57757C10.4326 8.42129 10.2207 8.3335 9.99967 8.3335H8.33301Z" fill="#EC1C24" fill-opacity="0.93"/>
</svg>
