<svg width="20" height="24" viewBox="0 0 20 24" fill="none" xmlns="http://www.w3.org/2000/svg">
<path d="M9.84935 23.4115C9.56216 23.4115 9.29412 23.3275 9.04523 23.1805L6.49869 21.5211C6.11577 21.2901 6.30723 21.2061 6.42211 21.1641C6.93904 20.9751 7.03477 20.9331 7.57085 20.5969C7.62836 20.5549 7.70495 20.5759 7.76231 20.6179L9.71533 21.8992C9.79191 21.9412 9.88764 21.9412 9.94508 21.8992L17.5846 17.0473C17.6612 17.0053 17.6995 16.9213 17.6995 16.8163V7.13343C17.6995 7.02842 17.6612 6.94441 17.5846 6.9024L9.94508 2.07147C9.8685 2.02946 9.77277 2.02946 9.71533 2.07147L2.07579 6.90248C1.99921 6.94449 1.96092 7.0495 1.96092 7.13351V16.8163C1.96092 16.9003 1.99921 17.0053 2.07579 17.0473L4.16283 18.3705C5.2925 19.0006 6.00083 18.2655 6.00083 17.5304V7.97356C6.00083 7.84754 6.09663 7.72152 6.23065 7.72152H7.20716C7.32203 7.72152 7.43691 7.82653 7.43691 7.97356V17.5303C7.43691 19.1896 6.61356 20.1558 5.17756 20.1558C4.7372 20.1558 4.39258 20.1558 3.41614 19.6307L1.40569 18.3705C0.907895 18.0554 0.601562 17.4673 0.601562 16.8372V7.15452C0.601562 6.52443 0.907895 5.93634 1.40569 5.62122L9.04523 0.76936C9.52387 0.475318 10.1748 0.475318 10.6535 0.76936L18.293 5.62122C18.7908 5.93626 19.0971 6.52435 19.0971 7.15452V16.8373C19.0971 17.4674 18.7908 18.0555 18.293 18.3705L10.6535 23.2225C10.4046 23.3486 10.1174 23.4116 9.84935 23.4116V23.4115ZM12.2044 16.7532C8.85369 16.7532 8.16445 15.073 8.16445 13.6447C8.16445 13.5187 8.26018 13.3927 8.3942 13.3927H9.38978C9.50465 13.3927 9.60045 13.4767 9.60045 13.6027C9.75362 14.7158 10.194 15.262 12.2235 15.262C13.8318 15.262 14.5211 14.8629 14.5211 13.9178C14.5211 13.3716 14.3297 12.9726 11.8214 12.6995C9.73448 12.4684 8.43249 11.9644 8.43249 10.1371C8.43249 8.4357 9.7344 7.42756 11.9172 7.42756C14.3679 7.42756 15.5742 8.35169 15.7273 10.3681C15.7273 10.4311 15.7082 10.4941 15.6699 10.5571C15.6316 10.5991 15.5742 10.6411 15.5167 10.6411H14.5211C14.4253 10.6411 14.3297 10.5571 14.3105 10.4521C14.0807 9.29691 13.4872 8.91885 11.9172 8.91885C10.1558 8.91885 9.94508 9.59095 9.94508 10.095C9.94508 10.7042 10.194 10.8931 12.5681 11.2292C14.9232 11.5652 16.0337 12.0484 16.0337 13.8547C16.0145 15.7031 14.636 16.7532 12.2044 16.7532Z" fill="#539E43"/>
</svg>
