<svg width="35" height="17" viewBox="0 0 35 17" fill="none" xmlns="http://www.w3.org/2000/svg">
<path d="M17.1064 0C7.72408 0 0.115234 3.764 0.115234 8.414C0.115234 13.064 7.72408 16.83 17.1064 16.83C26.4887 16.83 34.0975 13.064 34.0975 8.414C34.0975 3.764 26.4887 0 17.1064 0ZM17.1064 0.84C26.2073 0.84 33.2055 4.449 33.2055 8.414C33.2055 12.379 26.202 15.99 17.1064 15.99C8.0055 15.99 1.00727 12.379 1.00727 8.414C1.00727 4.449 8.01081 0.84 17.1064 0.84ZM15.043 2.508L13.3248 10.848H15.2416L16.2313 6.068C17.7913 6.068 18.437 6.01 18.7205 6.297C19.0147 6.594 18.8639 6.92 18.0547 10.847H19.9981C20.8391 6.787 21.2108 5.925 20.4335 5.252C19.6933 4.609 18.1598 4.722 16.5043 4.722L16.9609 2.508H15.043ZM7.00515 4.728L5.28692 13.074H7.21647L7.67311 10.857C9.83099 10.857 11.1722 11.005 12.4115 9.912C13.7825 8.725 14.1404 6.612 13.1623 5.555C12.6526 5.001 11.8317 4.728 10.7198 4.728H7.00408H7.00515ZM22.0763 4.728L20.3549 13.074H22.2876L22.7443 10.857C25.0136 10.857 26.2699 10.981 27.4827 9.912C28.8536 8.725 29.2126 6.612 28.2345 5.555C27.7248 5.001 26.9039 4.728 25.791 4.728H22.0763ZM10.0296 6.043C11.2349 6.075 11.9241 6.315 11.6331 7.74C11.2179 9.744 9.75346 9.537 7.95134 9.537L8.67134 6.045C9.17046 6.045 9.62709 6.032 10.0296 6.043ZM25.1018 6.043C26.3092 6.075 26.991 6.315 26.699 7.74C26.2784 9.773 24.7715 9.537 23.0172 9.537L23.7372 6.045C24.2395 6.045 24.7004 6.032 25.1018 6.043Z" fill="black"/>
</svg>
