<svg width="25" height="24" viewBox="0 0 25 24" fill="none" xmlns="http://www.w3.org/2000/svg">
<path d="M8.3543 3.89358C7.72837 2.69484 8.59855 1.25981 9.95087 1.26066L10.2211 1.26083C10.6777 1.26112 11.1025 1.49954 11.3418 1.88842C11.855 2.72236 13.0704 2.72454 13.581 1.88895C13.8192 1.49906 14.2431 1.26121 14.7 1.26107L14.9752 1.26098C16.3264 1.26055 17.1977 2.69188 16.5768 3.89198L15.4253 6.11776C14.1876 8.51016 10.7683 8.51663 9.52151 6.12893L8.3543 3.89358Z" fill="black"/>
<path d="M-nan -nanL15.3009 4.49272e-07C15.1257 -0.000170033 14.9531 0.0481804 14.7976 0.140961C14.642 0.233742 14.5083 0.368224 14.4075 0.533028C13.5187 1.98755 11.4029 1.98314 10.5109 0.53052C10.4102 0.366525 10.2766 0.232745 10.1215 0.140426C9.96643 0.0481073 9.79433 -5.0919e-05 9.61969 4.49272e-07C8.12392 4.49272e-07 7.16175 1.58703 7.85347 2.91325L10.2066 7.42476C11.1661 9.26334 13.8068 9.26895 14.7555 7.42476L17.6546 1.81908C18.0837 0.989411 17.4815 4.49272e-07 16.5474 4.49272e-07H15.3009L-nan -nanZ" fill="black"/>
<path opacity="0.5" d="M23.3728 0.00962195C20.4356 0.00731108 17.7428 1.64483 16.3935 4.25378L14.7538 7.42435C13.8051 9.26854 11.1644 9.26293 10.2049 7.42435L8.55145 4.25447C7.19163 1.64749 4.48799 0.0199875 1.54773 0.0384682C1.35612 0.0396853 1.16816 0.0989113 1.00278 0.210186C0.837396 0.32146 0.700426 0.480857 0.605653 0.672333C0.510881 0.863809 0.46165 1.08061 0.462914 1.30091C0.464179 1.52121 0.515896 1.73725 0.612859 1.92727L11.5434 23.3801C11.6397 23.5691 11.7774 23.7259 11.9428 23.8347C12.1081 23.9436 12.2954 24.0007 12.486 24.0005C12.6765 24.0002 12.8637 23.9426 13.0289 23.8333C13.194 23.724 13.3314 23.5669 13.4273 23.3776L24.3142 1.89591C24.4109 1.7054 24.4622 1.48895 24.4629 1.26838C24.4636 1.04781 24.4137 0.830924 24.3182 0.639609C24.2227 0.448295 24.085 0.289315 23.919 0.178708C23.7531 0.0681003 23.5646 0.00977712 23.3728 0.00962195Z" fill="black"/>
</svg>
