<svg width="696" height="438" viewBox="0 0 696 438" fill="none" xmlns="http://www.w3.org/2000/svg">
<g opacity="0.2">
<path d="M-30.9976 364.171L-30.9979 366.418C6.7498 337.143 34.5797 271.36 40.2816 197.717C41.8036 177.776 50.2134 164.91 64.628 160.469C75.2508 157.21 88.5891 158.554 103.257 164.449C117.86 170.343 132.399 180.114 145.294 192.749C150.224 197.578 156.482 203.082 163.183 208.922C194.219 236.045 236.634 273.221 217.157 306.198C206.469 324.232 186.301 327.607 164.994 331.151C143.372 334.751 120.991 338.464 110.241 358.969C107.016 365.149 104.738 372.283 103.408 380.372L107.266 380.371C108.531 372.788 110.681 366.159 113.717 360.373C123.646 341.44 144.131 338.009 165.754 334.409C187.059 330.865 209.061 327.208 220.571 307.714C235.747 281.984 216.596 254.689 192.703 230.99C175.825 212.177 154.714 194.937 142.387 182.245C100.035 138.555 36.0592 125.088 28.083 183.116C20.1712 240.244 -1.84065 292.32 -30.9266 325.187L-30.9976 364.171Z" fill="#121212"/>
<path d="M654.66 263.348C655.735 256.81 658.01 249.993 660.41 242.784C664.517 230.434 668.687 217.805 667.3 205.569C668.501 194.673 667.556 183.945 661.432 174.112C654.109 162.38 636.366 158.529 623.294 163.392C582.308 178.657 580.152 233.248 533.422 240.803L533.359 240.803C513.846 245.501 491.557 235.784 476.97 225.115C452.283 206.962 431.957 173.888 427.794 143.994C427.857 142.654 427.857 141.257 427.921 139.916C428.302 127.959 428.683 114.716 427.676 101.586C427.553 79.2349 425.095 55.9912 412.656 38.225C393.087 10.1805 342.819 18.0151 351.72 44.3866C350.645 45.6156 349.697 46.958 349.066 48.3535C346.476 53.831 345.905 63.1626 358.218 76.1221C371.539 90.2003 377.536 103.33 377.217 117.409C376.9 129.815 371.656 143.226 360.288 160.886C350.18 176.534 335.276 191.568 319.423 207.44C295.044 231.976 269.78 257.405 262.64 286.127C258.281 303.729 258.909 323.9 264.587 346.138C267.365 357.033 271.34 368.486 276.516 380.331L280.557 380.33C275.191 368.206 271.09 356.529 268.25 345.41C262.698 323.676 262.068 303.952 266.303 286.853C273.252 258.969 298.137 233.875 322.264 209.619C338.179 193.579 353.273 178.432 363.569 162.506C375.318 144.342 380.689 130.428 381.006 117.465C381.387 102.49 375.076 88.6906 361.122 73.9424C352.347 64.6698 349.443 56.2877 352.602 49.6381C355.445 43.7155 362.959 39.7457 372.81 39.0732C383.989 38.2886 400.343 42.2509 409.876 55.8264C426.1 79.0119 425.021 112.762 424.194 139.861C424.132 142.655 424.005 145.393 423.94 148.075C423.115 180.483 444.893 221.435 474.569 243.22C489.47 254.168 512.516 264.108 532.661 259.242L532.724 259.242C552.869 254.208 566.449 235.71 579.523 217.771C588.997 204.861 597.903 192.678 608.892 185.635C619.376 178.872 630.301 176.187 639.583 178.028C647.413 179.592 653.79 184.172 658.525 191.714C668.31 207.301 662.434 224.903 656.811 241.891C654.347 249.211 652.073 256.14 650.935 262.902C647.711 282.347 650.17 305.256 657.807 327.381C665.065 348.277 676.618 366.769 690.697 380.176L695.938 380.175C681.164 366.991 668.98 347.997 661.47 326.374C654.022 305.031 651.563 282.067 654.66 263.348Z" fill="#121212"/>
<path d="M25.2717 122.637C43.2408 92.0914 60.2035 63.1638 80.4393 53.2762C92.9216 47.1873 103.637 46.0118 113.217 49.638C138.998 59.5713 151.534 103.623 162.622 142.481C170.938 171.793 178.183 197.085 189.906 207.188C203.96 219.301 218.962 224.044 234.468 221.304C278.848 213.532 314.411 147.638 324.248 127.59C339.887 95.8173 337.306 73.0918 315.123 46.3528C312.349 43.0031 309.071 39.4852 305.605 35.7459C290.417 19.3344 271.572 -1.153 280.275 -22.3167C287.086 -38.9018 282.865 -56.0423 268.054 -71.8409C255.639 -85.0143 236.163 -96.6801 214.606 -103.765C206.79 -106.333 198.659 -108.563 190.779 -110.739C161.533 -118.772 133.924 -126.415 116.342 -150.643C110.669 -158.459 105.062 -167.782 100.083 -177.944L95.9845 -177.943C101.215 -167.057 107.14 -157.119 113.189 -148.8C131.529 -123.568 161.09 -115.423 189.708 -107.501C197.522 -105.324 205.591 -103.148 213.345 -100.583C234.334 -93.7191 253.242 -82.4466 265.217 -69.6628C274.923 -59.3341 284.817 -42.9213 276.809 -23.4339C267.35 -0.482269 286.95 20.7863 302.769 37.8673C306.173 41.5517 309.386 45.0696 312.158 48.3626C333.398 73.9308 335.852 95.7615 320.843 126.251C315.233 137.643 303.378 159.757 286.985 179.973C268.889 202.2 250.985 214.991 233.839 218.01C219.593 220.47 205.726 216.062 192.617 204.787C181.649 195.353 174.217 169.225 166.341 141.642C155.065 102.002 142.277 57.1131 114.794 46.5672C104.206 42.4948 92.1021 43.7804 78.6736 50.3178C57.4296 60.707 40.2168 90.0263 21.9936 121.075C5.72521 148.773 -10.9834 177.141 -30.9681 192.557L-30.9688 196.912C-9.34601 181.552 8.18295 151.788 25.2717 122.637Z" fill="#121212"/>
<path d="M3.0865 59.5973C13.2179 41.4193 22.8462 24.2476 35.5548 16.0245C55.4343 3.15555 78.2089 -1.88269 99.7224 1.85834C121.675 5.6561 141.175 18.347 154.508 37.5275C159.854 45.244 165.009 60.2862 170.48 76.2795C181.419 108.268 193.807 144.504 215.32 149.308C222.364 150.874 228.718 150.145 234.192 147.123C248.851 139.066 254.454 116.304 258.922 98.0702C260.874 90.1833 262.51 83.3613 264.586 79.1656C275.727 56.4567 273.841 40.1821 258.055 21.0591C255.664 18.2078 253.024 15.4116 250.194 12.3938C242.833 4.62089 235.162 -3.37551 232.962 -12.6012C231.892 -17.1315 232.837 -21.4387 233.844 -26.0246C235.041 -31.5049 236.299 -37.2106 233.721 -43.0254C223.659 -66.1764 187.365 -74.67 158.177 -81.4845C150.061 -83.385 142.388 -85.172 136.223 -87.0729C96.0909 -99.4786 41.1766 -116.411 14.9499 -152.644C9.85498 -159.69 4.88819 -168.415 0.737898 -177.92L-3.28826 -177.919C1.0495 -167.686 6.33365 -158.291 11.8037 -150.798C38.7229 -113.614 94.3917 -96.4027 135.026 -83.8854C141.38 -81.9295 149.118 -80.1408 157.296 -78.1853C185.666 -71.5373 220.954 -63.324 230.324 -41.7398C232.461 -36.7625 231.392 -31.8394 230.257 -26.5827C229.25 -21.8851 228.18 -16.9638 229.374 -11.8177C231.764 -1.75267 239.689 6.57904 247.361 14.6304C250.129 17.5384 252.771 20.3345 255.034 23.074C269.94 41.0793 271.636 56.4027 261.127 77.8798C258.925 82.3541 257.225 89.3466 255.211 97.4003C250.867 115.073 245.454 136.998 232.178 144.327C227.523 146.901 222.365 147.461 216.201 146.121C196.7 141.764 184.124 104.966 174.065 75.3274C168.281 58.4398 163.313 43.8448 157.716 35.7929C143.754 15.83 123.438 2.58026 100.414 -1.38584C77.8322 -5.29523 54.0516 -0.088125 33.2897 13.3401C19.8264 22.0673 10.0105 39.5745 -0.308601 58.1448C-9.43369 74.5338 -18.8103 91.2583 -30.9525 101.998L-30.9533 106.697C-17.0485 95.6748 -6.85518 77.4399 3.0865 59.5973Z" fill="#121212"/>
<path d="M-3.61077 1.48808L-1.72053 0.0839592C22.2702 -17.4029 49.41 -37.1968 82.0207 -28.0422C90.0795 -25.795 97.9483 -22.0317 105.503 -18.4359C122.188 -10.5136 139.438 -2.31135 160.278 -9.17432C172.933 -13.3367 176.272 -19.2395 176.902 -23.5113C177.846 -30.3695 172.434 -37.7881 161.668 -44.3045C145.364 -54.1943 125.846 -58.6308 106.959 -62.8981C97.8298 -64.9756 88.3865 -67.1082 79.6365 -69.8047C44.3809 -80.7566 -2.27159 -95.1927 -30.9135 -123.233L-30.9143 -118.344C-1.51707 -91.483 43.8749 -77.3855 78.3753 -66.6564C87.3171 -63.9046 96.8223 -61.7149 106.014 -59.6374C124.587 -55.4254 143.727 -51.0458 159.528 -41.4949C168.907 -35.7628 173.881 -29.3573 173.124 -23.9046C172.494 -19.1815 167.583 -15.1904 158.956 -12.3221C139.69 -5.96421 123.95 -13.4926 107.268 -21.415C99.5231 -25.0659 91.5285 -28.8863 83.1561 -31.2458L83.0921 -31.2458C48.5296 -40.9065 20.5706 -20.4953 -4.1754 -2.50169L-6.06564 -1.09574C-6.69502 -0.64613 -7.57612 0.0282509 -8.6471 0.815065C-16.7692 6.83133 -24.2 12.0609 -30.9374 16.4466L-30.9381 20.6631C-22.3106 15.1514 -13.685 8.96739 -6.19228 3.40074C-5.12129 2.55682 -4.24015 1.93953 -3.61077 1.48808Z" fill="#121212"/>
<path d="M589.973 147.99C597.064 132.685 599.511 118.797 596.933 108.885C593.258 94.7766 580.726 87.0121 568.571 79.5489C564.237 76.8366 559.671 74.0137 555.685 70.9744C545.273 63.0187 539.859 53.4799 534.102 43.3654C528.099 32.8261 521.945 21.9399 509.682 13.1074L509.403 12.9604C502.817 9.50225 496.69 7.16456 491.201 5.94179C468.723 -2.53775 442.81 -2.9002 434.179 16.38C423.332 40.675 461.876 67.8967 471.837 88.847C485.399 117.282 466.576 145.384 476.142 174.545C482.977 195.408 509.488 208.925 520.333 207.492C521.639 207.33 522.984 207.048 524.283 206.729C525.097 206.7 525.863 206.635 526.673 206.528C537.79 205.086 549.764 198.594 561.357 187.724C572.78 177.094 583.169 162.617 589.973 147.99ZM530.64 44.8955C536.3 54.8574 542.154 65.1261 553.13 73.5321C557.258 76.6839 561.87 79.5451 566.341 82.2936C578.406 89.7604 589.821 96.8569 593.164 109.643C598.098 128.534 582.25 163.316 558.585 185.506C547.6 195.806 536.378 201.919 526.162 203.252C515.226 204.688 506.691 196.198 500.755 178.166C496.655 165.679 494.839 152.606 493.13 139.919C490.777 123.018 488.399 105.571 480.588 89.1336C477.736 83.1538 473.848 77.3268 470.063 71.7323C460.306 57.2837 451.127 43.5996 458.606 26.8713C460.949 21.653 463.791 17.4371 466.961 14.4634C476.078 5.91455 489.317 6.32001 507.402 15.7359C518.877 24.1636 524.88 34.7029 530.64 44.8955Z" fill="#121212"/>
<path d="M139.445 287.826C140.468 286.36 141.234 284.724 141.81 282.976C145.389 271.923 141.687 258.899 131.719 247.285C120.094 233.755 102.459 224.963 86.8048 224.967C85.1421 224.967 83.4166 225.081 81.8189 225.25C74.919 226.097 69.4238 229.257 65.3961 234.671C57.4077 245.499 57.212 263.938 61.044 275.834C63.2793 282.713 69.8596 288.97 79.5708 293.423C88.3879 297.481 99.2512 299.79 109.411 299.787C123.403 299.728 134.396 295.383 139.445 287.826ZM64.7506 274.931C61.6217 265.403 60.7934 247.19 68.654 236.531C72.0429 231.963 76.6439 229.311 82.3941 228.633C83.8641 228.464 85.3342 228.35 86.867 228.35C101.372 228.347 117.857 236.575 128.716 249.316C137.915 260.084 141.364 272.037 138.167 282.075C137.721 283.541 137.017 284.894 136.185 286.135C131.776 292.677 122.064 296.401 109.412 296.404C91.2653 296.352 69.0284 288.181 64.7506 274.931Z" fill="#121212"/>
<path d="M351.927 293.824C351.381 295.446 351.124 297.171 351.083 298.96C350.869 310.258 358.12 321.793 370.895 330.581C385.793 340.817 405.017 345.206 419.839 341.687C421.412 341.314 423.013 340.819 424.476 340.299C430.767 337.945 435.061 333.712 437.318 327.667C441.769 315.593 436.654 298.042 429.606 287.607C425.512 281.578 417.482 277.114 407.007 275.067C397.493 273.194 386.546 273.441 376.926 275.724C363.694 278.923 354.537 285.515 351.927 293.824ZM426.356 289.296C432.059 297.641 438.077 314.747 433.697 326.633C431.804 331.731 428.21 335.281 422.96 337.216C421.617 337.707 420.259 338.144 418.806 338.489C405.073 341.749 387.101 337.638 373.155 327.979C361.349 319.821 354.648 309.246 354.789 298.998C354.792 297.506 355.069 296.063 355.498 294.698C357.794 287.497 365.92 281.78 377.898 278.937C395.095 274.911 418.496 277.677 426.356 289.296Z" fill="#121212"/>
<path d="M406.438 206.423C404.924 204.073 401.849 201.383 395.916 201.947C390.364 202.469 382.167 206.032 378.377 209.559C372.903 214.636 374.193 224.777 378.583 231.59C381.711 236.445 386.108 239.287 390.653 239.284C391.536 239.298 392.458 239.187 393.371 238.976C398.161 237.907 402.604 233.676 405.582 227.437C408.612 221.014 410.047 212.022 406.438 206.423ZM392.632 236.382C391.962 236.519 391.312 236.595 390.678 236.609C387.216 236.573 383.805 234.266 381.206 230.232C376.362 222.715 377.112 214.652 380.559 211.406C383.793 208.375 391.423 205.107 396.254 204.643C399.716 204.314 402.251 205.352 403.816 207.78C406.465 211.891 406.025 219.533 402.778 226.434C400.218 231.779 396.441 235.508 392.632 236.382Z" fill="#121212"/>
<path d="M569.725 262.274C559.401 262.052 549.14 265.934 538.185 274.09C521.06 286.914 511.173 305.584 501.602 323.579C501.035 324.704 500.468 325.772 499.839 326.841C478.932 366.149 459.159 398.092 430.576 426.1C429.315 427.337 427.931 428.743 426.357 430.262C424.091 432.511 421.51 435.099 418.677 437.854L423.775 437.853C425.727 435.941 427.491 434.141 429.127 432.51C430.637 430.992 432.086 429.586 433.282 428.348C462.181 400.003 482.08 367.835 503.175 328.246C503.742 327.177 504.308 326.053 504.938 324.928C514.321 307.214 524.018 288.937 540.514 276.563C550.713 268.97 560.219 265.313 569.536 265.536C581.748 265.758 592.072 268.623 599.373 273.794C607.304 279.415 611.268 287.342 611.015 297.407C610.634 315.231 601.755 331.371 593.128 347.005C584.564 362.582 575.748 378.609 574.801 396.771C574.043 412.121 576.307 426.29 581.215 437.816L585.244 437.815C580.21 426.57 577.82 412.401 578.578 396.938C579.463 379.508 588.152 363.762 596.527 348.522C605.28 332.607 614.348 316.13 614.792 297.519C615.362 276.377 598.053 262.83 569.725 262.274Z" fill="#121212"/>
</g>
</svg>
