<svg width="682" height="380" viewBox="0 0 682 380" fill="none" xmlns="http://www.w3.org/2000/svg">
<g opacity="0.2">
<path d="M728.786 542.584L728.786 544.831C690.983 515.556 663.112 449.773 657.402 376.13C655.878 356.189 647.456 343.323 633.02 338.882C622.382 335.623 609.024 336.967 594.335 342.862C579.71 348.756 565.15 358.527 552.236 371.162C547.299 375.991 541.032 381.495 534.321 387.335C503.24 414.459 460.763 451.634 480.268 484.611C490.971 502.645 511.169 506.02 532.507 509.564C554.161 513.164 576.575 516.877 587.341 537.382C590.57 543.562 592.852 550.696 594.183 558.785L590.32 558.784C589.053 551.201 586.9 544.572 583.859 538.786C573.915 519.853 553.4 516.422 531.746 512.822C510.41 509.278 488.376 505.622 476.849 486.127C461.65 460.397 480.83 433.102 504.757 409.403C521.66 390.59 542.802 373.35 555.148 360.658C597.561 316.968 661.631 303.501 669.619 361.529C677.542 418.657 699.586 470.733 728.715 503.601L728.786 542.584Z" fill="#121212"/>
<path d="M42.1246 441.761C41.0485 435.223 38.7706 428.406 36.3664 421.197C32.2536 408.848 28.0777 396.219 29.4669 383.982C28.2634 373.086 29.2101 362.358 35.3426 352.525C42.6764 340.793 60.446 336.943 73.5373 341.805C114.582 357.07 116.742 411.661 163.54 419.216L163.604 419.216C183.145 423.914 205.467 414.197 220.075 403.528C244.798 385.375 265.154 352.301 269.322 322.408C269.26 321.067 269.26 319.67 269.195 318.33C268.814 306.372 268.432 293.129 269.442 279.999C269.564 257.648 272.026 234.404 284.483 216.638C304.081 188.594 354.422 196.428 345.509 222.8C346.584 224.029 347.534 225.371 348.166 226.767C350.76 232.244 351.331 241.576 339 254.535C325.661 268.613 319.655 281.743 319.974 295.823C320.291 308.228 325.543 321.639 336.928 339.299C347.05 354.947 361.977 369.981 377.852 385.853C402.267 410.389 427.568 435.818 434.719 464.54C439.084 482.142 438.455 502.313 432.768 524.551C429.987 535.446 426.006 546.899 420.823 558.744L416.775 558.743C422.149 546.619 426.257 534.942 429.1 523.823C434.661 502.089 435.292 482.365 431.051 465.266C424.091 437.382 399.17 412.288 375.007 388.032C359.069 371.992 343.953 356.845 333.641 340.919C321.875 322.755 316.497 308.841 316.18 295.878C315.798 280.903 322.119 267.104 336.092 252.355C344.88 243.083 347.788 234.701 344.625 228.051C341.778 222.129 334.253 218.159 324.388 217.486C313.192 216.702 296.814 220.664 287.267 234.24C271.019 257.425 272.1 291.175 272.928 318.274C272.99 321.068 273.117 323.806 273.182 326.488C274.008 358.896 252.199 399.848 222.48 421.633C207.557 432.581 184.477 442.521 164.302 437.655L164.239 437.655C144.065 432.622 130.465 414.123 117.372 396.184C107.884 383.274 98.9647 371.091 87.9599 364.048C77.461 357.285 66.52 354.6 57.2242 356.441C49.3828 358.005 42.9964 362.585 38.2547 370.127C28.4554 385.714 34.3396 403.316 39.9708 420.304C42.4384 427.624 44.7162 434.553 45.8557 441.315C49.0842 460.76 46.6217 483.669 38.9737 505.794C31.7047 526.69 20.1351 545.182 6.03499 558.589L0.786123 558.588C15.5819 545.404 27.7838 526.41 35.3055 504.787C42.7641 483.445 45.2265 460.48 42.1246 441.761Z" fill="#121212"/>
<path d="M672.434 301.05C654.439 270.505 637.451 241.577 617.186 231.689C604.685 225.6 593.954 224.425 584.36 228.051C558.541 237.984 545.987 282.036 534.882 320.894C526.554 350.206 519.299 375.498 507.559 385.601C493.485 397.714 478.46 402.457 462.931 399.717C418.487 391.945 382.872 326.051 373.021 306.003C357.359 274.23 359.943 251.505 382.159 224.766C384.937 221.416 388.219 217.898 391.69 214.159C406.901 197.747 425.773 177.26 417.058 156.096C410.236 139.511 414.464 122.371 429.297 106.572C441.73 93.3988 461.234 81.733 482.823 74.6477C490.651 72.0805 498.793 69.8501 506.685 67.6745C535.973 59.6414 563.623 51.9976 581.231 27.7698C586.912 19.9543 592.527 10.6309 597.513 0.46941L601.618 0.470391C596.38 11.3564 590.446 21.2945 584.388 29.6132C566.022 54.8453 536.417 62.99 507.757 70.9117C499.931 73.0891 491.851 75.2646 484.085 77.83C463.066 84.694 444.13 95.9665 432.137 108.75C422.418 119.079 412.509 135.492 420.529 154.979C430.002 177.931 410.373 199.199 394.531 216.28C391.122 219.965 387.904 223.483 385.128 226.776C363.857 252.344 361.399 274.175 376.43 304.664C382.049 316.056 393.921 338.17 410.338 358.386C428.46 380.613 446.391 393.404 463.562 396.423C477.829 398.883 491.716 394.475 504.844 383.2C515.828 373.766 523.271 347.638 531.159 320.055C542.451 280.415 555.258 235.526 582.781 224.98C593.385 220.908 605.506 222.193 618.954 228.731C640.229 239.12 657.467 268.439 675.717 299.488C692.009 327.186 708.742 355.554 728.756 370.97L728.757 375.325C707.103 359.965 689.548 330.201 672.434 301.05Z" fill="#121212"/>
<path d="M694.651 238.01C684.505 219.832 674.863 202.661 662.135 194.438C642.227 181.569 619.419 176.53 597.874 180.271C575.889 184.069 556.361 196.76 543.008 215.941C537.654 223.657 532.491 238.699 527.013 254.693C516.058 286.681 503.652 322.918 482.107 327.722C475.053 329.287 468.69 328.558 463.208 325.536C448.527 317.479 442.916 294.717 438.441 276.483C436.487 268.596 434.849 261.774 432.769 257.579C421.612 234.87 423.501 218.595 439.31 199.472C441.704 196.621 444.348 193.825 447.182 190.807C454.553 183.034 462.236 175.038 464.44 165.812C465.51 161.282 464.564 156.974 463.556 152.388C462.357 146.908 461.097 141.202 463.679 135.388C473.756 112.237 510.103 103.743 539.334 96.9285C547.462 95.0281 555.145 93.2411 561.32 91.3401C601.511 78.9345 656.505 62.0019 682.77 25.7687C687.873 18.7229 692.847 9.99828 697.003 0.492682L701.035 0.493646C696.691 10.7268 691.399 20.1221 685.921 27.615C658.963 64.7992 603.212 82.0104 562.518 94.5277C556.156 96.4835 548.406 98.2723 540.216 100.228C511.805 106.876 476.465 115.089 467.081 136.673C464.941 141.651 466.012 146.574 467.148 151.83C468.156 156.528 469.229 161.449 468.032 166.595C465.639 176.66 457.702 184.992 450.019 193.043C447.247 195.951 444.601 198.748 442.335 201.487C427.407 219.492 425.708 234.816 436.233 256.293C438.439 260.767 440.141 267.76 442.157 275.813C446.508 293.486 451.929 315.411 465.224 322.74C469.887 325.314 475.052 325.874 481.225 324.534C500.755 320.177 513.348 283.38 523.422 253.741C529.215 236.853 534.19 222.258 539.796 214.206C553.778 194.243 574.123 180.993 597.182 177.027C619.796 173.118 643.611 178.325 664.404 191.753C677.887 200.48 687.717 217.988 698.051 236.558C707.19 252.947 716.58 269.671 728.74 280.411L728.741 285.11C714.816 274.088 704.607 255.853 694.651 238.01Z" fill="#121212"/>
<path d="M701.361 179.902L699.468 178.498C675.442 161.011 648.263 141.217 615.605 150.371C607.534 152.619 599.654 156.382 592.088 159.978C575.379 167.9 558.104 176.102 537.233 169.239C524.56 165.077 521.215 159.174 520.584 154.902C519.639 148.044 525.059 140.626 535.84 134.109C552.169 124.219 571.715 119.783 590.629 115.516C599.772 113.438 609.23 111.305 617.992 108.609C653.299 97.657 700.02 83.2209 728.704 55.1806L728.705 60.0694C699.265 86.9306 653.806 101.028 619.255 111.757C610.3 114.509 600.781 116.699 591.576 118.776C572.976 122.988 553.808 127.368 537.984 136.919C528.591 142.651 523.61 149.056 524.368 154.509C524.999 159.232 529.917 163.223 538.557 166.091C557.851 172.449 573.614 164.921 590.32 156.999C598.077 153.348 606.083 149.527 614.468 147.168L614.532 147.168C649.145 137.507 677.145 157.918 701.927 175.912L703.82 177.318C704.45 177.767 705.333 178.442 706.405 179.229C714.539 185.245 721.981 190.474 728.728 194.86L728.729 199.077C720.089 193.565 711.45 187.381 703.947 181.814C702.874 180.97 701.992 180.353 701.361 179.902Z" fill="#121212"/>
<path d="M106.906 326.403C99.805 311.099 97.3547 297.21 99.9369 287.298C103.617 273.19 116.167 265.425 128.341 257.962C132.681 255.25 137.253 252.427 141.245 249.388C151.673 241.432 157.094 231.893 162.86 221.779C168.871 211.239 175.034 200.353 187.315 191.521L187.594 191.373C194.19 187.915 200.327 185.578 205.823 184.355C228.334 175.875 254.285 175.513 262.928 194.793C273.792 219.088 235.191 246.31 225.215 267.26C211.634 295.695 230.484 323.797 220.905 352.958C214.059 373.821 187.51 387.338 176.648 385.905C175.341 385.743 173.993 385.461 172.693 385.142C171.878 385.113 171.111 385.048 170.299 384.941C159.166 383.499 147.175 377.007 135.565 366.137C124.125 355.507 113.721 341.03 106.906 326.403ZM166.326 223.309C160.659 233.27 154.796 243.539 143.803 251.945C139.67 255.097 135.051 257.958 130.573 260.707C118.49 268.173 107.059 275.27 103.711 288.056C98.77 306.947 114.641 341.729 138.341 363.919C149.342 374.219 160.58 380.332 170.811 381.665C181.763 383.101 190.311 374.611 196.256 356.579C200.361 344.092 202.18 331.019 203.892 318.332C206.248 301.431 208.629 283.984 216.451 267.547C219.308 261.567 223.202 255.74 226.993 250.145C236.764 235.697 245.956 222.013 238.466 205.284C236.119 200.066 233.274 195.85 230.099 192.876C220.968 184.328 207.71 184.733 189.599 194.149C178.107 202.577 172.095 213.116 166.326 223.309Z" fill="#121212"/>
<path d="M290.71 384.836C292.226 382.487 295.306 379.796 301.247 380.36C306.807 380.882 315.016 384.445 318.812 387.972C324.294 393.049 323.002 403.19 318.605 410.003C315.473 414.858 311.069 417.7 306.517 417.698C305.633 417.711 304.711 417.6 303.796 417.389C298.998 416.32 294.549 412.089 291.567 405.85C288.533 399.427 287.095 390.435 290.71 384.836ZM304.536 414.795C305.207 414.932 305.858 415.008 306.492 415.022C309.96 414.986 313.376 412.679 315.979 408.646C320.83 401.128 320.078 393.065 316.627 389.819C313.388 386.788 305.747 383.52 300.909 383.056C297.441 382.727 294.903 383.765 293.336 386.193C290.682 390.304 291.124 397.946 294.375 404.847C296.939 410.192 300.721 413.921 304.536 414.795Z" fill="#121212"/>
</g>
</svg>
