<svg width="20" height="20" viewBox="0 0 20 20" fill="none" xmlns="http://www.w3.org/2000/svg">
<path d="M9.99935 1.66797C5.39102 1.66797 1.66602 5.39297 1.66602 10.0013C1.66602 14.6096 5.39102 18.3346 9.99935 18.3346C14.6077 18.3346 18.3327 14.6096 18.3327 10.0013C18.3327 5.39297 14.6077 1.66797 9.99935 1.66797ZM13.5827 13.5846C13.5056 13.6619 13.414 13.7232 13.3132 13.765C13.2124 13.8068 13.1043 13.8283 12.9952 13.8283C12.886 13.8283 12.778 13.8068 12.6772 13.765C12.5764 13.7232 12.4848 13.6619 12.4077 13.5846L9.99935 11.1763L7.59102 13.5846C7.4352 13.7404 7.22387 13.828 7.00352 13.828C6.78316 13.828 6.57183 13.7404 6.41602 13.5846C6.2602 13.4288 6.17267 13.2175 6.17267 12.9971C6.17267 12.888 6.19416 12.78 6.23591 12.6792C6.27766 12.5784 6.33886 12.4868 6.41602 12.4096L8.82435 10.0013L6.41602 7.59297C6.2602 7.43715 6.17267 7.22582 6.17267 7.00547C6.17267 6.78511 6.2602 6.57378 6.41602 6.41797C6.57183 6.26215 6.78316 6.17462 7.00352 6.17462C7.22387 6.17462 7.4352 6.26215 7.59102 6.41797L9.99935 8.8263L12.4077 6.41797C12.4848 6.34082 12.5764 6.27962 12.6772 6.23786C12.778 6.19611 12.8861 6.17462 12.9952 6.17462C13.1043 6.17462 13.2123 6.19611 13.3131 6.23786C13.4139 6.27962 13.5055 6.34082 13.5827 6.41797C13.6598 6.49512 13.721 6.58671 13.7628 6.68752C13.8045 6.78832 13.826 6.89636 13.826 7.00547C13.826 7.11458 13.8045 7.22262 13.7628 7.32342C13.721 7.42422 13.6598 7.51582 13.5827 7.59297L11.1743 10.0013L13.5827 12.4096C13.8993 12.7263 13.8993 13.2596 13.5827 13.5846Z" fill="#EC1C24" fill-opacity="0.1"/>
</svg>
