<svg width="32" height="32" viewBox="0 0 32 32" fill="none" xmlns="http://www.w3.org/2000/svg">
<path fill-rule="evenodd" clip-rule="evenodd" d="M26 17.8C26.2 19 26.4 20 26.8 21.2L28 24.6L27 26H20C20 27 19.6 28 18.8 28.8C18 29.6 17 30 16 30C15 30 13.8 29.6 13.2 28.8C12.4 28 12 27 12 26H5L4 24.6L5.2 21.2C5.6 19.6 6 18 6 16.4V12C6 10.6 6.2 9.2 6.8 8C7.4 6.6 8.2 5.6 9.2 4.6C10.2 3.6 11.4 3 12.8 2.6C13.8 2.2 15 2 16 2C15.6 2.6 15.2 3.4 14.8 4.2C14.4 4.2 14 4.2 13.4 4.6C12.4 4.8 11.4 5.4 10.6 6.2C9.8 6.8 9 7.8 8.6 8.8C8.2 9.8 8 10.8 8 12V16.4C8 18.2 7.6 20 7.2 21.8L6.4 24H25.6L24.8 21.8C24.45 20.748 24.252 19.54 24.074 18.452L24 18C24.8 18 25.4 18 26 17.8ZM16 28C16.4 28 17 27.8 17.4 27.4C17.8 27 18 26.6 18 26H14C14 26.6 14.2 27 14.6 27.4C15 27.8 15.6 28 16 28ZM30 8C30 9.5913 29.3679 11.1174 28.2426 12.2426C27.1174 13.3679 25.5913 14 24 14C22.4087 14 20.8826 13.3679 19.7574 12.2426C18.6321 11.1174 18 9.5913 18 8C18 6.4087 18.6321 4.88258 19.7574 3.75736C20.8826 2.63214 22.4087 2 24 2C25.5913 2 27.1174 2.63214 28.2426 3.75736C29.3679 4.88258 30 6.4087 30 8Z" fill="black"/>
<circle cx="24" cy="8" r="6" fill="#EC1C24" fill-opacity="0.93"/>
<path d="M22.304 10V9.464C22.7787 9.00533 23.1867 8.59733 23.528 8.24C23.8747 7.87733 24.1413 7.54933 24.328 7.256C24.5147 6.95733 24.608 6.68 24.608 6.424C24.608 6.15733 24.536 5.944 24.392 5.784C24.248 5.624 24.04 5.544 23.768 5.544C23.5707 5.544 23.3893 5.6 23.224 5.712C23.064 5.824 22.9147 5.95733 22.776 6.112L22.264 5.6C22.4987 5.34933 22.7413 5.15733 22.992 5.024C23.2427 4.88533 23.5413 4.816 23.888 4.816C24.3787 4.816 24.768 4.95733 25.056 5.24C25.3493 5.52267 25.496 5.90133 25.496 6.376C25.496 6.67467 25.4107 6.98133 25.24 7.296C25.0747 7.60533 24.8507 7.92267 24.568 8.248C24.2907 8.57333 23.984 8.91467 23.648 9.272C23.7813 9.26133 23.9253 9.25067 24.08 9.24C24.2347 9.224 24.3733 9.216 24.496 9.216H25.744V10H22.304Z" fill="white"/>
</svg>
