<svg width="175" height="38" viewBox="0 0 175 38" fill="none" xmlns="http://www.w3.org/2000/svg">
<g clip-path="url(#clip0_60_1624)">
<path d="M61.7715 21.5027L60.7284 24.4546H60.6415C60.4677 23.789 60.149 22.7761 59.6275 21.5606L54.0356 7.52439H48.5596V29.8954H52.1813V16.0908C52.1813 15.2226 52.1813 14.2386 52.1523 13.0231C52.1233 12.4153 52.0654 11.9523 52.0364 11.605H52.1233C52.2971 12.4732 52.5 13.1099 52.6448 13.5151L59.3667 29.8376H61.9164L68.5803 13.3704C68.7251 12.9942 68.87 12.2417 69.0149 11.605H69.1018C69.0149 13.2546 68.9569 14.7306 68.9279 15.6277V29.8086H72.7814V7.46651H67.5082L61.7715 21.5027ZM76.4321 13.7755H80.1986V29.8086H76.4321V13.7755ZM78.3443 7.00346C77.7069 7.00346 77.1854 7.23498 76.7508 7.64015C76.3162 8.04532 76.0844 8.56625 76.0844 9.20294C76.0844 9.81069 76.3162 10.3316 76.7508 10.7368C77.1854 11.142 77.7069 11.3445 78.3443 11.3445C78.9818 11.3445 79.5322 11.113 79.9379 10.7368C80.3725 10.3316 80.6043 9.81069 80.6043 9.20294C80.6043 8.59519 80.3725 8.07426 79.9379 7.64015C79.5612 7.23498 79.0107 7.00346 78.3443 7.00346ZM93.5554 13.6308C92.8601 13.4861 92.1357 13.3993 91.4404 13.3993C89.7309 13.3993 88.1664 13.7756 86.8625 14.528C85.5587 15.2805 84.5157 16.3223 83.8493 17.6246C83.1539 18.9559 82.8063 20.4898 82.8063 22.2551C82.8063 23.789 83.1539 25.1492 83.8203 26.3936C84.4867 27.6091 85.4139 28.5931 86.6597 29.2588C87.8477 29.9244 89.2384 30.2717 90.8029 30.2717C92.5993 30.2717 94.1349 29.8954 95.3518 29.2009L95.3808 29.1719V25.6991L95.2359 25.8148C94.6854 26.22 94.048 26.5673 93.4106 26.7699C92.7442 27.0014 92.1357 27.1172 91.6142 27.1172C90.1076 27.1172 88.9197 26.683 88.0794 25.728C87.2102 24.8019 86.7756 23.5285 86.7756 21.9368C86.7756 20.2872 87.2102 18.9849 88.1084 18.0298C89.0066 17.0748 90.1945 16.5828 91.6432 16.5828C92.8601 16.5828 94.1059 16.988 95.2359 17.7983L95.3808 17.9141V14.2386L95.3518 14.2097C94.8592 14.0071 94.3087 13.7755 93.5554 13.6308ZM105.985 13.5151C105.058 13.5151 104.189 13.8045 103.435 14.4122C102.798 14.9332 102.363 15.6856 101.987 16.5828H101.958V13.7755H98.1912V29.8086H101.958V21.6184C101.958 20.2293 102.247 19.0717 102.885 18.2324C103.522 17.3642 104.334 16.9301 105.319 16.9301C105.666 16.9301 106.014 17.0169 106.449 17.0748C106.854 17.1905 107.144 17.3063 107.347 17.451L107.492 17.5668V13.8045L107.405 13.7755C107.144 13.6019 106.622 13.5151 105.985 13.5151ZM116.242 13.4283C113.605 13.4283 111.49 14.2097 110.012 15.7435C108.506 17.2774 107.781 19.39 107.781 22.0526C107.781 24.5414 108.535 26.5673 109.983 28.0433C111.432 29.4903 113.402 30.2427 115.865 30.2427C118.444 30.2427 120.501 29.4613 121.978 27.8985C123.485 26.3358 124.209 24.252 124.209 21.6763C124.209 19.1296 123.514 17.1037 122.094 15.6277C120.733 14.1518 118.733 13.4283 116.242 13.4283ZM119.255 25.7569C118.56 26.6541 117.459 27.0882 116.097 27.0882C114.735 27.0882 113.634 26.6541 112.852 25.6991C112.07 24.8019 111.693 23.4996 111.693 21.85C111.693 20.1425 112.098 18.8402 112.852 17.9141C113.634 16.988 114.706 16.5249 116.068 16.5249C117.401 16.5249 118.444 16.959 119.197 17.8562C119.95 18.7533 120.356 20.0557 120.356 21.7631C120.298 23.4996 119.979 24.8598 119.255 25.7569ZM132.612 20.4319C131.424 19.9399 130.67 19.5637 130.323 19.2453C130.033 18.9559 129.888 18.5507 129.888 18.0298C129.888 17.5957 130.062 17.1616 130.497 16.8722C130.931 16.5828 131.424 16.4381 132.148 16.4381C132.786 16.4381 133.452 16.5538 134.089 16.7275C134.727 16.9011 135.306 17.1616 135.77 17.5089L135.915 17.6246V14.0939L135.828 14.065C135.393 13.8913 134.814 13.7177 134.118 13.573C133.423 13.4572 132.786 13.3993 132.264 13.3993C130.468 13.3993 128.99 13.8334 127.831 14.7885C126.672 15.6856 126.122 16.9011 126.122 18.3192C126.122 19.0717 126.238 19.7373 126.498 20.2872C126.759 20.837 127.136 21.358 127.657 21.7921C128.179 22.1973 128.932 22.6603 129.975 23.0944C130.844 23.4706 131.511 23.76 131.916 23.9916C132.322 24.2231 132.583 24.4836 132.786 24.6861C132.93 24.9177 133.017 25.2071 133.017 25.5833C133.017 26.6541 132.206 27.175 130.555 27.175C129.917 27.175 129.251 27.0593 128.469 26.7988C127.686 26.5383 126.962 26.1621 126.353 25.728L126.209 25.6122V29.2877L126.295 29.3166C126.846 29.5771 127.512 29.7507 128.324 29.9533C129.135 30.098 129.859 30.2138 130.497 30.2138C132.438 30.2138 134.031 29.7797 135.161 28.8246C136.32 27.8985 136.929 26.712 136.929 25.1781C136.929 24.1073 136.639 23.1523 136.002 22.4288C135.161 21.7342 134.118 21.0107 132.612 20.4319ZM146.867 13.4283C144.23 13.4283 142.115 14.2097 140.637 15.7435C139.16 17.2774 138.406 19.39 138.406 22.0526C138.406 24.5414 139.16 26.5673 140.608 28.0433C142.057 29.4903 144.027 30.2427 146.49 30.2427C149.069 30.2427 151.126 29.4613 152.603 27.8985C154.11 26.3358 154.834 24.252 154.834 21.6763C154.834 19.1296 154.139 17.1037 152.719 15.6277C151.358 14.1518 149.358 13.4283 146.867 13.4283ZM149.851 25.7569C149.156 26.6541 148.055 27.0882 146.693 27.0882C145.302 27.0882 144.23 26.6541 143.448 25.6991C142.666 24.8019 142.289 23.4996 142.289 21.85C142.289 20.1425 142.695 18.8402 143.448 17.9141C144.23 16.988 145.302 16.5249 146.664 16.5249C147.968 16.5249 149.04 16.959 149.793 17.8562C150.546 18.7533 150.952 20.0557 150.952 21.7631C150.952 23.4996 150.575 24.8598 149.851 25.7569ZM174.971 16.8722V13.7755H171.175V9.0293L171.06 9.05824L167.467 10.129L167.38 10.158V13.7755H161.701V11.7497C161.701 10.8236 161.933 10.1001 162.339 9.63705C162.744 9.174 163.353 8.94248 164.106 8.94248C164.627 8.94248 165.178 9.05824 165.786 9.3187L165.931 9.40552V6.13524L165.844 6.1063C165.323 5.93266 164.627 5.81689 163.729 5.81689C162.599 5.81689 161.614 6.07736 160.716 6.51147C159.818 7.00346 159.151 7.66909 158.659 8.56625C158.166 9.43447 157.906 10.4184 157.906 11.5471V13.7755H155.269V16.8433H157.906V29.8086H161.701V16.8722H167.38V25.1203C167.38 28.5063 168.973 30.2138 172.161 30.2138C172.682 30.2138 173.233 30.127 173.754 30.0402C174.305 29.9244 174.71 29.7797 174.942 29.6639L174.971 29.635V26.5383L174.826 26.6541C174.594 26.7988 174.392 26.9146 174.044 27.0014C173.754 27.0882 173.493 27.1172 173.291 27.1172C172.537 27.1172 172.016 26.9435 171.639 26.5094C171.291 26.1042 171.118 25.4386 171.118 24.4546V16.8722H174.971Z" fill="#737373"/>
<path d="M0 0H17.7608V17.7406H0V0Z" fill="#F25022"/>
<path d="M19.6152 0H37.376V17.7406H19.6152V0Z" fill="#7FBA00"/>
<path d="M0 19.5928H17.7608V37.3333H0V19.5928Z" fill="#00A4EF"/>
<path d="M19.6152 19.5928H37.376V37.3333H19.6152V19.5928Z" fill="#FFB900"/>
</g>
<defs>
<clipPath id="clip0_60_1624">
<rect width="175" height="37.3333" fill="white"/>
</clipPath>
</defs>
</svg>
