<svg width="19" height="19" viewBox="0 0 19 19" fill="none" xmlns="http://www.w3.org/2000/svg">
<path d="M11.194 1.5C11.194 1.10218 11.0475 0.720644 10.7868 0.43934C10.5261 0.158035 10.1724 0 9.80367 0C9.43492 0 9.08128 0.158035 8.82053 0.43934C8.55979 0.720644 8.41331 1.10218 8.41331 1.5V8H2.38841C2.01966 8 1.66602 8.15804 1.40527 8.43934C1.14453 8.72064 0.998047 9.10218 0.998047 9.5C0.998047 9.89782 1.14453 10.2794 1.40527 10.5607C1.66602 10.842 2.01966 11 2.38841 11H8.41331V17.5C8.41331 17.8978 8.55979 18.2794 8.82053 18.5607C9.08128 18.842 9.43492 19 9.80367 19C10.1724 19 10.5261 18.842 10.7868 18.5607C11.0475 18.2794 11.194 17.8978 11.194 17.5V11H17.2189C17.5877 11 17.9413 10.842 18.2021 10.5607C18.4628 10.2794 18.6093 9.89782 18.6093 9.5C18.6093 9.10218 18.4628 8.72064 18.2021 8.43934C17.9413 8.15804 17.5877 8 17.2189 8H11.194V1.5Z" fill="#121212"/>
</svg>
