<svg width="20" height="20" viewBox="0 0 20 20" fill="none" xmlns="http://www.w3.org/2000/svg">
<path d="M16 20H4C2.93913 20 1.92172 19.5786 1.17157 18.8284C0.421427 18.0783 0 17.0609 0 16V4C0 2.93913 0.421427 1.92172 1.17157 1.17157C1.92172 0.421427 2.93913 0 4 0H16C17.0609 0 18.0783 0.421427 18.8284 1.17157C19.5786 1.92172 20 2.93913 20 4V16C20 17.0609 19.5786 18.0783 18.8284 18.8284C18.0783 19.5786 17.0609 20 16 20ZM4 2C3.46957 2 2.96086 2.21071 2.58579 2.58579C2.21071 2.96086 2 3.46957 2 4V16C2 16.5304 2.21071 17.0391 2.58579 17.4142C2.96086 17.7893 3.46957 18 4 18H16C16.5304 18 17.0391 17.7893 17.4142 17.4142C17.7893 17.0391 18 16.5304 18 16V4C18 3.46957 17.7893 2.96086 17.4142 2.58579C17.0391 2.21071 16.5304 2 16 2H4ZM13.762 14.776C13.3296 14.7934 12.8981 14.7226 12.4939 14.5679C12.0897 14.4132 11.7213 14.1777 11.411 13.876C10.7614 13.1354 10.4282 12.1696 10.483 11.186C10.4629 10.23 10.8039 9.30165 11.438 8.586C11.7695 8.23553 12.1714 7.95912 12.6172 7.77489C13.063 7.59065 13.5428 7.50277 14.025 7.517H14.258V5.517C14.258 5.361 14.385 5.234 14.541 5.233H15.858C15.9311 5.23027 16.0026 5.25527 16.058 5.303C16.0851 5.32862 16.1064 5.35971 16.1205 5.39419C16.1346 5.42867 16.1413 5.46576 16.14 5.503V13.182C16.135 13.447 16.149 13.712 16.18 13.975V14C16.1815 14.0636 16.1618 14.1259 16.124 14.177C16.0913 14.2171 16.05 14.2493 16.003 14.271C15.309 14.6023 14.55 14.7751 13.781 14.777L13.762 14.776ZM12.846 9.66L12.841 9.666C12.5243 10.0828 12.3649 10.5981 12.391 11.121C12.3499 11.6658 12.5073 12.2071 12.834 12.645C13.101 12.939 13.486 13.099 13.883 13.079C14.009 13.0809 14.1349 13.0681 14.258 13.041V9.192C14.1647 9.17202 14.0694 9.16229 13.974 9.163C13.7606 9.15728 13.5487 9.19918 13.3536 9.28568C13.1584 9.37217 12.985 9.50107 12.846 9.663V9.66ZM10.225 14.66H8.774C8.69941 14.6649 8.62517 14.6463 8.56168 14.6068C8.4982 14.5674 8.44865 14.509 8.42 14.44L8.21 14L8.205 13.989L8 13.58L7.936 13.447C7.617 12.789 7.288 12.111 6.958 11.413C6.49917 12.4296 6.02679 13.44 5.541 14.444V14.454L5.536 14.463C5.50253 14.5191 5.45584 14.5661 5.4 14.6C5.34323 14.6339 5.27811 14.6512 5.212 14.65H3.841C3.78366 14.6528 3.72697 14.6369 3.67951 14.6046C3.63205 14.5723 3.59641 14.5254 3.578 14.471C3.56596 14.4296 3.56357 14.386 3.57103 14.3435C3.57848 14.301 3.59558 14.2608 3.621 14.226L5.85 9.965L3.694 5.651C3.665 5.60903 3.64848 5.55971 3.64635 5.50874C3.64423 5.45776 3.65659 5.40724 3.682 5.363C3.70644 5.32288 3.74081 5.28974 3.78181 5.26679C3.8228 5.24384 3.86902 5.23186 3.916 5.232H5.35C5.41966 5.22828 5.48897 5.24422 5.55 5.278C5.61205 5.31587 5.65986 5.37317 5.686 5.441C6.222 6.566 6.674 7.541 7.069 8.406C7.56 7.306 8.082 6.188 8.432 5.447L8.437 5.436L8.443 5.426V5.415C8.46807 5.37223 8.49942 5.33346 8.536 5.3C8.59788 5.24836 8.67643 5.22099 8.757 5.223H10.1C10.1514 5.22163 10.202 5.23516 10.2458 5.26195C10.2897 5.28875 10.3248 5.32767 10.347 5.374C10.3647 5.41644 10.3718 5.46253 10.3678 5.50832C10.3638 5.55412 10.3488 5.59827 10.324 5.637L8.167 9.824L10.449 14.224C10.473 14.2622 10.4881 14.3053 10.4931 14.3502C10.4981 14.395 10.493 14.4404 10.478 14.483C10.4592 14.5348 10.4247 14.5794 10.3794 14.6108C10.334 14.6421 10.2801 14.6586 10.225 14.658V14.66Z" fill="black"/>
</svg>
