<svg width="29" height="26" viewBox="0 0 29 26" fill="none" xmlns="http://www.w3.org/2000/svg">
<path d="M10.3377 2.36588C9.82596 1.63655 9.14151 1.0402 8.34323 0.628095C7.54496 0.215987 6.65673 0.000445521 5.7549 0C2.66321 0 0.167976 2.47854 0.167976 5.52385C0.166553 6.41156 0.382773 7.28656 0.798354 8.07487C1.21394 8.86318 1.81666 9.54161 2.55557 10.0528C2.14177 11.283 1.93146 12.5704 1.93264 13.8659C1.93264 16.9043 3.06908 19.6827 4.95022 21.8111L2.19028 24.5202C2.10836 24.6008 2.0434 24.6964 1.99911 24.8016C1.95482 24.9069 1.93207 25.0196 1.93215 25.1335C1.93223 25.2474 1.95515 25.3601 1.99959 25.4653C2.04403 25.5705 2.10913 25.666 2.19116 25.7465C2.2732 25.8269 2.37057 25.8907 2.47771 25.9342C2.58485 25.9777 2.69966 26.0001 2.8156 26C2.93153 25.9999 3.04631 25.9774 3.15339 25.9338C3.26047 25.8901 3.35774 25.8262 3.43966 25.7456L6.19607 23.0365C8.43977 24.951 11.3132 26.0032 14.2853 25.9987C17.2577 26.0027 20.1311 24.9499 22.3745 23.0348L25.1309 25.7439C25.2128 25.8244 25.3101 25.8884 25.4172 25.932C25.5243 25.9757 25.639 25.9982 25.755 25.9983C25.8709 25.9983 25.9857 25.976 26.0929 25.9325C26.2 25.889 26.2974 25.8252 26.3794 25.7447C26.4615 25.6643 26.5265 25.5687 26.571 25.4636C26.6154 25.3584 26.6383 25.2456 26.6384 25.1318C26.6385 25.0179 26.6158 24.9051 26.5715 24.7999C26.5272 24.6947 26.4622 24.599 26.3803 24.5185L23.6221 21.8111C25.5713 19.6074 26.6426 16.7852 26.6379 13.8659C26.6379 12.5227 26.4156 11.2297 26.0044 10.0216C26.7455 9.51423 27.3507 8.8383 27.7683 8.0515C28.1859 7.26469 28.4035 6.39034 28.4026 5.50305C28.4033 4.78091 28.2591 4.06572 27.9784 3.39832C27.6976 2.73091 27.2857 2.12437 26.7662 1.61335C26.2468 1.10232 25.6299 0.696812 24.9508 0.419991C24.2718 0.143169 23.5438 0.000454995 22.8086 0C20.9063 0 19.2263 0.935951 18.217 2.36068C16.9496 1.94377 15.6218 1.73186 14.2853 1.73324C12.9053 1.73324 11.5783 1.9551 10.3377 2.36588ZM5.7549 1.73324C6.91429 1.73324 7.9572 2.24628 8.65954 3.06091C6.33135 4.23456 4.44067 6.10128 3.2579 8.3941C2.84059 8.03682 2.50629 7.59565 2.27765 7.10045C2.049 6.60525 1.93134 6.06759 1.93264 5.52385C1.93264 3.42316 3.64966 1.73324 5.7549 1.73324ZM19.8987 3.05571C20.6028 2.24455 21.6457 1.73324 22.8104 1.73324C24.9227 1.73324 26.6379 3.41969 26.6379 5.50305C26.6379 6.64872 26.1191 7.6748 25.3003 8.3681C24.1144 6.08327 22.2248 4.22422 19.9004 3.05571H19.8987ZM13.403 6.93297C13.637 6.93297 13.8614 7.02428 14.0269 7.1868C14.1923 7.34932 14.2853 7.56975 14.2853 7.7996V13.8659H18.6969C18.931 13.8659 19.1554 13.9573 19.3209 14.1198C19.4863 14.2823 19.5793 14.5027 19.5793 14.7326C19.5793 14.9624 19.4863 15.1828 19.3209 15.3454C19.1554 15.5079 18.931 15.5992 18.6969 15.5992H13.403C13.1689 15.5992 12.9445 15.5079 12.7791 15.3454C12.6136 15.1828 12.5206 14.9624 12.5206 14.7326V7.7996C12.5206 7.56975 12.6136 7.34932 12.7791 7.1868C12.9445 7.02428 13.1689 6.93297 13.403 6.93297Z" fill="#FFCA14"/>
</svg>
