<svg width="150" height="51" viewBox="0 0 150 51" fill="none" xmlns="http://www.w3.org/2000/svg">
<g clip-path="url(#clip0_60_1630)">
<path d="M33.3977 26.0328C33.342 19.8367 38.4726 16.8621 38.7047 16.7171C35.8176 12.5051 31.3244 11.9281 29.7214 11.8602C25.8997 11.4745 22.2606 14.1035 20.3234 14.1035C18.3863 14.1035 15.3908 11.9157 12.222 11.9774C8.05063 12.0392 4.21036 14.3935 2.06278 18.1149C-2.26643 25.6039 0.958043 36.7032 5.17275 42.782C7.23678 45.7536 9.6938 49.1016 12.9245 48.9781C16.0375 48.8547 17.2134 46.9724 20.9702 46.9724C24.7269 46.9724 25.7852 48.9781 29.0747 48.9195C32.4198 48.8547 34.5426 45.8832 36.5912 42.9024C38.9554 39.4526 39.9333 36.1138 39.989 35.9379C39.9147 35.9071 33.4657 33.4416 33.3977 26.0328Z" fill="black"/>
<path d="M27.218 7.83864C28.9324 5.76813 30.0897 2.88913 29.7709 0.0195312C27.3013 0.118381 24.3122 1.66116 22.539 3.73167C20.9516 5.56158 19.5591 8.49291 19.9364 11.3041C22.6906 11.517 25.5034 9.90611 27.218 7.83864Z" fill="black"/>
</g>
<path d="M59.68 26.08L58.76 29.28H65.44L64.52 26.08C64.0933 24.6933 63.68 23.2667 63.28 21.8C62.9067 20.3333 62.5333 18.88 62.16 17.44H62C61.6533 18.9067 61.28 20.3733 60.88 21.84C60.5067 23.28 60.1067 24.6933 59.68 26.08ZM50.92 40L59.44 13.84H64.88L73.4 40H68.52L66.48 32.92H57.68L55.64 40H50.92ZM76.2247 47.76V20.36H80.0247L80.3447 22.44H80.5047C81.3314 21.7467 82.2514 21.1467 83.2647 20.64C84.3047 20.1333 85.358 19.88 86.4247 19.88C88.878 19.88 90.7714 20.7867 92.1047 22.6C93.4647 24.4133 94.1447 26.84 94.1447 29.88C94.1447 32.12 93.7447 34.04 92.9447 35.64C92.1447 37.2133 91.1047 38.4133 89.8247 39.24C88.5714 40.0667 87.2114 40.48 85.7447 40.48C84.8914 40.48 84.038 40.2933 83.1847 39.92C82.3314 39.52 81.5047 38.9867 80.7047 38.32L80.8247 41.6V47.76H76.2247ZM84.7847 36.68C86.0914 36.68 87.1847 36.1067 88.0647 34.96C88.9447 33.8133 89.3847 32.1333 89.3847 29.92C89.3847 27.9467 89.0514 26.4133 88.3847 25.32C87.718 24.2267 86.638 23.68 85.1447 23.68C83.758 23.68 82.318 24.4133 80.8247 25.88V35.04C81.5447 35.6267 82.238 36.0533 82.9047 36.32C83.5714 36.56 84.198 36.68 84.7847 36.68ZM98.8028 47.76V20.36H102.603L102.923 22.44H103.083C103.909 21.7467 104.829 21.1467 105.843 20.64C106.883 20.1333 107.936 19.88 109.003 19.88C111.456 19.88 113.349 20.7867 114.683 22.6C116.043 24.4133 116.723 26.84 116.723 29.88C116.723 32.12 116.323 34.04 115.523 35.64C114.723 37.2133 113.683 38.4133 112.403 39.24C111.149 40.0667 109.789 40.48 108.323 40.48C107.469 40.48 106.616 40.2933 105.763 39.92C104.909 39.52 104.083 38.9867 103.283 38.32L103.403 41.6V47.76H98.8028ZM107.363 36.68C108.669 36.68 109.763 36.1067 110.643 34.96C111.523 33.8133 111.963 32.1333 111.963 29.92C111.963 27.9467 111.629 26.4133 110.963 25.32C110.296 24.2267 109.216 23.68 107.723 23.68C106.336 23.68 104.896 24.4133 103.403 25.88V35.04C104.123 35.6267 104.816 36.0533 105.483 36.32C106.149 36.56 106.776 36.68 107.363 36.68ZM125.861 40.48C124.234 40.48 123.074 39.9867 122.381 39C121.714 38.0133 121.381 36.6667 121.381 34.96V11.76H125.981V35.2C125.981 35.76 126.088 36.16 126.301 36.4C126.514 36.6133 126.741 36.72 126.981 36.72C127.088 36.72 127.181 36.72 127.261 36.72C127.368 36.6933 127.514 36.6667 127.701 36.64L128.301 40.08C128.034 40.1867 127.688 40.28 127.261 40.36C126.861 40.44 126.394 40.48 125.861 40.48ZM140.64 40.48C138.827 40.48 137.187 40.08 135.72 39.28C134.254 38.4533 133.094 37.28 132.24 35.76C131.387 34.2133 130.96 32.36 130.96 30.2C130.96 28.0667 131.387 26.2267 132.24 24.68C133.12 23.1333 134.254 21.9467 135.64 21.12C137.027 20.2933 138.48 19.88 140 19.88C141.787 19.88 143.28 20.28 144.48 21.08C145.68 21.8533 146.587 22.9467 147.2 24.36C147.814 25.7467 148.12 27.36 148.12 29.2C148.12 30.16 148.054 30.9067 147.92 31.44H135.44C135.654 33.1733 136.28 34.52 137.32 35.48C138.36 36.44 139.667 36.92 141.24 36.92C142.094 36.92 142.88 36.8 143.6 36.56C144.347 36.2933 145.08 35.9333 145.8 35.48L147.36 38.36C146.427 38.9733 145.387 39.48 144.24 39.88C143.094 40.28 141.894 40.48 140.64 40.48ZM135.4 28.32H144.12C144.12 26.8 143.787 25.6133 143.12 24.76C142.454 23.88 141.454 23.44 140.12 23.44C138.974 23.44 137.947 23.8667 137.04 24.72C136.16 25.5467 135.614 26.7467 135.4 28.32Z" fill="black"/>
<defs>
<clipPath id="clip0_60_1630">
<rect width="40" height="49" fill="white"/>
</clipPath>
</defs>
</svg>
