<svg width="28" height="28" viewBox="0 0 28 28" fill="none" xmlns="http://www.w3.org/2000/svg">
<path d="M22.1667 3.49935H17.29C16.8 2.14602 15.5167 1.16602 14 1.16602C12.4833 1.16602 11.2 2.14602 10.71 3.49935H5.83333C4.55 3.49935 3.5 4.54935 3.5 5.83268V22.166C3.5 23.4494 4.55 24.4994 5.83333 24.4994H22.1667C23.45 24.4994 24.5 23.4494 24.5 22.166V5.83268C24.5 4.54935 23.45 3.49935 22.1667 3.49935ZM14 3.49935C14.6417 3.49935 15.1667 4.02435 15.1667 4.66602C15.1667 5.30768 14.6417 5.83268 14 5.83268C13.3583 5.83268 12.8333 5.30768 12.8333 4.66602C12.8333 4.02435 13.3583 3.49935 14 3.49935ZM16.3333 19.8327H8.16667V17.4994H16.3333V19.8327ZM19.8333 15.166H8.16667V12.8327H19.8333V15.166ZM19.8333 10.4993H8.16667V8.16602H19.8333V10.4993Z" fill="white"/>
</svg>
