<svg width="21" height="20" viewBox="0 0 21 20" fill="none" xmlns="http://www.w3.org/2000/svg">
<g opacity="0.5">
<path d="M10.8699 0C5.30973 0 0.786133 4.486 0.786133 10C0.786133 15.514 5.30973 20 10.8699 20C16.4301 20 20.9537 15.514 20.9537 10C20.9537 4.486 16.4301 0 10.8699 0ZM10.8699 18C6.42197 18 2.80289 14.411 2.80289 10C2.80289 5.589 6.42197 2 10.8699 2C15.3179 2 18.937 5.589 18.937 10C18.937 14.411 15.3179 18 10.8699 18Z" fill="black"/>
<path d="M11.8781 5H9.86133V11H15.9116V9H11.8781V5Z" fill="black"/>
</g>
</svg>
