<svg width="16" height="23" viewBox="0 0 16 23" fill="none" xmlns="http://www.w3.org/2000/svg">
<path fill-rule="evenodd" clip-rule="evenodd" d="M6.31175 20.1165H9.5961L9.14921 22.1006H6.75277L6.31175 20.1165ZM5.39937 7.97477C5.57043 10.9588 6.33001 14.6877 7.63248 19.0157C7.85767 19.1285 8.07155 19.1242 8.27533 19.0157C9.57741 14.6892 10.337 10.9612 10.5083 7.97762C11.0719 -2.76257 4.84888 -2.46042 5.39937 7.97477ZM6.7586 0C6.7586 0 2.92466 1.45104 3.20066 7.03209C3.47662 12.6131 7.29 19.0127 7.29 19.0127C4.94238 16.9298 1.4652 10.4411 1.39821 6.62284C1.37408 3.23739 3.67906 0.398415 6.7586 0ZM0.662978 7.11276C1.22339 12.7797 7.00352 19.2315 6.54208 18.8083C5.25494 17.6983 0.92102 12.4718 0.106622 7.57437C-0.707776 2.67698 3.41049 0.980713 3.41049 0.980713C1.02 2.60144 0.394706 4.97324 0.663021 7.11281L0.662978 7.11276ZM9.48797 18.7462C9.80248 18.091 12.5212 12.2894 12.7812 7.03209C13.0571 1.45104 9.22324 0 9.22324 0C9.58065 0.0151942 10.3762 0.24725 11.1272 0.605176C11.8782 0.963059 14.5319 2.59367 14.5836 6.62284C14.5396 9.13117 13.3545 12.7035 11.8811 15.4501C13.3736 13.1612 15.0483 10.0329 15.337 7.11276C15.6053 4.97324 14.98 2.60144 12.5895 0.980713C12.5895 0.980713 16.7077 2.67698 15.8934 7.57437C15.0789 12.4718 10.7372 17.7034 9.45016 18.8135L9.48797 18.7463V18.7462Z" fill="#3C63B0"/>
</svg>
