<svg width="22" height="24" viewBox="0 0 22 24" fill="none" xmlns="http://www.w3.org/2000/svg">
<g clip-path="url(#clip0_1_5921)">
<path d="M10.9874 23.9398L2.03427 22.017L0.0390625 4.70508H21.9626L19.9653 22.0143L10.9874 23.9398Z" fill="#264DE4"/>
<path d="M18.2546 20.9117L19.9613 6.12012H11V22.4676L18.2546 20.9117Z" fill="#2965F1"/>
<path d="M4.6115 12.5406L4.85745 14.6639H10.9993V12.5406H4.6115ZM4.11719 8.24316L4.36666 10.3664H10.9993V8.24316H4.11719ZM10.9993 18.0549L10.9873 18.0574L7.93066 17.4189L7.73524 15.7255H4.98009L5.36457 19.0593L10.9867 20.2666L10.9993 20.264V18.0549Z" fill="#EBEBEB"/>
<path d="M5.19727 0H8.52133V1.07541H6.58739V2.15083H8.5215V3.22617H5.19727V0ZM9.18623 0H12.5104V0.935136H10.5764V1.12215H12.5104V3.27297H9.18631V2.29097H11.1203V2.10396H9.18614V0H9.18623ZM13.1753 0H16.4994V0.935136H14.5654V1.12215H16.4994V3.27297H13.1753V2.29097H15.1093V2.10396H13.1754V0H13.1753Z" fill="black"/>
<path d="M17.3701 12.5406L17.8655 8.24316H10.9903V10.3664H14.8577L14.6079 12.5406H10.9903V14.6639H14.37L14.0513 17.4175L10.9902 18.0567V20.2656L16.6168 19.0593L16.6581 18.7006L17.3031 13.1108L17.3701 12.5406Z" fill="white"/>
</g>
<defs>
<clipPath id="clip0_1_5921">
<rect width="22" height="24" fill="white"/>
</clipPath>
</defs>
</svg>
