<svg width="17" height="15" viewBox="0 0 17 15" fill="none" xmlns="http://www.w3.org/2000/svg">
<path d="M15.772 2.7H13.1928V1.2C13.1928 0.538125 12.6145 0 11.9032 0H5.45507C4.74376 0 4.16545 0.538125 4.16545 1.2V2.7H1.58621C1.22956 2.7 0.941406 2.96813 0.941406 3.3V3.9C0.941406 3.9825 1.01395 4.05 1.10261 4.05H2.31968L2.8174 13.8563C2.84964 14.4956 3.41787 15 4.105 15H13.2532C13.9424 15 14.5086 14.4975 14.5408 13.8563L15.0385 4.05H16.2556C16.3443 4.05 16.4168 3.9825 16.4168 3.9V3.3C16.4168 2.96813 16.1287 2.7 15.772 2.7ZM11.742 2.7H5.61627V1.35H11.742V2.7Z" fill="#303030"/>
</svg>
