<svg width="13" height="8" viewBox="0 0 13 8" fill="none" xmlns="http://www.w3.org/2000/svg">
<path d="M5.27475 7.70463C5.21192 7.65943 4.94325 7.48875 4.72225 7.32976C3.33233 6.39766 1.05733 3.9661 0.362917 2.69342C0.251333 2.50015 0.0151667 2.0115 0 1.75041C0 1.50024 0.078 1.26176 0.236167 1.03419C0.457167 0.750511 0.804917 0.522942 1.2155 0.398246C1.50042 0.317974 2.353 0.193278 2.36817 0.193278C3.30092 0.0685826 4.8165 0 6.49133 0C8.08708 0 9.54092 0.0685826 10.4878 0.170677C10.5029 0.182367 11.5624 0.307063 11.9253 0.443449C12.5883 0.693619 13 1.18227 13 1.70521V1.75041C12.9838 2.09099 12.5721 2.80721 12.5569 2.80721C11.8614 4.0113 9.698 6.38675 8.26042 7.34145C8.26042 7.34145 7.891 7.61033 7.66025 7.72723C7.32875 7.9096 6.91817 8 6.50758 8C6.04933 8 5.6225 7.89791 5.27475 7.70463Z" fill="black"/>
</svg>
