<svg width="24" height="24" viewBox="0 0 24 24" fill="none" xmlns="http://www.w3.org/2000/svg">
<g clip-path="url(#clip0_1_8122)">
<path d="M5.41797 18.4446L5.47422 18.2973L5.48359 18.2777C5.53047 18.1599 5.57734 18.0323 5.62422 17.9145C5.68047 17.7574 5.73672 17.5906 5.79297 17.4335C5.83047 17.3452 5.85859 17.2568 5.88672 17.1587C5.96172 16.9427 6.06484 16.6581 6.18672 16.3832C6.26172 16.2163 6.31797 16.0985 6.38359 15.9906C6.45859 15.863 6.53359 15.7452 6.61797 15.6274L6.68359 15.5292L6.78672 15.4605C6.79609 15.4507 6.81484 15.4409 6.83359 15.4311C6.88047 15.4016 6.93672 15.382 6.97422 15.3624C7.03984 15.3329 7.12422 15.3035 7.21797 15.274C7.34922 15.2347 7.49922 15.1955 7.67734 15.1562C7.93984 15.0973 8.22109 15.0384 8.57734 14.9795C9.11172 14.8912 9.68359 14.8127 10.368 14.7341C11.5773 14.5967 12.7867 14.4985 13.9492 14.4397C14.568 14.4102 15.0367 14.4004 15.4773 14.4004H15.7586C16.0492 14.4102 16.3867 14.42 16.6961 14.4691C16.8086 14.4887 16.9117 14.5084 16.9867 14.5378C17.0148 14.5476 17.043 14.5574 17.0523 14.5673L17.1461 14.6065L17.2211 14.6752L17.3055 14.7636C17.4086 14.8716 17.5211 14.9992 17.6336 15.1464C17.9898 15.6176 18.3086 16.1869 18.5898 16.8347C18.8617 17.463 19.0305 18.0225 19.1336 18.5722L19.2742 19.3476H17.5492L17.4461 18.8274C17.3336 18.2777 15.918 16.8249 15.2148 16.5403C15.1398 16.5108 14.8398 16.4225 13.9117 16.4225C11.9992 16.4225 9.29922 16.7758 8.91484 16.8642C8.45547 17.09 7.75234 18.0323 7.34922 18.9746L7.18047 19.3574" fill="white"/>
<path d="M17.1371 15.5784C17.0527 15.4606 16.959 15.3526 16.8559 15.2544L16.7902 15.1857C16.7902 15.1857 16.7809 15.1857 16.7715 15.1759C16.7246 15.1563 16.659 15.1465 16.5934 15.1366C16.3215 15.0974 16.0309 15.0876 15.7402 15.0777C15.1496 15.0679 14.559 15.0876 13.9684 15.117C12.7871 15.1759 11.5965 15.2741 10.4246 15.4115C9.83398 15.4802 9.24336 15.5587 8.66211 15.6569C8.37148 15.706 8.08086 15.755 7.79961 15.8238C7.65898 15.8532 7.51836 15.8925 7.38711 15.9317C7.32148 15.9514 7.25586 15.971 7.19961 16.0004C7.17148 16.0103 7.14336 16.0201 7.13398 16.0397C7.13398 16.0397 7.12461 16.0397 7.12461 16.0495C7.05898 16.1477 6.99336 16.2458 6.92773 16.3538C6.86211 16.4618 6.81523 16.5796 6.75898 16.6974C6.65586 16.933 6.56211 17.1784 6.47773 17.4238C6.39336 17.6692 6.29961 17.9244 6.21523 18.1796C6.16836 18.3072 6.12148 18.4348 6.06523 18.5624C6.04648 18.6213 6.01836 18.6802 5.99023 18.7391H6.78711C7.21836 17.7281 8.03398 16.5698 8.70898 16.2851C8.89648 16.2066 11.9152 15.8139 13.9121 15.8139C14.6527 15.8139 15.159 15.8728 15.4402 15.9808C16.2559 16.3146 17.8871 17.8949 18.0559 18.7489H18.5152C18.4215 18.209 18.234 17.679 18.0184 17.1685C17.7746 16.5796 17.484 16.0397 17.1371 15.5784Z" fill="#BA8449"/>
<path d="M17.9993 19.3571L17.9055 18.827C17.8211 18.3853 17.6805 17.9141 17.4555 17.3939C17.2118 16.8442 16.9493 16.3632 16.6493 15.9804C16.593 15.9019 16.5368 15.8332 16.4805 15.7743C16.2461 15.735 15.9743 15.735 15.7305 15.7252H15.468C15.0461 15.7252 14.5961 15.735 13.9961 15.7644C12.8524 15.8233 11.6805 15.9215 10.4899 16.0589C9.82426 16.1375 9.27113 16.216 8.76488 16.2945C8.43676 16.3436 8.17426 16.4025 7.93989 16.4516C7.78989 16.4908 7.67739 16.5203 7.57426 16.5497C7.55551 16.5497 7.54614 16.5595 7.53676 16.5595C7.51801 16.5988 7.48989 16.6282 7.47114 16.6675C7.42426 16.746 7.38676 16.8344 7.32114 16.9522C7.21801 17.1779 7.13364 17.4135 7.05864 17.6197C7.02114 17.708 6.99301 17.7963 6.96489 17.8847C6.90864 18.0516 6.85239 18.2184 6.78676 18.3853C6.73989 18.5129 6.68364 18.6405 6.63676 18.7779L6.62739 18.7976C6.60864 18.8565 6.58051 18.9154 6.56176 18.9644L6.39301 19.3571H5.29614L5.13676 19.2786L5.11801 19.2687C4.74301 19.043 4.74301 18.7092 4.75239 18.5718V18.5424L4.77114 18.454L4.79926 18.346C4.81801 18.2773 4.83676 18.1988 4.85551 18.1301C4.89301 17.9829 4.93989 17.8454 4.98676 17.708C5.07114 17.4528 5.17426 17.1779 5.29614 16.8835C5.42739 16.5792 5.54926 16.3141 5.68989 16.0687C5.75551 15.9411 5.83051 15.8135 5.92426 15.6663C6.00864 15.5289 6.10238 15.3914 6.19613 15.2638C6.28051 15.1559 6.35551 15.0871 6.41176 15.0479H6.42114C6.47739 14.9988 6.53364 14.9694 6.56176 14.9595C6.64614 14.9105 6.71176 14.881 6.75864 14.8614C6.87113 14.8123 6.97426 14.7828 7.05864 14.7534C7.24614 14.6945 7.42426 14.6552 7.55551 14.6258C7.82738 14.5669 8.11801 14.508 8.48363 14.4491C9.02738 14.3608 9.59926 14.2921 10.3024 14.2135C11.5211 14.0859 12.7399 13.9878 13.9211 13.9387C14.4836 13.919 14.9243 13.8994 15.3274 13.8994H15.7586C16.0586 13.9092 16.3961 13.919 16.7618 13.9779H16.7711C16.8555 13.9976 16.9868 14.0172 17.1368 14.0663H17.1461C17.1836 14.0859 17.2399 14.1055 17.3055 14.135C17.3524 14.1644 17.3899 14.1841 17.418 14.2037L17.4649 14.243L17.5024 14.2724L17.5399 14.3117L17.643 14.4197C17.7649 14.5473 17.8774 14.6847 17.9993 14.8516C18.3743 15.362 18.7024 15.9509 19.0024 16.6479C19.143 16.9718 19.2649 17.2957 19.3586 17.6098C19.4618 17.9534 19.5368 18.2773 19.593 18.5914L19.7055 19.3473H17.9993V19.3571Z" fill="white"/>
<path d="M6.01953 19.3567L6.43203 18.4242C6.77891 17.6487 7.61328 16.2254 8.54141 15.8229L8.56016 15.8131C8.86953 15.6953 12.0008 15.3125 13.9133 15.3125C14.982 15.3125 15.3852 15.4205 15.5914 15.5088C16.557 15.9015 18.2352 17.5604 18.4602 18.5419L18.6477 19.3469H6.01953V19.3567Z" fill="white"/>
<path d="M17.3727 19.3567L17.2602 18.856C17.157 18.3947 15.8352 17.0106 15.1508 16.726C15.0852 16.6965 14.8133 16.618 13.9133 16.618C12.0758 16.618 9.41328 16.9616 8.98203 17.0499C8.62578 17.2364 7.97891 18.0315 7.55703 18.9738L7.38828 19.3468H5.83203L6.22578 18.434C6.68516 17.3542 7.59453 16.0192 8.48516 15.6462C8.83203 15.499 12.0008 15.126 13.9227 15.126C14.757 15.126 15.3195 15.1947 15.6664 15.3321C16.632 15.7248 18.4414 17.4327 18.6664 18.5714L18.8164 19.3567H17.3727Z" fill="white"/>
<path d="M18.0935 19.3566L17.9154 19.1799C17.2404 18.5223 17.0529 17.1578 17.2591 16.5983C17.3997 16.2253 17.6997 16.0977 17.9247 16.0977C17.9904 16.0977 18.0466 16.1075 18.1029 16.1272C18.2247 16.1174 18.506 15.872 18.5904 15.7345C18.7216 15.4793 18.9747 15.3223 19.2841 15.3223C19.7435 15.3223 20.4935 15.7051 20.7372 16.0683C20.8779 16.2744 20.9154 16.5198 20.8404 16.7358C20.831 16.7554 20.8216 16.7947 20.8029 16.8437C20.5497 17.6388 20.2216 18.6106 19.9591 19.0621L19.781 19.3664L18.0935 19.3566Z" fill="white"/>
<path d="M18.0367 19.3568L18.618 18.3653C18.8992 17.8844 19.0961 17.4917 19.2273 17.1874C18.8992 17.4328 18.4398 17.5801 17.7555 17.6193L17.7367 17.5997L17.7273 17.6684C17.3242 17.6684 16.9961 17.3249 16.9773 16.9028C16.968 16.6966 17.043 16.4905 17.1742 16.3334C17.3055 16.1764 17.493 16.088 17.6898 16.0782C18.3648 16.0488 18.4492 15.8819 18.5711 15.6365C18.7398 15.3028 19.1055 15.1064 19.5836 15.1064C19.7055 15.1064 19.8273 15.1163 19.9398 15.1457C20.5305 15.2831 20.9148 15.7543 20.943 16.3629C20.9711 16.9813 20.643 17.8844 19.9867 19.0426L19.8086 19.3568H18.0367Z" fill="white"/>
<path d="M20.5024 17.4233C19.7431 17.4233 18.9181 16.903 18.4962 16.3926C18.1118 15.9312 18.0743 15.519 18.1118 15.2539C18.1587 14.93 18.4118 14.6061 18.8712 14.6061C18.9556 14.6061 19.0399 14.6159 19.1149 14.6257C19.1899 14.2723 19.3681 13.5361 20.0899 13.5361H20.1931C20.5399 13.5754 20.8024 13.8012 20.9056 14.1447C21.0181 14.0858 21.1493 14.0368 21.2993 14.0368C21.5243 14.0368 21.7399 14.1349 21.8993 14.3116C22.1524 14.5963 22.2087 14.9889 22.0493 15.3619C22.2181 15.4699 22.3493 15.6368 22.4056 15.8527C22.4806 16.1276 22.4337 16.422 22.2649 16.6576C21.9368 17.1386 21.1774 17.3644 20.5774 17.384C20.5399 17.4233 20.5212 17.4233 20.5024 17.4233ZM19.7524 1.25639C19.0681 1.70793 18.3181 2.7386 17.3993 4.1521C17.2587 4.37786 17.0243 4.49565 16.7618 4.49565C16.4243 4.49565 15.9931 4.2797 15.4962 3.85762C14.7087 3.19013 14.6899 2.81713 14.6806 2.66989C14.6618 2.27725 14.9431 1.94351 15.3368 1.90424C16.0962 1.83553 16.7243 1.35455 17.3337 0.893201C17.9431 0.431852 18.5056 0.00976562 19.1806 0.00976562C19.3118 0.00976562 19.4524 0.0293975 19.5837 0.0588454" fill="white"/>
<path d="M15.394 2.56162C17.2315 2.38493 18.3096 0.392295 19.4253 0.69659C18.6753 1.18739 17.9346 2.16898 16.894 3.7788C16.6409 4.16162 14.8878 2.6107 15.394 2.56162Z" fill="#FFF8EE"/>
<path d="M3.48828 1.64908C3.94766 1.20736 4.56641 0.981595 5.32578 0.981595C5.98203 0.981595 6.76016 1.14847 7.63203 1.48221C7.86641 1.57055 8.17578 1.59018 8.41016 1.59018H8.75703C8.97266 1.59018 9.43203 1.59018 9.62891 2.0319C9.69453 2.19877 9.77891 2.54233 9.52578 2.94479C9.21641 3.4454 8.40078 3.97546 7.61328 3.97546H7.57578C7.15391 3.96564 6.76016 3.73006 6.30078 3.46503C5.72891 3.13129 5.08203 2.74847 4.31328 2.74847C4.21016 2.74847 4.09766 2.75828 3.99453 2.7681M17.6258 6.40982C17.2883 6.40982 16.6508 6.26258 16.2477 5.26135C16.0227 4.73129 15.9477 4.13251 15.9477 3.79877C15.9477 3.11166 16.2945 2.92515 16.5102 2.87607C16.6602 2.71902 16.9414 2.31656 17.1477 2.01227C18.0008 0.795092 18.6195 0 19.3414 0C19.4633 0 19.5758 0.0196318 19.6883 0.0687115C20.6539 0.471166 21.1227 1.32515 20.9633 2.40491C20.8508 3.2 20.3727 4.14233 19.6695 5.00613C19.3414 5.40859 18.4883 6.35092 17.7289 6.40982H17.6258Z" fill="white"/>
<path d="M6.54413 6.78327C6.45976 6.78327 6.37538 6.78327 6.30038 6.76364C5.10038 6.5575 3.60038 5.29124 3.03788 3.98572C2.65351 3.09247 2.82226 2.48388 3.03788 2.13051C3.38476 1.55136 3.90038 1.24707 4.53788 1.24707C5.30663 1.24707 6.07538 1.68879 6.75038 2.07161C7.01288 2.21885 7.38788 2.4348 7.54726 2.47406C7.60351 2.45443 7.65976 2.44462 7.72538 2.44462C7.96913 2.44462 8.19413 2.58204 8.32538 2.81762C8.63476 3.38695 8.44726 4.91824 7.95976 5.80167C7.62226 6.44952 7.11601 6.78327 6.54413 6.78327Z" fill="white"/>
<path d="M10.7242 17.7371C7.91167 17.7371 5.12729 16.2941 4.19917 15.2438C3.23354 14.1542 2.88667 12.9174 3.14917 11.5628C3.37417 10.4536 3.96479 9.46222 4.48042 8.57879C4.83667 7.9702 5.17417 7.40088 5.26792 6.98861C6.41167 1.69781 9.28042 1.02051 11.6523 1.02051C11.8023 1.02051 11.9617 1.02051 12.1398 1.03032C17.1929 1.18738 17.6992 3.73953 17.9992 5.27081C18.0554 5.55548 18.1117 5.82051 18.1773 5.99719C19.8742 10.3555 20.1554 12.9665 19.1148 14.7334C18.0929 16.4708 15.8523 17.3248 11.3898 17.7076C11.1742 17.7273 10.9492 17.7371 10.7242 17.7371Z" fill="white"/>
<path d="M10.6214 17.7469C7.75268 17.7469 5.09956 16.2549 4.20893 15.2438C3.24331 14.1542 2.89643 12.9174 3.15893 11.5628C3.38393 10.4536 3.97456 9.46222 4.49018 8.57879C4.84643 7.9702 5.18393 7.40088 5.27768 6.98861C6.42143 1.69781 9.29018 1.02051 11.6621 1.02051C11.8121 1.02051 11.9714 1.02051 12.1496 1.03032C17.2027 1.18738 17.7089 3.73953 18.0089 5.27081C18.0652 5.55548 18.1214 5.82051 18.1871 5.99719C19.8558 10.2868 20.1277 12.8782 19.1058 14.645C17.9339 16.6769 15.1777 17.3346 11.4089 17.7076C11.1464 17.7371 10.8839 17.7469 10.6214 17.7469Z" fill="white"/>
<path d="M17.9255 14.056C17.963 13.9676 18.0005 13.8695 18.038 13.7811C18.4223 12.8192 18.713 11.975 18.2536 11.4351C17.7098 10.8069 15.413 9.66826 13.3692 8.66703C9.45983 6.73329 7.04108 5.48666 6.6942 4.24985C6.60983 3.93574 6.64733 3.61182 6.8067 3.33697C7.4817 2.22777 9.36608 1.04004 11.9442 1.04004H12.0192C14.4473 1.05967 16.2098 1.79587 17.2692 3.20936C18.1692 4.40691 18.3661 5.81059 18.5161 6.83145C18.563 7.17501 18.6286 7.61673 18.6942 7.73452C20.5317 11.0425 19.688 13.4867 19.0223 14.6351L17.9255 14.056Z" fill="white"/>
<path d="M16.0029 10.2482C15.056 10.2482 13.4716 10.0028 12.9279 9.45312C12.4966 9.02122 12.3373 8.30465 12.1685 7.60772C12.1029 7.31324 11.9904 6.84207 11.8873 6.62612H11.8779C11.8404 6.7341 11.7935 6.87152 11.756 6.9795C11.5029 7.72551 11.1466 8.75619 10.406 9.31569C10.0873 9.56109 8.93413 9.77704 8.04351 9.77704C7.15288 9.77704 6.47788 9.58073 6.02788 9.17827C5.38101 8.60895 4.89351 7.55864 4.56538 6.0568C4.54663 6.04698 4.53726 6.03717 4.51851 6.02735C4.36851 5.91938 4.17163 5.79177 4.06851 5.566C3.89976 5.21263 3.96538 4.58441 4.14351 4.25066C4.27476 4.00526 4.49976 3.84821 4.74351 3.82858H4.82788C4.95913 3.82858 5.09038 3.84821 5.24038 3.87766C5.39038 3.90711 5.56851 3.93655 5.71851 3.93655H5.80288C6.69351 3.79913 7.52788 3.74023 8.28726 3.74023C10.1341 3.74023 11.1091 4.13287 11.4748 4.28993C11.5029 4.29974 11.531 4.30956 11.5498 4.31938C11.6529 4.34882 11.8498 4.38809 12.056 4.38809C12.131 4.38809 12.206 4.38809 12.2716 4.36846C13.106 4.23103 13.9029 4.17214 14.6341 4.17214C16.5841 4.17214 17.6154 4.63349 18.0654 4.83962C18.1029 4.85925 18.1404 4.87888 18.1685 4.87888H18.206C18.3279 4.87888 18.506 4.83962 18.656 4.81017C18.7685 4.78073 18.881 4.76109 18.9841 4.74146H19.0685C19.3591 4.74146 19.6216 4.91815 19.781 5.21263C19.9591 5.55619 20.081 6.27275 19.8279 6.68502C19.6591 6.95987 19.3873 7.08747 19.1623 7.19545C19.1341 7.20526 19.0966 7.2249 19.0685 7.24453C18.9935 7.38195 18.8623 7.6568 18.7498 7.88257C18.4216 8.55005 18.056 9.31569 17.7185 9.72796C17.4185 10.0813 16.856 10.2482 16.0029 10.2482Z" fill="white"/>
<g opacity="0.3">
<path d="M15.6265 10.0893C14.8765 10.0893 13.8171 9.97152 13.0577 9.41201C12.6265 9.08809 12.4296 8.44023 12.1577 7.39974C12.0827 7.10526 11.9702 6.69299 11.8859 6.48686C11.839 6.60465 11.7827 6.76171 11.7359 6.88931C11.4546 7.6844 11.0702 8.76416 10.3671 9.21569C10.0015 9.45128 8.86712 9.66723 7.98587 9.66723C7.039 9.66723 6.35462 9.44146 5.96087 9.00956C4.95775 7.91017 4.76087 6.85987 4.639 6.24146C4.62025 6.15312 4.6015 6.03533 4.58275 5.96661C3.99212 5.64269 3.95462 5.16171 3.964 4.95557C3.99212 4.57275 4.27337 4.28809 4.62025 4.28809C4.85462 4.28809 5.00462 4.40588 5.11712 4.4844C5.1265 4.49422 5.13587 4.50404 5.15462 4.50404C5.164 4.50404 5.19212 4.51385 5.2015 4.52367C5.3515 4.57275 5.79212 4.70036 5.88587 5.29913C5.90462 5.4071 6.05462 6.03533 6.29837 6.69299C6.68275 7.7433 6.95462 7.91999 6.98275 7.9298C7.3015 8.0476 7.6765 8.10649 8.09837 8.10649C8.79212 8.10649 9.37337 7.94944 9.60775 7.87091C9.74837 7.64514 10.0296 7.05618 10.2265 6.65373C10.8171 5.42674 10.9202 5.24023 11.1734 5.10281C11.314 5.02428 11.4827 4.98502 11.6984 4.98502C11.9796 4.98502 12.3827 5.05373 12.5702 5.14207C13.0015 5.33839 13.2265 5.92735 13.7327 7.44882C13.8265 7.72367 13.939 8.07704 14.014 8.25373C14.389 8.44023 15.2421 8.56784 16.1327 8.56784C16.3859 8.56784 16.5734 8.55802 16.6952 8.54821C16.7796 8.36171 16.9015 8.09667 17.0046 7.87091C17.7171 6.28072 17.8296 6.09422 18.0077 5.94698C18.3171 5.70158 18.8609 5.53471 19.1702 5.53471C19.5827 5.53471 19.8077 5.81937 19.864 6.09422C19.9671 6.66355 19.4327 6.8795 19.2546 6.94821C19.2077 6.96784 19.1421 6.99729 19.0952 7.01692C19.0296 7.13471 18.9077 7.38993 18.814 7.59606C18.0452 9.16661 17.7921 9.59851 17.5015 9.78502C17.1452 9.99115 16.2827 10.0893 15.6265 10.0893Z" fill="white"/>
</g>
<g opacity="0.3">
<path d="M5.74609 5.43984C5.63359 5.43984 5.41797 5.42021 4.98672 5.27297C4.87422 5.23371 4.77109 5.19444 4.70547 5.165C4.56484 5.1061 4.19922 4.95886 4.19922 4.50733V3.84966H4.81797C4.90234 3.84966 4.95859 3.86929 5.00547 3.87911C5.13672 3.89874 5.55859 3.92819 5.69922 3.938L5.78359 3.94782C5.89609 3.94782 6.24297 3.89874 6.39297 3.87911C6.58047 3.84966 6.63672 3.83984 6.71172 3.83984H7.24609L7.33047 4.38954C7.36797 4.66438 7.22734 5.00794 6.88047 5.11592C6.86172 5.12573 6.79609 5.14537 6.73984 5.165C6.41172 5.2926 6.08359 5.4104 5.80234 5.42021C5.78359 5.43984 5.76484 5.43984 5.74609 5.43984Z" fill="white"/>
</g>
<g opacity="0.3">
<path d="M18.1309 6.3817C17.9246 6.3817 17.7184 6.29336 17.4371 6.08722C17.1652 5.89091 16.959 5.69459 16.959 5.35103V4.69336H17.5684C17.6527 4.69336 17.7371 4.71299 17.8215 4.75225C17.8871 4.7817 18.1402 4.87005 18.2527 4.89949C18.2902 4.89949 18.3652 4.87986 18.5152 4.85041C18.5902 4.83078 18.6371 4.83078 18.7027 4.83078H19.2371L19.3215 5.38048C19.359 5.64551 19.2465 5.97925 18.8996 6.10686L18.7871 6.16575C18.6184 6.2541 18.4215 6.35226 18.2246 6.39152C18.2059 6.3817 18.1684 6.3817 18.1309 6.3817Z" fill="white"/>
</g>
<path d="M16.0875 20.8H13.7812V18.7092H16.0875V20.8Z" fill="white"/>
<path d="M17.1371 15.5784C17.0527 15.4606 16.959 15.3526 16.8559 15.2544L16.7902 15.1857C16.7902 15.1857 16.7809 15.1857 16.7715 15.1759C16.7246 15.1563 16.659 15.1465 16.5934 15.1366C16.3215 15.0974 16.0309 15.0876 15.7402 15.0777C15.1496 15.0679 14.559 15.0876 13.9684 15.117C12.7871 15.1759 11.5965 15.2741 10.4246 15.4115C9.83398 15.4802 9.24336 15.5587 8.66211 15.6569C8.37148 15.706 8.08086 15.755 7.79961 15.8238C7.65898 15.8532 7.51836 15.8925 7.38711 15.9317C7.32148 15.9514 7.25586 15.971 7.19961 16.0004C7.17148 16.0103 7.14336 16.0201 7.13398 16.0397C7.13398 16.0397 7.12461 16.0397 7.12461 16.0495C7.05898 16.1477 6.99336 16.2458 6.92773 16.3538C6.86211 16.4618 6.81523 16.5796 6.75898 16.6974C6.65586 16.933 6.56211 17.1784 6.47773 17.4238C6.39336 17.6692 6.29961 17.9244 6.21523 18.1796C6.16836 18.3072 6.12148 18.4348 6.06523 18.5624C6.04648 18.6213 6.01836 18.6802 5.99023 18.7391H6.78711C7.21836 17.7281 8.03398 16.5698 8.70898 16.2851C8.89648 16.2066 11.9152 15.8139 13.9121 15.8139C14.6527 15.8139 15.159 15.8728 15.4402 15.9808C16.2559 16.3146 17.8871 17.8949 18.0559 18.7489H18.5152C18.4215 18.209 18.234 17.679 18.0184 17.1685C17.7746 16.5796 17.484 16.0397 17.1371 15.5784Z" fill="#BA8449"/>
<path d="M18.4504 16.9231C18.1973 16.3341 17.9066 15.7746 17.5223 15.2642C17.4285 15.1366 17.3254 15.009 17.2129 14.8912L17.1285 14.8028L17.1098 14.7832L17.1004 14.7734L17.0816 14.7538C17.0629 14.7439 17.0441 14.7341 17.0348 14.7243C17.0066 14.7047 16.9785 14.6949 16.9504 14.685C16.8473 14.6458 16.7723 14.636 16.6879 14.6163C16.3691 14.5673 16.0691 14.5574 15.7691 14.5476C15.1598 14.5378 14.5691 14.5476 13.9691 14.5771C12.7691 14.6262 11.5785 14.7243 10.3879 14.8519C9.79727 14.9206 9.19727 14.9893 8.59727 15.0875C8.29727 15.1366 8.00664 15.1857 7.70664 15.2544C7.55664 15.2936 7.40664 15.3231 7.25664 15.3722C7.18164 15.3918 7.10664 15.4212 7.02227 15.4605C6.98477 15.4801 6.93789 15.4998 6.89102 15.5292C6.87227 15.5489 6.84414 15.5587 6.81602 15.5783C6.78789 15.5979 6.75977 15.6274 6.72227 15.6765C6.63789 15.7844 6.55352 15.912 6.47852 16.0298C6.40352 16.1476 6.32852 16.2752 6.26289 16.4028C6.13164 16.6482 6.00977 16.9035 5.89727 17.1587C5.79414 17.4139 5.69102 17.6691 5.60664 17.9341C5.55977 18.0617 5.52227 18.1893 5.49414 18.3268C5.47539 18.3955 5.45664 18.4544 5.43789 18.5231L5.40977 18.6212L5.40039 18.6703C5.40039 18.6801 5.41914 18.69 5.45664 18.7194H6.00977C6.03789 18.6605 6.05664 18.6016 6.08477 18.5427C6.13164 18.4151 6.18789 18.2875 6.23477 18.1697C6.32852 17.9145 6.41289 17.6691 6.49727 17.4139C6.58164 17.1685 6.67539 16.9133 6.77852 16.6875C6.83477 16.5697 6.89102 16.4617 6.94727 16.3439C7.01289 16.236 7.06914 16.1378 7.14414 16.0397C7.14414 16.0397 7.15352 16.0397 7.15352 16.0298C7.17227 16.02 7.20039 16.0102 7.21914 15.9906C7.27539 15.9709 7.34102 15.9415 7.40664 15.9219C7.53789 15.8826 7.67852 15.8433 7.81914 15.8139C8.10039 15.7452 8.39102 15.6961 8.68164 15.647C9.26289 15.5489 9.85352 15.4703 10.4441 15.4016C11.6254 15.2642 12.8066 15.166 13.9879 15.1071C14.5785 15.0777 15.1691 15.0581 15.7598 15.0679C16.0504 15.0777 16.3504 15.0875 16.6129 15.1268C16.6785 15.1366 16.7441 15.1562 16.791 15.166C16.8004 15.166 16.8098 15.166 16.8098 15.1758L16.8754 15.2446C16.9785 15.3525 17.0629 15.4605 17.1566 15.5685C17.5035 16.0298 17.7941 16.5697 18.0379 17.1194C18.2535 17.6298 18.441 18.1599 18.5348 18.6998H19.0035C18.9566 18.3955 18.8816 18.101 18.7973 17.8163C18.6848 17.512 18.5723 17.2176 18.4504 16.9231Z" fill="#895B2E"/>
<path d="M15.3758 16.1278C15.132 16.0296 14.6352 15.9707 13.9227 15.9707C11.9164 15.9707 8.95391 16.3633 8.79453 16.4321C8.18516 16.6873 7.42578 17.767 7.00391 18.7094H17.8695C17.6914 17.9732 16.182 16.4615 15.3758 16.1278Z" fill="#FFF8EE"/>
<path d="M15.4402 15.9413C15.1684 15.8333 14.6527 15.7744 13.9121 15.7744C11.9152 15.7744 8.89648 16.1671 8.70898 16.2456C8.02461 16.5401 7.21836 17.6885 6.78711 18.6996H6.99336C7.41523 17.7671 8.17461 16.6873 8.78398 16.4223C8.94336 16.3536 11.9059 15.9609 13.9121 15.9609C14.6246 15.9609 15.1215 16.01 15.3652 16.118C16.1715 16.4419 17.6809 17.9634 17.859 18.6996H18.0465C17.8871 17.8554 16.2559 16.275 15.4402 15.9413Z" fill="#E5D0AE"/>
<path d="M19.1527 16.0298C19.0402 16.2752 18.4496 16.9034 17.9527 16.7562C17.6902 16.6776 17.7371 18.1304 18.3371 18.7095H19.4246C19.7246 18.2089 20.1934 16.6776 20.2496 16.5206C20.3152 16.3341 19.2652 15.7844 19.1527 16.0298Z" fill="#BA8449"/>
<path d="M20.307 16.3923C20.2883 16.0782 20.1102 15.8524 19.7914 15.7739C19.5383 15.715 19.2008 15.7641 19.1164 15.931C18.9477 16.2647 18.7414 16.6671 17.7195 16.726C17.6539 16.726 17.5977 16.7948 17.5977 16.8635C17.5977 16.9322 17.6633 16.9911 17.7289 16.9911C18.7977 16.942 19.107 16.5101 19.332 16.0684C19.3789 16.0291 19.632 15.98 19.8383 16.0684C19.9883 16.1371 20.0539 16.2451 20.0633 16.4119C20.0914 17.0205 19.482 18.1494 19.1539 18.7187H19.4445C19.8102 18.0512 20.3352 17.0205 20.307 16.3923Z" fill="#895B2E"/>
<g opacity="0.15">
<path d="M18.1997 18.7384C18.8653 18.5715 19.4559 17.8746 19.5028 16.8832C19.5122 16.6967 19.1466 16.3433 19.1466 16.2451C19.1466 16.147 20.2622 16.2648 20.3184 16.5396C20.3653 16.8145 19.6247 18.4733 19.3716 18.7482C19.1278 19.0132 17.8059 18.8365 18.1997 18.7384Z" fill="#E3AB5E"/>
</g>
<path d="M18.7212 15.3522C18.6369 15.9608 19.7712 16.7951 20.54 16.7755C21.1775 16.7559 21.8994 16.4418 21.7962 16.0687C21.6931 15.6859 21.0744 16.1375 21.0181 15.8724C20.9712 15.6172 21.74 15.1362 21.4306 14.7829C21.14 14.4589 20.8025 15.2933 20.465 15.1755C20.1275 15.0577 20.5306 14.243 20.1087 14.1939C19.6119 14.1448 19.7994 15.3031 19.4244 15.3227C19.1619 15.3522 18.7494 15.1559 18.7212 15.3522Z" fill="#FCD4C3"/>
<path d="M18.7212 15.3522C18.6369 15.9608 19.7712 16.7951 20.54 16.7755C21.1775 16.7559 21.8994 16.4418 21.7962 16.0687C21.6931 15.6859 21.0744 16.1375 21.0181 15.8724C20.9712 15.6172 21.74 15.1362 21.4306 14.7829C21.14 14.4589 20.8025 15.2933 20.465 15.1755C20.1275 15.0577 20.5306 14.243 20.1087 14.1939C19.6119 14.1448 19.7994 15.3031 19.4244 15.3227C19.1619 15.3522 18.7494 15.1559 18.7212 15.3522V15.3522Z" stroke="#F8A38F" stroke-width="2" stroke-miterlimit="10"/>
<g opacity="0.5">
<path d="M19.0449 15.3463C19.1668 15.4444 19.6074 15.572 19.673 15.4052C19.748 15.2383 19.8043 14.9045 19.7574 14.8555C19.7199 15.0125 19.673 15.307 19.5137 15.3757C19.3918 15.4248 19.1293 15.3659 19.0449 15.3463Z" fill="#FCD4C3"/>
</g>
<g opacity="0.5">
<path d="M20.2551 14.6982C20.2364 14.8062 20.152 15.3166 20.4051 15.3854C20.6207 15.4443 20.7801 15.3068 20.9489 15.0222C20.8551 15.1105 20.6207 15.3265 20.4426 15.2479C20.2645 15.1596 20.2457 14.9633 20.2551 14.6982Z" fill="#FCD4C3"/>
</g>
<g opacity="0.25">
<path d="M19.1699 16.0743C20.4449 15.4166 20.7074 16.4866 20.6418 16.7025C20.1355 16.7909 19.2449 16.2412 19.1699 16.0743Z" fill="#FCD4C3"/>
</g>
<g opacity="0.5">
<path d="M21.0243 15.6562C20.8086 15.9115 20.9118 16.1176 21.0524 16.147C21.2305 16.1863 21.4649 15.99 21.4274 15.99C21.3805 15.99 21.0336 16.1078 20.968 15.9311C20.9211 15.7937 20.9961 15.7151 21.0243 15.6562Z" fill="#FCD4C3"/>
</g>
<g opacity="0.15">
<path d="M6.4619 17.3613C10.5588 19.8251 18.6869 17.322 18.2556 16.5171C17.6838 15.4472 17.4588 14.7797 16.2025 14.8386C14.9556 14.9073 6.93065 15.5748 6.60252 15.83C6.28377 16.095 5.92752 17.0373 6.4619 17.3613Z" fill="#E3AB5E"/>
</g>
<path d="M15.394 2.56162C17.2315 2.38493 18.3096 0.392295 19.4253 0.69659C18.6753 1.18739 17.9346 2.16898 16.894 3.7788C16.6409 4.16162 14.8878 2.6107 15.394 2.56162Z" fill="#FFF8EE"/>
<path d="M15.394 2.56162C17.2315 2.38493 18.3096 0.392295 19.4253 0.69659C18.6753 1.18739 17.9346 2.16898 16.894 3.7788C16.6409 4.16162 14.8878 2.6107 15.394 2.56162V2.56162Z" stroke="#E5D0AE" stroke-width="3" stroke-miterlimit="10" stroke-linecap="round" stroke-linejoin="round"/>
<path d="M3.91016 2.13007C4.73516 1.32516 6.22578 1.63927 7.42578 2.09081C8.11016 2.34602 9.00078 2.13989 9.05703 2.28713C9.20703 2.63069 8.31641 3.33743 7.58516 3.3178C6.86328 3.30799 5.65391 1.88467 3.91016 2.13007Z" fill="#BA8449"/>
<path d="M3.91016 2.13007C4.73516 1.32516 6.22578 1.63927 7.42578 2.09081C8.11016 2.34602 9.00078 2.13989 9.05703 2.28713C9.20703 2.63069 8.31641 3.33743 7.58516 3.3178C6.86328 3.30799 5.65391 1.88467 3.91016 2.13007V2.13007Z" stroke="#895B2E" stroke-width="2" stroke-miterlimit="10" stroke-linecap="round" stroke-linejoin="round"/>
<path d="M16.6497 3.51455C17.0716 3.64216 18.6747 0.353812 19.4529 0.677738C21.9279 1.70841 18.7029 5.67406 17.681 5.7624C16.6497 5.84093 16.4154 3.43602 16.6497 3.51455Z" fill="#FCD4C3"/>
<path d="M16.6497 3.51455C17.0716 3.64216 18.6747 0.353812 19.4529 0.677738C21.9279 1.70841 18.7029 5.67406 17.681 5.7624C16.6497 5.84093 16.4154 3.43602 16.6497 3.51455V3.51455Z" stroke="#F8A38F" stroke-width="2" stroke-miterlimit="10"/>
<path d="M7.70668 3.12106C7.0223 3.43517 4.59418 0.775049 3.5723 2.48302C2.8973 3.61186 4.94105 5.88916 6.40355 6.13456C7.86605 6.37996 8.06293 2.95419 7.70668 3.12106Z" fill="#FCD4C3"/>
<path d="M7.70668 3.12106C7.0223 3.43517 4.59418 0.775049 3.5723 2.48302C2.8973 3.61186 4.94105 5.88916 6.40355 6.13456C7.86605 6.37996 8.06293 2.95419 7.70668 3.12106V3.12106Z" stroke="#F8A38F" stroke-width="2" stroke-miterlimit="10"/>
<path d="M18.559 1.31543C18.4277 1.76696 17.3215 2.93506 17.4715 3.93629C17.5277 4.30929 17.9027 5.40868 18.0621 5.36942C18.2215 5.33015 18.6246 5.06512 18.5871 5.12402C18.5496 5.18291 18.0246 5.58537 17.8277 5.69334C17.6308 5.58537 16.7965 3.55347 16.9183 3.44549C17.284 3.10193 18.3996 1.33506 18.559 1.31543Z" fill="#FCD4C3"/>
<path d="M3.60352 2.55213C4.35352 2.07114 5.72227 2.27728 6.51914 3.092C6.80039 3.38648 6.88477 4.36808 6.24727 5.03556C5.99414 5.30059 7.74727 4.09323 7.75664 3.73986C7.75664 3.38648 7.64414 3.28832 7.38164 3.19016C6.41602 2.81716 5.40352 1.95335 4.52227 1.97299C3.95039 1.9828 3.68789 2.39507 3.60352 2.55213Z" fill="#FCD4C3"/>
<g opacity="0.25">
<path d="M18.8624 1.05772C20.5687 2.03931 17.8218 3.53134 18.0281 5.38655C17.6718 5.34729 16.7906 3.55097 17.0062 3.39391C17.3062 3.17796 18.5718 0.97919 18.8624 1.05772Z" fill="#FCD4C3"/>
</g>
<path d="M5.70088 7.08702C5.72901 6.95941 5.74776 6.82199 5.74776 6.69438C5.75713 6.55696 5.76651 6.41954 5.79463 6.29193C5.80401 6.22322 5.82276 6.1545 5.85088 6.09561C5.87901 6.03671 5.89776 5.968 5.91651 5.90911C5.96338 5.7815 6.01026 5.65389 6.06651 5.5361C6.28213 5.03549 6.52588 4.56432 6.82588 4.1226C7.12588 3.68089 7.45401 3.26862 7.82901 2.91524C8.20401 2.55205 8.64463 2.25757 9.11338 2.06125C9.58213 1.85512 10.0884 1.72751 10.5946 1.66862C11.1009 1.5999 11.6071 1.59009 12.1134 1.5999C12.6196 1.60972 13.1259 1.63917 13.6321 1.70788C14.1384 1.77659 14.6446 1.89438 15.1321 2.08088C15.3759 2.17904 15.6103 2.28702 15.8353 2.42444C16.0603 2.56187 16.2759 2.72874 16.4728 2.92506C16.6696 3.11156 16.8384 3.33733 16.979 3.57291C17.1196 3.80849 17.2228 4.06371 17.3165 4.32874C17.4009 4.58395 17.4665 4.84898 17.5228 5.11401C17.579 5.37904 17.6165 5.63426 17.6728 5.87966C17.7009 5.99745 17.7384 6.11524 17.7759 6.23303C17.8228 6.35082 17.8696 6.47843 17.9071 6.60604C17.9915 6.85144 18.0853 7.10665 18.1696 7.35205C18.4978 8.35328 18.7884 9.37414 18.9665 10.4146C19.0509 10.9349 19.1165 11.4649 19.1259 11.995C19.1353 12.5251 19.0884 13.0551 18.9478 13.5655C18.9103 13.6932 18.8728 13.8208 18.8259 13.9386C18.779 14.0563 18.7134 14.1741 18.6759 14.3017C18.6571 14.3705 18.6384 14.4294 18.6103 14.4882C18.5821 14.5471 18.5446 14.606 18.5071 14.6649C18.4415 14.7729 18.3571 14.8907 18.2728 14.9889C17.9446 15.4011 17.5228 15.7349 17.0728 15.9901C16.6228 16.2453 16.1353 16.4416 15.6478 16.5889C15.1509 16.7361 14.6634 16.8539 14.1571 16.9521C13.6509 17.0502 13.154 17.1189 12.6571 17.1876L11.8978 17.276L11.5228 17.3152C11.4009 17.3251 11.2696 17.3349 11.1384 17.3447C10.1071 17.4036 9.07588 17.2465 8.09151 16.9619C7.59463 16.8146 7.11651 16.6379 6.64776 16.422C6.17901 16.206 5.71963 15.9606 5.28838 15.6662C5.07276 15.5189 4.85713 15.3521 4.66026 15.1655C4.61338 15.1165 4.55713 15.0674 4.51026 15.0183C4.46338 14.9692 4.42588 14.9103 4.37901 14.8613C4.29463 14.7533 4.21026 14.6453 4.13526 14.5373C3.84463 14.0858 3.61026 13.5557 3.53526 13.006C3.45088 12.4465 3.52588 11.8772 3.67588 11.357C3.82588 10.8269 4.06026 10.3459 4.30401 9.87475C4.55713 9.4134 4.82901 8.96187 5.09151 8.52015C5.22276 8.29438 5.34463 8.06862 5.45713 7.84285C5.56026 7.54837 5.65401 7.3226 5.70088 7.08702ZM6.07588 7.17536C6.01026 7.45021 5.89776 7.70543 5.77588 7.95082C5.65401 8.19622 5.52276 8.42199 5.39151 8.64776C5.12901 9.09929 4.85713 9.54101 4.62276 9.99254C4.38838 10.4441 4.17276 10.9152 4.04151 11.3962C3.91026 11.8772 3.85401 12.3778 3.92901 12.8686C4.00401 13.3496 4.20088 13.8109 4.48213 14.2134C4.54776 14.3116 4.63213 14.4097 4.70713 14.5079C4.74463 14.557 4.79151 14.606 4.82901 14.6453C4.86651 14.6944 4.91338 14.7336 4.95088 14.7729C5.11963 14.9398 5.31651 15.087 5.52276 15.2343C5.93526 15.5091 6.36651 15.7545 6.82588 15.9606C7.27588 16.1668 7.74463 16.3435 8.22276 16.4809C8.70088 16.6183 9.17901 16.7263 9.66651 16.795C10.154 16.8637 10.6415 16.8833 11.129 16.8637L11.4946 16.8343L11.8696 16.795C12.1134 16.7754 12.3665 16.7459 12.6196 16.7165C13.1165 16.6674 13.6134 16.5987 14.1009 16.5103C14.5978 16.422 15.0759 16.3238 15.554 16.1864C16.0321 16.049 16.5009 15.8919 16.9509 15.6858C17.3915 15.4698 17.8228 15.2048 18.1696 14.8416C18.254 14.7533 18.3384 14.6551 18.4134 14.557C18.4509 14.5079 18.4884 14.449 18.5259 14.3999C18.5634 14.3508 18.6103 14.3017 18.6478 14.2428C18.7321 14.1349 18.7696 14.0171 18.8259 13.8993C18.8728 13.7815 18.9103 13.6539 18.9384 13.5263C19.0603 13.0159 19.0884 12.4858 19.0603 11.9655C19.0228 11.4453 18.9384 10.9251 18.8165 10.4146C18.5821 9.39377 18.2353 8.41217 17.8696 7.44039C17.7759 7.195 17.6821 6.9496 17.5884 6.71401L17.4384 6.35082C17.3915 6.22322 17.3446 6.08579 17.3071 5.95819C17.2415 5.69315 17.1946 5.43794 17.1384 5.18273C17.0915 4.92751 17.0259 4.68211 16.9509 4.44653C16.7915 3.96555 16.5571 3.53365 16.2103 3.19009C15.8728 2.84653 15.4509 2.5815 15.0009 2.38518C14.5509 2.18886 14.0634 2.06125 13.5759 1.97291C13.0884 1.88457 12.5915 1.83549 12.0946 1.80604C11.5978 1.78641 11.0915 1.77659 10.5946 1.83549C10.0978 1.89438 9.61026 2.00236 9.15088 2.20849C8.69151 2.40481 8.26963 2.68947 7.91338 3.04285C7.54776 3.39622 7.25713 3.82812 7.04151 4.27966C6.81651 4.74101 6.65713 5.23181 6.51651 5.7226C6.47901 5.84039 6.45088 5.968 6.42276 6.09561C6.40401 6.1545 6.39463 6.22322 6.37588 6.28211C6.36651 6.31156 6.36651 6.35082 6.35713 6.38027C6.34776 6.40972 6.33838 6.43917 6.31963 6.46862C6.27276 6.58641 6.21651 6.7042 6.16026 6.82199C6.14151 6.92997 6.10401 7.04776 6.07588 7.17536Z" fill="#E5D0AE"/>
<path d="M5.88741 7.13662C5.49366 8.96239 2.05304 11.8483 4.66866 14.8029C5.55929 15.8041 8.44678 17.3452 11.3437 17.0605C18.8812 16.3145 20.7843 14.4102 17.6062 6.24337C17.0905 4.91822 17.6718 1.85564 12.1312 1.67896C9.80616 1.61024 7.01241 1.94399 5.88741 7.13662Z" fill="#FFF8EE"/>
<path d="M7.18989 3.56356C7.43364 3.17092 7.75239 2.84699 8.10864 2.58196C8.46489 2.31693 8.86801 2.12061 9.27114 1.96356C10.0961 1.64945 10.9586 1.53165 11.8211 1.50221C12.6836 1.48257 13.5555 1.55129 14.3993 1.77705C14.8211 1.89484 15.2336 2.0519 15.6274 2.27767C16.0211 2.50343 16.3868 2.77828 16.6961 3.12184C17.0055 3.4654 17.2586 3.84822 17.4555 4.2703C17.6524 4.69239 17.793 5.13411 17.8961 5.57583C17.9993 6.02736 18.0649 6.46908 18.1211 6.9108C18.1493 7.13656 18.1774 7.35251 18.2243 7.55865C18.243 7.66662 18.2711 7.76478 18.2993 7.84331L18.3274 7.90221L18.3368 7.91202L18.3461 7.92184L18.3649 7.9611L18.4493 8.10834C18.8618 8.90343 19.1711 9.77705 19.2836 10.6899C19.3399 11.1415 19.3493 11.6028 19.3024 12.0642C19.2555 12.5157 19.143 12.9672 18.9743 13.3893C18.8899 13.5955 18.7961 13.8016 18.6836 14.0077L18.5993 14.155C18.5711 14.204 18.543 14.2433 18.5055 14.3022C18.4961 14.312 18.4961 14.3218 18.4868 14.3317C18.4586 14.312 18.5243 14.4004 18.3368 14.3317C18.2899 14.2433 18.318 14.2629 18.3086 14.2433C18.3086 14.2139 18.318 14.204 18.318 14.1844L18.3461 14.0961L18.393 13.939C18.5243 13.5169 18.6368 13.0948 18.6836 12.6531C18.7024 12.4372 18.7118 12.2212 18.6836 11.9955C18.6555 11.7795 18.5993 11.5734 18.4961 11.3967C18.468 11.3476 18.4399 11.3083 18.4024 11.2691C18.3649 11.2298 18.3368 11.1905 18.2993 11.1513C18.2243 11.0728 18.1493 11.004 18.0649 10.9353C17.8961 10.7979 17.718 10.6899 17.5305 10.5918C17.1461 10.4151 16.7243 10.3464 16.3118 10.366C15.8899 10.3856 15.4774 10.474 15.0743 10.5918C14.868 10.6507 14.6711 10.7194 14.4649 10.7881C14.3618 10.8274 14.2586 10.8568 14.1555 10.8863C14.0993 10.9059 14.0524 10.9157 13.9868 10.9255C13.9305 10.9353 13.8836 10.9452 13.8274 10.9452C13.3961 10.9942 12.9743 11.0237 12.5336 11.0139C12.1024 11.004 11.6711 10.955 11.2399 10.8568C10.818 10.7586 10.3961 10.6114 10.0024 10.4249C9.60864 10.2286 9.23364 9.993 8.89614 9.69853C8.55864 9.40405 8.25864 9.0703 7.99614 8.70711C7.47114 7.97092 7.12426 7.11693 6.95551 6.22368C6.87114 5.77215 6.83364 5.32061 6.85239 4.85926C6.86176 4.6335 6.88989 4.39791 6.93676 4.17215C6.99301 3.99546 7.06801 3.76969 7.18989 3.56356ZM7.37739 3.69116C7.27426 3.86785 7.20864 4.06417 7.16176 4.28012C7.11489 4.48626 7.09614 4.70221 7.07739 4.91816C7.05864 5.35006 7.10551 5.79178 7.18989 6.21386C7.36801 7.06785 7.71489 7.88257 8.22114 8.56969C8.47426 8.91325 8.76489 9.22736 9.08364 9.50221C9.40239 9.77705 9.75864 10.0126 10.1336 10.1991C10.5086 10.3856 10.9024 10.5231 11.3149 10.6212C11.718 10.7194 12.1399 10.7783 12.5524 10.7881C12.9743 10.8077 13.3868 10.7881 13.8086 10.739L13.968 10.7194C14.0149 10.7096 14.0618 10.6998 14.118 10.6899C14.2211 10.6605 14.3149 10.631 14.418 10.6016C14.6243 10.5427 14.8305 10.474 15.0368 10.4249C15.4493 10.3169 15.8805 10.2384 16.3211 10.2384C16.7524 10.2384 17.193 10.3169 17.5868 10.5132C17.7836 10.6114 17.9711 10.7292 18.1399 10.8666C18.2243 10.9353 18.3086 11.0139 18.3836 11.0924L18.4961 11.2102C18.5336 11.2494 18.5711 11.2985 18.5993 11.3476C18.7211 11.5439 18.7868 11.7697 18.8149 12.0053C18.843 12.2409 18.843 12.4666 18.8243 12.6924C18.7868 13.1439 18.693 13.5856 18.5711 14.0175L18.5243 14.1746L18.5055 14.2531C18.5055 14.2629 18.4961 14.2826 18.5055 14.2826C18.4961 14.2728 18.5243 14.3022 18.4868 14.2139C18.3086 14.1452 18.3743 14.2335 18.3555 14.204C18.3743 14.1648 18.4024 14.1157 18.4305 14.0666C18.4586 14.0175 18.4774 13.9685 18.5055 13.9194C18.5993 13.7231 18.6836 13.5267 18.7586 13.3206C19.0399 12.5059 19.0961 11.6126 18.9555 10.7586C18.8899 10.3267 18.768 9.91448 18.618 9.51202C18.468 9.10957 18.2899 8.71693 18.0836 8.33411L18.0086 8.19668L17.9899 8.15742L17.9805 8.13779L17.9711 8.11816C17.9524 8.08871 17.943 8.05926 17.9336 8.02981C17.8868 7.91202 17.8586 7.78441 17.8305 7.67644C17.7836 7.45067 17.7461 7.22491 17.718 7.00896C17.6524 6.56724 17.5961 6.13533 17.493 5.71325C17.3993 5.29116 17.268 4.87889 17.0899 4.49607C16.9118 4.11325 16.6961 3.75988 16.4149 3.44577C15.8711 2.82736 15.1211 2.41509 14.3243 2.16969C13.5274 1.92429 12.6836 1.84577 11.8399 1.84577C11.0055 1.84577 10.1618 1.95374 9.37426 2.22859C8.98051 2.36601 8.60551 2.55251 8.25864 2.79791C7.90239 3.0335 7.60239 3.32797 7.37739 3.69116Z" fill="#E5BFA1"/>
<path d="M7.07891 3.51395C7.21953 3.27836 7.38828 3.09186 7.55703 2.91517C7.73516 2.73849 7.92266 2.59125 8.11953 2.45382C8.51328 2.17898 8.93516 1.96303 9.37578 1.79616C10.257 1.47223 11.1852 1.34462 12.1039 1.36425C13.0133 1.3937 13.932 1.51149 14.8133 1.84524C15.2539 2.01211 15.6758 2.22806 16.0602 2.52254C16.4445 2.8072 16.782 3.16057 17.0633 3.56303C17.3352 3.96548 17.5414 4.4072 17.7008 4.86855C17.8508 5.3299 17.9539 5.80106 18.0289 6.26241C18.0664 6.498 18.0945 6.72376 18.132 6.95935C18.1695 7.18511 18.1977 7.4207 18.2352 7.62683C18.2539 7.73481 18.282 7.83297 18.3195 7.91149L18.3289 7.93113L18.3383 7.95076L18.357 7.99002L18.3945 8.06855L18.4789 8.2256C18.582 8.43174 18.6852 8.64769 18.7789 8.86364C18.957 9.29554 19.107 9.75689 19.2102 10.2281C19.3133 10.6894 19.3602 11.1704 19.3602 11.6514C19.3508 12.6133 19.0977 13.5655 18.6195 14.3802C18.582 14.4391 18.507 14.4685 18.4508 14.4293C18.3945 14.39 18.3758 14.3213 18.3945 14.2722C18.5258 13.9189 18.6664 13.5851 18.7695 13.2416C18.882 12.898 18.957 12.5446 18.957 12.2011C18.957 11.8575 18.8727 11.5238 18.6758 11.2587C18.6664 11.2391 18.6477 11.2195 18.6383 11.2097L18.6195 11.19L18.6008 11.1606L18.5164 11.0722C18.4602 11.0133 18.3945 10.9544 18.3289 10.9054C18.1977 10.7974 18.0477 10.6992 17.907 10.6011C17.3164 10.2182 16.6883 9.8845 16.0508 9.55076C15.4133 9.22683 14.7664 8.91272 14.1289 8.60843C12.8352 7.99002 11.5414 7.37162 10.2664 6.70413C9.62891 6.36057 9.00078 6.01701 8.38203 5.60474C8.05391 5.35935 7.75391 5.1434 7.46328 4.86855C7.32266 4.73113 7.18203 4.57407 7.06953 4.35812C7.01328 4.25014 6.96641 4.12254 6.95703 3.96548C6.95703 3.88695 6.95703 3.80843 6.97578 3.7299C6.98516 3.69063 6.99453 3.65137 7.01328 3.61211C7.02266 3.58266 7.05078 3.52376 7.06016 3.51395H7.07891ZM7.60391 3.84769C7.58516 3.87714 7.59453 3.86732 7.58516 3.87714C7.58516 3.88695 7.58516 3.88695 7.57578 3.89677V3.93603C7.57578 3.96548 7.59453 4.01456 7.61328 4.07346C7.66953 4.19125 7.77266 4.31886 7.88516 4.42683C8.11953 4.66241 8.39141 4.87836 8.68203 5.07468C9.25391 5.47714 9.87266 5.83051 10.5008 6.18389C11.7477 6.871 13.032 7.50904 14.307 8.15689C14.9445 8.48082 15.582 8.81456 16.2195 9.1483C16.857 9.49186 17.4852 9.83542 18.0945 10.2575C18.2445 10.3655 18.3945 10.4735 18.5352 10.6011C18.6102 10.66 18.6758 10.7287 18.7508 10.7974C18.7883 10.8366 18.8164 10.8661 18.8539 10.9152L18.8727 10.9446L18.9008 10.9741C18.9195 10.9937 18.9289 11.0133 18.9477 11.033C19.0602 11.1998 19.1445 11.3863 19.2008 11.5827C19.257 11.779 19.2664 11.9851 19.2664 12.1814C19.257 12.5741 19.1539 12.9569 19.032 13.3201C18.9102 13.6833 18.7602 14.017 18.6195 14.3606L18.3945 14.2428C18.8352 13.4575 19.0414 12.5544 19.032 11.6514C19.0133 10.7483 18.7883 9.85505 18.4227 9.03051C18.3289 8.82438 18.2352 8.61824 18.1227 8.42192L17.9539 8.10781C17.8883 7.98021 17.8602 7.8526 17.832 7.73481C17.7758 7.48941 17.7383 7.26364 17.7008 7.02806C17.6633 6.79247 17.6258 6.56671 17.5883 6.35076C17.5039 5.89922 17.4008 5.46732 17.2508 5.04524C17.1008 4.63297 16.9039 4.23051 16.6602 3.88695C16.4164 3.53358 16.107 3.22928 15.7695 2.98389C15.4227 2.73849 15.0477 2.54217 14.6445 2.40474C13.8383 2.12008 12.9758 2.02192 12.1133 2.01211C11.682 2.01211 11.2602 2.03174 10.8383 2.11027C10.4164 2.17898 10.0039 2.28695 9.61016 2.43419C9.21641 2.58143 8.83203 2.76793 8.48516 3.00352C8.30703 3.12131 8.14766 3.24892 7.99766 3.39616C7.84766 3.54339 7.70703 3.69063 7.60391 3.84769Z" fill="#895B2E"/>
<path d="M7.28465 3.62245C6.2534 5.29116 7.48153 11.701 13.9597 10.8372C14.644 10.7488 16.9222 9.47276 18.4597 11.2593C19.294 12.2409 18.169 14.7243 18.4597 14.204C18.7878 13.6347 20.044 11.4359 18.1597 8.04945C17.5597 6.95988 18.5534 1.72797 12.0659 1.65926C9.58153 1.64945 7.96903 2.51325 7.28465 3.62245Z" fill="#BA8449"/>
<g opacity="0.15">
<path d="M7.1118 4.02773C8.97743 2.77129 14.6212 2.85963 16.4212 5.87313C17.6212 7.87558 15.4274 12.8228 14.6118 13.451C13.8056 14.0793 12.6806 14.629 9.71805 13.8829C7.20555 13.2547 10.9837 10.8106 8.03993 10.4572C5.3493 10.1332 5.07743 5.40196 7.1118 4.02773Z" fill="#E3AB5E"/>
</g>
<g opacity="0.25">
<path d="M12.3281 8.88984C12.3281 9.03708 12.0562 9.16468 11.7188 9.16468C11.3813 9.16468 11.1094 9.04689 11.1094 8.88984C11.1094 8.7426 11.3813 8.61499 11.7188 8.61499C12.0562 8.62481 12.3281 8.7426 12.3281 8.88984Z" fill="#E3AB5E"/>
</g>
<path d="M11.2496 8.08811C11.3902 7.98995 12.1402 8.0194 12.234 8.12737C12.3277 8.22553 12.534 8.6378 12.2996 8.81449C12.2152 8.87338 12.2152 8.62799 12.0277 8.66725C11.8027 8.71633 11.9246 9.02062 11.7465 9.02062C11.4746 9.01081 11.7371 8.68688 11.5027 8.64762C11.3246 8.60835 11.2871 8.79486 11.2027 8.77523C10.9309 8.71633 11.0527 8.22553 11.2496 8.08811Z" fill="#F8A38F"/>
<path d="M11.6547 8.03027C11.4765 8.03027 11.3078 8.04991 11.2515 8.08917C11.0547 8.22659 10.9328 8.71739 11.1953 8.76647H11.2047C11.2703 8.76647 11.3078 8.62905 11.4484 8.62905H11.4953C11.7297 8.66831 11.4765 9.00205 11.739 9.00205C11.9078 9.00205 11.7859 8.70757 12.0203 8.65849H12.0578C12.189 8.65849 12.2078 8.81555 12.264 8.81555C12.2734 8.81555 12.2828 8.81555 12.2922 8.80573C12.5359 8.62905 12.3297 8.21678 12.2265 8.11862C12.1797 8.06954 11.9078 8.03027 11.6547 8.03027ZM11.6547 8.09898C11.9359 8.09898 12.1515 8.13825 12.189 8.1677C12.2453 8.22659 12.3578 8.44254 12.339 8.5996C12.3297 8.65849 12.3109 8.70757 12.2734 8.73702C12.2734 8.72721 12.264 8.72721 12.2547 8.71739C12.2172 8.66831 12.1609 8.58978 12.0578 8.58978C12.039 8.58978 12.0203 8.58978 12.0109 8.5996C11.8515 8.63886 11.8234 8.76647 11.7953 8.85481C11.7765 8.94316 11.7672 8.94316 11.739 8.94316C11.664 8.94316 11.664 8.92352 11.664 8.83518C11.664 8.74684 11.664 8.60941 11.4953 8.57997H11.439C11.3359 8.57997 11.2703 8.64868 11.2234 8.68794C11.214 8.69776 11.1953 8.71739 11.1859 8.71739C11.1484 8.70757 11.1109 8.68794 11.0922 8.60941C11.064 8.47199 11.1578 8.23641 11.2609 8.15788C11.3172 8.11862 11.4484 8.09898 11.6547 8.09898Z" fill="#F8A38F"/>
<g opacity="0.25">
<path d="M17.503 10.6647C17.7843 12.5494 15.5343 14.915 12.5062 15.4058C9.47804 15.8868 7.24679 13.0598 6.96554 11.1653C6.68429 9.28067 8.54054 9.99724 11.5687 9.51626C14.5968 9.03527 17.2218 8.78006 17.503 10.6647Z" fill="#F7E8D0"/>
</g>
<g opacity="0.5">
<path d="M9.60111 13.5341C9.51673 13.3967 9.46986 13.2298 9.42298 13.0727L9.28236 12.6016C9.18861 12.2875 9.08548 11.9734 8.94486 11.6789C8.80423 11.3844 8.62611 11.1096 8.40111 10.9034C8.17611 10.6973 7.90423 10.5599 7.61361 10.501C7.51048 10.4617 7.46361 10.3537 7.50111 10.2556C7.53861 10.1574 7.63236 10.1083 7.71673 10.128C8.39173 10.2948 9.09486 10.3734 9.78861 10.3832C10.4824 10.393 11.1949 10.3537 11.898 10.2654C12.6011 10.177 13.2949 10.0494 13.9792 9.88256C14.6636 9.71568 15.348 9.51937 16.0136 9.28378C16.1167 9.24452 16.2199 9.30342 16.248 9.40157C16.2761 9.4801 16.248 9.55863 16.1917 9.60771C16.173 9.62734 16.1355 9.65679 16.1074 9.68624C16.0792 9.71568 16.0511 9.75495 16.023 9.7844C15.9667 9.85311 15.9105 9.93164 15.8542 10.0102C15.7417 10.1672 15.6386 10.3243 15.5449 10.4911C15.3386 10.8151 15.1511 11.1488 14.973 11.4924C14.7949 11.8359 14.6167 12.1795 14.4574 12.523C14.373 12.6997 14.298 12.8764 14.2324 13.0531C14.1949 13.1415 14.1667 13.2298 14.1292 13.328C14.1105 13.377 14.1011 13.4163 14.0917 13.4654V13.485C14.0917 13.4948 14.0917 13.4948 14.0824 13.5046C14.0824 13.5145 14.073 13.5243 14.0636 13.5243C14.0542 13.5341 14.0449 13.5439 14.0261 13.5537C14.0074 13.5734 13.9792 13.5832 13.9605 13.593C13.7824 13.6715 13.5949 13.7108 13.4167 13.75C13.2386 13.7893 13.0511 13.8188 12.8636 13.8384C12.4886 13.8875 12.123 13.9267 11.748 13.9365C11.373 13.9562 10.998 13.9562 10.6324 13.9169C10.4449 13.8973 10.2574 13.8678 10.0792 13.8188C9.98548 13.7893 9.90111 13.7599 9.81673 13.7108C9.73236 13.6715 9.65736 13.6126 9.60111 13.5341ZM9.61048 13.5243C9.65736 13.6028 9.74173 13.6617 9.82611 13.701C9.91048 13.7402 9.99486 13.7697 10.0886 13.7991C10.2667 13.8482 10.4542 13.8776 10.6417 13.8875C11.0167 13.9169 11.3824 13.9169 11.7574 13.8973C12.1324 13.8776 12.498 13.8286 12.8636 13.7795C13.0417 13.75 13.2292 13.7206 13.4074 13.6715C13.5855 13.6224 13.773 13.5832 13.9324 13.5046C13.9511 13.4948 13.9699 13.485 13.9886 13.4654C14.0074 13.4556 14.0167 13.4457 14.0167 13.4359C14.0261 13.3869 14.0355 13.3378 14.0542 13.2887C14.0824 13.1905 14.1105 13.1022 14.1386 13.004C14.2042 12.8175 14.2699 12.6408 14.3449 12.4543C14.4949 12.0911 14.6449 11.7378 14.8042 11.3844C14.9636 11.031 15.1324 10.6776 15.3105 10.3341C15.3949 10.1574 15.4886 9.99053 15.5917 9.81384C15.6386 9.7255 15.6949 9.63716 15.7511 9.55863C15.7792 9.51937 15.8074 9.47029 15.8355 9.43102C15.873 9.39176 15.9011 9.34268 15.948 9.30342L16.1261 9.63716C15.4417 9.88256 14.7574 10.0789 14.0542 10.2457C13.3511 10.4126 12.648 10.55 11.9355 10.6384C11.223 10.7267 10.5011 10.7758 9.77923 10.7562C9.05736 10.7365 8.33548 10.6482 7.62298 10.4715L7.72611 10.0789C8.03548 10.2752 8.31673 10.4617 8.53236 10.7267C8.74798 10.9918 8.89798 11.2961 9.01986 11.6102C9.13236 11.9243 9.22611 12.2482 9.30111 12.5623C9.33861 12.7194 9.38548 12.8862 9.42298 13.0433C9.47923 13.2298 9.52611 13.3869 9.61048 13.5243Z" fill="#D8CAB2"/>
</g>
<g opacity="0.5">
<path d="M9.60392 13.5352C9.51954 13.3978 9.47267 13.2407 9.4258 13.0837C9.37892 12.9266 9.34142 12.7696 9.29454 12.6125C9.20079 12.2984 9.10704 11.9843 8.96642 11.68C8.83517 11.3855 8.65705 11.1107 8.44142 10.8947C8.21642 10.6689 7.94454 10.5119 7.65392 10.4432V10.4334C7.60704 10.4137 7.57892 10.3548 7.59767 10.3058C7.61642 10.2567 7.66329 10.2272 7.71017 10.237C8.39454 10.4039 9.09767 10.4824 9.81017 10.4923C10.5227 10.5021 11.2258 10.4628 11.9289 10.3745C12.632 10.2861 13.3258 10.1487 14.0195 9.99164C14.7133 9.82477 15.3977 9.62845 16.0633 9.39287C16.1102 9.37324 16.1664 9.40268 16.1852 9.45176C16.1945 9.49103 16.1852 9.53029 16.157 9.55974C16.1008 9.60882 16.0352 9.68735 15.9789 9.75606C15.9227 9.82477 15.8664 9.91311 15.8102 9.98183C15.707 10.1389 15.6039 10.3058 15.5102 10.4726C15.3133 10.7965 15.1258 11.1401 14.9477 11.4837C14.7695 11.8272 14.6008 12.1708 14.4508 12.5242L14.2258 13.0542C14.1883 13.1426 14.1602 13.2309 14.132 13.3291C14.1133 13.3781 14.1039 13.4174 14.0945 13.4665C14.0852 13.5058 14.057 13.5156 14.0383 13.5352C14.0195 13.5548 13.9914 13.5646 13.9727 13.5745C13.7945 13.653 13.607 13.6923 13.4289 13.7315C13.2508 13.7708 13.0633 13.8002 12.8758 13.8297C12.5102 13.8788 12.1352 13.918 11.7602 13.9377C11.3852 13.9573 11.0102 13.9573 10.6445 13.918C10.457 13.8984 10.2695 13.8689 10.0914 13.8199C9.99767 13.7904 9.91329 13.761 9.82892 13.7217C9.73517 13.6726 9.65079 13.6137 9.60392 13.5352ZM9.60392 13.5254C9.65079 13.6039 9.73517 13.6628 9.81954 13.7119C9.90392 13.7512 9.9883 13.7806 10.082 13.81C10.2602 13.8591 10.4477 13.8886 10.6352 13.8984C11.0102 13.9377 11.3758 13.9278 11.7508 13.9082C12.1258 13.8886 12.4914 13.8493 12.8664 13.7904C13.0445 13.761 13.232 13.7315 13.4195 13.6824C13.5977 13.6432 13.7852 13.5941 13.9445 13.5156C13.9633 13.5058 13.982 13.4959 14.0008 13.4763C14.0195 13.4665 14.0383 13.4469 14.0383 13.437C14.0477 13.388 14.057 13.3389 14.0758 13.2898C14.1039 13.1916 14.132 13.1033 14.1695 13.015C14.2352 12.8285 14.3102 12.6518 14.3852 12.4751C14.5352 12.1119 14.6945 11.7683 14.8633 11.415C15.032 11.0616 15.2008 10.718 15.3883 10.3745C15.482 10.1978 15.5758 10.0309 15.6789 9.87385C15.7258 9.78551 15.782 9.70698 15.8383 9.62845C15.8945 9.54992 15.9508 9.4714 16.0352 9.39287L16.1289 9.56956C15.4539 9.81495 14.7602 10.0113 14.0664 10.1781C13.3727 10.345 12.6695 10.4726 11.957 10.5708C11.2445 10.6591 10.532 10.7082 9.81017 10.6886C9.09767 10.6689 8.37579 10.5904 7.67267 10.4235L7.71954 10.237C8.02892 10.3646 8.31017 10.561 8.52579 10.8162C8.74142 11.0714 8.90079 11.3659 9.02267 11.6702C9.14454 11.9745 9.23829 12.2886 9.32267 12.6125C9.36017 12.7696 9.40704 12.9266 9.45392 13.0935C9.47267 13.2309 9.51954 13.388 9.60392 13.5254Z" fill="#D8CAB2"/>
</g>
<path d="M9.60938 13.5267C10.0875 14.312 13.9969 13.7721 14.0625 13.458C14.2313 12.6629 15.6375 9.85553 16.0875 9.46289C15.2812 9.75737 11.0906 11.161 7.6875 10.3071C9.21562 10.8469 9.23438 12.9181 9.60938 13.5267Z" fill="#333333"/>
<path d="M16.0738 9.47754C15.4457 9.70331 12.802 10.5966 10.0645 10.5966C9.2582 10.5966 8.45195 10.518 7.67383 10.3315C9.21133 10.8518 9.23008 12.9328 9.60508 13.5413C9.7832 13.8358 10.4676 13.9438 11.2457 13.9438C12.502 13.9438 14.0113 13.6689 14.0582 13.4726C14.227 12.6677 15.6238 9.86036 16.0738 9.47754ZM15.5488 9.86036C14.9395 10.8223 14.0582 12.6775 13.8801 13.3745C13.6457 13.5119 12.4363 13.7475 11.2457 13.7475C10.2895 13.7475 9.8582 13.5806 9.76445 13.4334C9.6707 13.2861 9.5957 13.0113 9.5207 12.6972C9.36133 12.0984 9.13633 11.2739 8.60195 10.7045C9.0707 10.7634 9.5582 10.7929 10.0738 10.7929C12.3051 10.7831 14.4895 10.1941 15.5488 9.86036Z" fill="#333333"/>
<path d="M11.2133 13.9384C10.4071 13.9384 9.88206 13.8206 9.67581 13.585C9.65706 13.5654 9.65706 13.4476 9.75081 13.2218C9.97581 12.6819 10.6696 11.7592 11.8696 11.6807C11.9539 11.6807 12.0289 11.6709 12.1039 11.6709C13.5102 11.6709 14.3539 12.4169 14.3539 12.5445C14.3352 12.5838 14.3164 12.6427 14.2883 12.7212C14.2133 12.9077 14.1008 13.2022 13.9977 13.5163C13.8758 13.6439 12.4696 13.9384 11.2133 13.9384Z" fill="#FCD4C3"/>
<path d="M12.1035 11.6222C12.0191 11.6222 11.9441 11.6222 11.8598 11.632C10.2191 11.74 9.45977 13.4381 9.62852 13.6442C9.87227 13.9191 10.5004 14.0173 11.2129 14.0173C12.4785 14.0173 14.0066 13.713 14.0535 13.5657C14.1941 13.124 14.3535 12.7608 14.4191 12.5841C14.4754 12.4074 13.5285 11.6123 12.1035 11.6222ZM12.1035 11.7498C13.3598 11.7498 14.2035 12.378 14.2879 12.5645C14.2691 12.6038 14.2504 12.6528 14.2316 12.7117C14.1566 12.8982 14.0441 13.1731 13.941 13.4872C13.7441 13.605 12.4316 13.87 11.2129 13.87C10.4535 13.87 9.92852 13.7522 9.73164 13.5461C9.72227 13.4774 9.78789 13.2025 10.0223 12.859C10.2285 12.5449 10.8285 11.8087 11.8691 11.7498H12.1035Z" fill="#F8A38F"/>
<path d="M9.65532 13.5381C9.54282 14.0682 12.6459 11.467 14.3147 12.7136C14.6616 12.2326 12.8147 11.4179 11.7366 11.6044C10.8272 11.7713 9.8897 12.3799 9.65532 13.5381Z" fill="#FCD4C3"/>
<path d="M10.2852 10.7388C10.4445 11.0333 10.7352 12.4664 10.857 12.4959C10.9789 12.5253 11.7477 12.7511 11.8508 12.702C11.9633 12.6529 11.9539 12.3781 12.0664 12.4566C12.1602 12.5253 12.207 12.6529 12.3008 12.6038C12.4695 12.5155 12.9664 12.1916 13.0508 12.0542C13.1258 11.9069 13.1164 11.0922 13.0508 10.4443C12.732 10.6014 10.8477 10.8075 10.2852 10.7388Z" fill="#FFF7E3"/>
<path d="M13.0547 10.449C12.7734 10.5766 11.3016 10.7533 10.5609 10.7533C10.4484 10.7533 10.3641 10.7533 10.2891 10.7435C10.4484 11.0379 10.7391 12.4711 10.8609 12.5005C10.9734 12.53 11.6109 12.7165 11.8078 12.7165C11.8266 12.7165 11.8453 12.7165 11.8547 12.7066C11.9484 12.6674 11.9578 12.4514 12.0328 12.4514C12.0422 12.4514 12.0609 12.4514 12.0703 12.4711C12.1547 12.5201 12.1922 12.6281 12.2672 12.6281C12.2766 12.6281 12.2953 12.6281 12.3047 12.6183C12.4734 12.53 12.9703 12.206 13.0547 12.0686C13.1391 11.9214 13.1203 11.1066 13.0547 10.449ZM13.0078 10.5373C13.0641 11.2048 13.0641 11.9116 13.0078 12.0293C12.9422 12.1471 12.4922 12.4514 12.2859 12.5594H12.2766C12.2578 12.5594 12.2297 12.53 12.2109 12.5005C12.1828 12.4711 12.1547 12.4416 12.1172 12.4122C12.0891 12.3925 12.0703 12.3827 12.0422 12.3827C11.9578 12.3827 11.9297 12.4711 11.9016 12.5398C11.8828 12.579 11.8641 12.6379 11.8359 12.6477H11.8078C11.6484 12.6477 11.1703 12.5103 10.9734 12.4612C10.9359 12.4514 10.9078 12.4416 10.8891 12.4416C10.8328 12.3729 10.7109 11.9116 10.6172 11.5778C10.5328 11.2735 10.4578 10.9889 10.3922 10.822H10.5703C11.2734 10.822 12.5859 10.6649 13.0078 10.5373Z" fill="#FFDC99"/>
<path d="M10.5051 11.431C10.4582 10.9009 12.7926 10.7242 13.0832 10.7733C13.0832 10.6457 13.0645 10.5672 13.0645 10.4199C12.6801 10.6261 10.5801 10.842 10.2988 10.7537C10.327 10.8126 10.4301 11.107 10.5051 11.431Z" fill="#EADCBE"/>
<path d="M11.6676 11.0303C11.7145 11.1481 11.7613 11.256 11.7988 11.3738L11.9113 11.7272L12.0145 12.0806L12.1176 12.434L11.9582 12.483L11.8832 12.1198L11.7988 11.7567L11.7145 11.4033C11.677 11.2855 11.6488 11.1677 11.6113 11.0597L11.6676 11.0303Z" fill="#FFDC99"/>
<g opacity="0.4">
<path d="M3.77632 2.72037C5.01382 3.05411 4.81695 5.29215 5.5482 5.46883C6.28882 5.64552 7.25445 3.62344 7.3482 3.18172C5.9232 2.54368 5.25757 1.79767 4.2357 2.01362C3.8982 2.08233 3.42945 2.62221 3.77632 2.72037Z" fill="#FCD4C3"/>
</g>
<g opacity="0.5">
<path d="M7.20599 9.26977C8.76224 9.39737 10.0466 9.46609 10.506 8.96547C10.9654 8.46486 11.1341 6.24645 11.8841 6.30535C12.5216 6.35443 12.7372 9.24032 13.1497 9.31885C13.5622 9.40719 16.4779 10.2415 17.2091 9.45627C17.931 8.67099 18.2685 8.1802 18.0997 7.70903C17.931 7.23786 13.6654 5.71639 12.7935 5.62805C11.9216 5.5397 6.03411 6.31516 5.88411 6.69799C5.73411 7.09063 5.57474 7.03173 5.60286 7.444C5.65911 8.23909 5.64974 9.14216 7.20599 9.26977Z" fill="#E3AB5E"/>
</g>
<path d="M11.5696 5.98751C11.6821 5.98751 12.1228 5.94825 12.2259 6.03659C12.7884 6.49794 12.7696 8.39242 13.3603 8.98137C13.8853 9.51144 16.754 9.89426 17.2509 9.29548C17.7478 8.69671 18.479 6.87094 18.6478 6.73352C18.8165 6.60591 19.1915 6.50775 19.304 6.32125C19.4165 6.14456 19.3228 5.33966 19.0603 5.37892C18.7978 5.41818 18.3009 5.58505 17.9915 5.49671C17.6821 5.39855 16.1728 4.40714 12.3759 5.00591C12.0103 5.06481 11.6446 5.00591 11.3915 4.9372C11.1384 4.86849 9.71339 4.00469 5.89777 4.57401C5.52277 4.63291 4.99777 4.45622 4.81027 4.47585C4.62277 4.49548 4.56652 5.11389 4.64152 5.27094C4.71652 5.428 5.11027 5.56542 5.15714 5.76174C5.20402 5.95806 5.55089 7.88199 6.45089 8.67708C7.40714 9.52125 9.84464 8.93229 10.0603 8.77524C11.0259 8.05867 11.2415 5.98751 11.5696 5.98751Z" fill="#333333"/>
<path d="M8.28214 4.38965C7.61652 4.38965 6.81964 4.43873 5.88214 4.58597C5.82589 4.59578 5.76964 4.59578 5.71339 4.59578C5.38527 4.59578 5.00089 4.48781 4.82277 4.48781H4.79464C4.60714 4.50744 4.55089 5.12584 4.62589 5.2829C4.70089 5.44977 5.09464 5.57738 5.14152 5.7737C5.18839 5.97002 5.53527 7.89394 6.43527 8.68903C6.81027 9.02278 7.42902 9.13075 8.04777 9.13075C8.98527 9.13075 9.91339 8.88535 10.0446 8.78719C11.0196 8.06081 11.2446 5.98965 11.5728 5.98965C11.6196 5.98965 11.7415 5.97983 11.854 5.97983C12.004 5.97983 12.1634 5.98965 12.2196 6.02891C12.7821 6.49026 12.7634 8.38474 13.354 8.9737C13.6915 9.30744 14.9853 9.5921 15.9978 9.5921C16.5696 9.5921 17.0571 9.50376 17.2353 9.28781C17.7321 8.68904 18.4634 6.86327 18.6321 6.72584C18.8009 6.58842 19.1759 6.50008 19.2884 6.31357C19.3915 6.13689 19.3071 5.37124 19.054 5.37124H19.0353C18.829 5.40069 18.4728 5.50867 18.1821 5.50867C18.1071 5.50867 18.0321 5.49885 17.9665 5.47922C17.7228 5.40069 16.7759 4.80192 14.6196 4.80192C13.9728 4.80192 13.2228 4.851 12.3509 4.98842C12.2478 5.00805 12.1353 5.00805 12.0415 5.00805C11.7884 5.00805 11.554 4.96879 11.3759 4.91971C11.1884 4.90008 10.3259 4.38965 8.28214 4.38965ZM8.28214 4.58597C9.97902 4.58597 10.8509 4.93934 11.1696 5.07677C11.2353 5.10621 11.2821 5.12584 11.329 5.13566C11.4978 5.17492 11.7509 5.23382 12.0415 5.23382C12.154 5.23382 12.2759 5.224 12.379 5.20437C13.1759 5.07676 13.9259 5.01787 14.6196 5.01787C16.4009 5.01787 17.329 5.43014 17.7321 5.61664C17.8165 5.65591 17.8728 5.67554 17.9196 5.69517C18.004 5.72462 18.0884 5.73443 18.1915 5.73443C18.3978 5.73443 18.6228 5.68535 18.8103 5.64609C18.8946 5.62646 18.979 5.60683 19.0446 5.59701C19.129 5.69517 19.1853 6.12707 19.1384 6.24486C19.1009 6.30376 18.9415 6.38229 18.829 6.43137C18.7165 6.48045 18.6134 6.52953 18.5384 6.58842C18.4353 6.66695 18.3321 6.87308 18.0321 7.5013C17.7415 8.10008 17.3853 8.84609 17.1134 9.17002C17.0196 9.28781 16.6821 9.4056 16.0071 9.4056C15.0228 9.4056 13.7665 9.13075 13.4853 8.84609C13.2228 8.59088 13.0915 7.9921 12.9603 7.41296C12.8103 6.76511 12.6696 6.15652 12.3415 5.88167C12.2571 5.81296 12.1259 5.78351 11.8634 5.78351H11.5728C11.3103 5.78351 11.1978 6.10744 11.0009 6.6964C10.7853 7.34425 10.4759 8.21787 9.94152 8.62032C9.81964 8.69885 8.93839 8.93443 8.04777 8.93443C7.36339 8.93443 6.84777 8.79701 6.55714 8.5418C6.20089 8.22768 5.70402 7.49149 5.34777 5.81296C5.33839 5.7737 5.32902 5.74425 5.32902 5.72462C5.28214 5.53811 5.11339 5.43014 4.97277 5.33198C4.91652 5.29272 4.82277 5.224 4.80402 5.19456C4.76652 5.10621 4.80402 4.78229 4.86027 4.67431C4.92589 4.67431 5.01964 4.69394 5.12277 4.71357C5.30089 4.74302 5.52589 4.78229 5.73214 4.78229C5.79777 4.78229 5.87277 4.78229 5.92902 4.76265C6.76339 4.65468 7.56027 4.58597 8.28214 4.58597Z" fill="#1A1A1A"/>
<g opacity="0.5">
<path d="M6.19705 5.79671C6.11267 5.9145 6.05642 7.65192 6.75955 8.12309C7.21892 8.4372 9.16892 8.36849 9.56267 8.14272C10.172 7.77953 10.772 6.13045 10.6033 5.89487C10.322 5.50223 8.29705 4.98198 6.7783 5.39425C6.5908 5.43352 6.30017 5.64947 6.19705 5.79671V5.79671Z" stroke="#333333" stroke-width="4" stroke-miterlimit="10"/>
</g>
<path d="M6.19705 5.79183C6.11267 5.90962 6.05642 7.64704 6.75955 8.11821C7.21892 8.43232 9.16892 8.3636 9.56267 8.13784C10.172 7.77465 10.772 6.12557 10.6033 5.88998C10.322 5.49735 8.29705 4.9771 6.7783 5.38937C6.5908 5.43845 6.30017 5.64459 6.19705 5.79183Z" fill="white"/>
<g opacity="0.5">
<path d="M17.6522 6.55322C17.7272 6.68083 17.5584 8.40844 16.8084 8.79126C16.3115 9.03666 14.3897 8.70292 14.0334 8.42807C13.4709 7.98635 13.0772 6.26856 13.274 6.05261C13.6022 5.69924 15.674 5.46365 17.1272 6.07224C17.3053 6.14095 17.5678 6.39617 17.6522 6.55322Z" stroke="#333333" stroke-width="4" stroke-miterlimit="10"/>
</g>
<path d="M17.6522 6.55713C17.7272 6.68474 17.5584 8.41234 16.8084 8.79517C16.3115 9.04057 14.3897 8.70682 14.0334 8.43198C13.4709 7.99026 13.0772 6.27247 13.274 6.05652C13.6022 5.70314 15.674 5.46756 17.1272 6.07615C17.3053 6.14486 17.5584 6.39026 17.6522 6.55713Z" fill="white"/>
<path d="M8.41902 6.85157C8.37215 7.23439 8.18465 7.51906 8.00652 7.48961C7.8284 7.46016 7.73465 7.13623 7.78152 6.75341C7.8284 6.37059 8.0159 6.08593 8.19402 6.11537C8.37215 6.14482 8.4659 6.46875 8.41902 6.85157ZM15.8909 7.28347C15.9284 7.6663 15.8159 7.99022 15.6472 8.00985C15.469 8.02949 15.3003 7.73501 15.2628 7.35219C15.2253 6.96936 15.3378 6.64544 15.5065 6.6258C15.6753 6.61599 15.844 6.91047 15.8909 7.28347Z" fill="black"/>
<g opacity="0.3">
<path d="M4.81602 5.04031C5.03164 5.18755 5.22852 5.0992 5.27539 5.39368C5.32227 5.68816 5.96914 8.24031 6.77539 8.53479C8.09727 9.01577 9.76602 8.5446 9.99102 8.39736C10.216 8.25012 11.2754 5.76669 11.4535 5.66853C11.6316 5.57037 12.1941 5.67834 12.316 5.73724C12.6816 5.90411 13.3566 8.59368 13.5348 8.73111C14.3504 9.32988 16.966 9.2808 17.0879 9.12374C17.2191 8.95687 18.1941 6.61086 18.3723 6.47344C18.6254 6.2673 19.216 6.12988 19.2348 6.21822C19.2535 6.30657 18.7566 6.39491 18.6066 6.58141C18.4566 6.77773 17.4723 9.02558 17.1629 9.2219C16.8535 9.41822 14.566 9.74215 13.4035 8.88816C12.8504 8.47589 12.6348 6.03172 12.1941 5.8943C11.9129 5.80595 11.6973 5.81577 11.491 5.87466C11.2191 6.06117 10.8348 8.14215 10.0191 8.66239C9.69102 8.86853 7.15039 9.38877 6.39102 8.55442C4.97539 7.0035 5.40664 5.61945 4.94727 5.42313C4.63789 5.28571 4.57227 5.10902 4.57227 4.99123C4.60039 4.86362 4.70352 4.96178 4.81602 5.04031Z" fill="#333333"/>
</g>
<g opacity="0.3">
<path d="M4.84303 4.5199C4.69303 4.461 5.48053 4.80456 5.77116 4.78493C6.06178 4.7653 6.54928 4.54935 6.70866 4.50027C6.84928 4.45119 5.97741 4.61806 5.76178 4.60824C5.54616 4.59843 4.92741 4.54935 4.84303 4.5199Z" fill="#333333"/>
</g>
<g opacity="0.3">
<path d="M10.9219 4.98169C11.1938 5.1093 11.3156 5.43322 11.5781 5.46267C11.8406 5.49212 12.1594 5.5412 12.3094 5.45285C12.4594 5.36451 12.8344 5.15838 12.9375 5.13874C13.05 5.11911 12.1219 5.26635 11.775 5.2369C11.4281 5.19764 11.025 4.99151 10.9219 4.98169Z" fill="#333333"/>
</g>
<g opacity="0.3">
<path d="M17.5762 5.35733C17.4637 5.30825 17.9887 5.74996 18.1481 5.73033C18.3075 5.7107 18.5887 5.5242 18.7106 5.47512C18.8043 5.43585 18.3356 5.57328 18.195 5.54383C18.0543 5.53401 17.6887 5.4064 17.5762 5.35733Z" fill="#333333"/>
</g>
<g opacity="0.3">
<path d="M5.90228 5.53859C6.59603 4.82202 8.24603 5.06742 8.54603 5.12632C6.56791 5.27356 6.53041 5.43061 6.18353 5.7938C6.13666 6.07847 6.07103 7.0208 6.38041 7.84534C6.03353 7.64902 5.66791 5.78399 5.90228 5.53859Z" fill="#333333"/>
</g>
<g opacity="0.3">
<path d="M18.0336 6.31119C17.4336 5.50628 15.7742 5.5161 15.4648 5.54554C17.4055 5.96763 17.4242 6.12468 17.7242 6.53695C17.743 6.82162 17.6867 7.76395 17.2836 8.53941C17.6398 8.38235 18.2305 6.57622 18.0336 6.31119Z" fill="#333333"/>
</g>
<path d="M6.21746 6.98692C6.28309 6.14275 6.35809 5.45563 7.96121 5.40655C9.24559 5.36729 10.2675 5.6814 10.4081 6.00533C10.5018 6.21146 10.4268 7.11453 9.78934 7.93907C10.2018 7.55625 10.8581 6.03477 10.5768 5.84827C9.53621 5.15134 7.46434 5.13171 6.69559 5.41637C6.55496 5.46545 6.32996 5.63232 6.17996 5.80901C6.15184 6.02496 6.15184 6.86913 6.21746 6.98692Z" fill="#D0DDDC"/>
<path d="M6.26142 7.04775C6.50517 8.69683 9.3833 8.19621 9.55205 8.1275C9.54267 8.21585 8.04267 8.65756 6.78642 8.14713C6.28017 7.95082 6.24267 6.86124 6.26142 7.04775Z" fill="#D0DDDC"/>
<path d="M17.5171 7.72385C17.5546 6.86987 17.5546 6.19257 15.9796 5.93735C14.7139 5.73122 13.6639 5.9079 13.4764 6.2122C13.3639 6.3987 13.3264 7.31158 13.8702 8.21465C13.5046 7.77293 13.0264 6.19257 13.3358 6.03551C14.4514 5.476 16.5139 5.7214 17.2358 6.10422C17.3671 6.17293 17.5827 6.35944 17.7046 6.56557C17.6952 6.77171 17.6014 7.61588 17.5171 7.72385Z" fill="#D0DDDC"/>
<path d="M17.4641 7.77549C17.0328 9.37549 14.2297 8.51168 14.0703 8.42334C14.0703 8.51168 15.5047 9.13991 16.8172 8.80616C17.3422 8.66874 17.5203 7.58899 17.4641 7.77549Z" fill="#D0DDDC"/>
<g opacity="0.25">
<path d="M8.36914 6.36085C8.36914 6.31178 8.33164 6.2627 8.27539 6.2627C8.21914 6.2627 8.18164 6.30196 8.18164 6.36085C8.18164 6.41975 8.21914 6.45901 8.27539 6.45901C8.33164 6.45901 8.36914 6.41975 8.36914 6.36085Z" fill="white"/>
</g>
<g opacity="0.25">
<path d="M15.7754 6.82179C15.7754 6.77271 15.7379 6.72363 15.6816 6.72363C15.6348 6.72363 15.5879 6.7629 15.5879 6.82179C15.5879 6.88069 15.6254 6.91995 15.6816 6.91995C15.7285 6.91995 15.7754 6.87087 15.7754 6.82179Z" fill="white"/>
</g>
<g opacity="0.1">
<path d="M4.86719 4.93462C5.09219 5.19965 5.23281 5.2291 5.53281 5.18984C8.44844 4.7972 10.0609 4.80701 10.8578 5.58247C11.0266 5.74934 10.9328 5.08186 10.6141 4.99352C8.15781 4.31622 6.37656 4.9248 6.00156 4.97388C5.61719 5.03278 5.34531 4.94444 4.86719 4.93462Z" fill="#D0DDDC"/>
</g>
<g opacity="0.1">
<path d="M12.9311 5.32719C12.8655 5.3959 12.8936 6.10265 13.2124 5.83762C14.1311 5.07197 16.053 5.24866 17.3936 5.71983C17.178 5.27811 15.6124 4.97381 14.7311 4.98363C14.3092 5.00326 13.1092 5.13087 12.9311 5.32719Z" fill="#D0DDDC"/>
</g>
<path d="M18.4786 5.88927C18.4786 5.91872 18.3286 5.93835 18.1504 5.93835C17.9723 5.93835 17.8223 5.91872 17.8223 5.88927C17.8223 5.85982 17.9723 5.84019 18.1504 5.84019C18.3379 5.84019 18.4786 5.86964 18.4786 5.88927ZM5.84107 5.0451C5.84107 5.07455 5.69107 5.07455 5.51294 5.0451C5.33482 5.01565 5.19419 4.96657 5.20357 4.93712C5.21294 4.90768 5.35357 4.90768 5.53169 4.93712C5.70982 4.95676 5.85044 5.00584 5.84107 5.0451Z" fill="#D0DDDC"/>
<path d="M23.9948 20.7739C23.9385 20.1751 23.5167 19.9101 23.1323 19.9101C22.9542 19.9101 22.8135 19.9592 22.7573 19.9886L22.6823 20.0279L22.6167 20.077C22.5229 20.1457 22.3635 20.2536 22.2229 20.3027C22.2135 20.1849 22.2229 20.0279 22.2417 19.8905V19.8708C22.3448 18.8205 22.1385 18.2021 21.6135 18.0451C21.5292 18.0156 21.4354 18.0058 21.3417 18.0058C21.0229 18.0058 20.7417 18.1628 20.5635 18.3003C20.4135 18.0941 20.151 17.9862 19.8323 17.9862C19.3542 17.9862 18.9698 18.2217 18.8292 18.5948C18.8104 18.634 18.7917 18.6929 18.7729 18.7714C18.4917 18.1236 17.9198 17.8782 17.3854 17.8782C16.8792 17.8782 16.3917 18.0843 16.2135 18.2316C16.2042 18.2414 16.1948 18.2414 16.1854 18.2512C15.7073 18.6046 15.3323 19.0561 15.0698 19.596C14.9385 19.1346 14.6573 18.6929 14.1604 18.369L14.151 18.3592C14.1323 18.3494 14.1229 18.3395 14.1135 18.3395C14.6104 17.4267 15.0417 16.2095 14.7792 15.0512C14.4979 13.8144 13.8042 13.6377 13.4198 13.6377C13.2604 13.6377 13.0917 13.6671 12.9229 13.726H12.9042C12.1729 14.0303 11.8542 14.4819 11.7792 14.5898C11.7042 14.7076 10.9073 15.9837 10.7104 17.8487C10.6917 18.0549 10.6635 18.2708 10.6448 18.4868C10.5323 18.3199 10.3448 18.1628 10.0542 18.0745C9.96042 18.0451 9.86667 18.0352 9.77292 18.0352C9.3698 18.0352 9.04167 18.2905 8.86355 18.4671C8.71355 18.2316 8.4698 18.0843 8.19792 18.0745H8.1323C7.70105 18.0745 7.36355 18.2708 7.11042 18.4966C6.95105 18.2021 6.65105 18.0156 6.30417 18.0156H6.16355C5.68542 18.0156 5.31042 18.2512 5.16042 18.6438C5.15105 18.6733 5.1323 18.7125 5.12292 18.7616C4.74792 18.2708 4.2698 18.0451 3.62292 18.0451H3.5573C3.15417 18.0549 2.16042 18.2316 1.54167 19.6745C1.44792 19.9003 1.37292 20.126 1.31667 20.342C1.18542 20.2733 1.05417 20.2635 0.969799 20.2635C0.651048 20.2635 0.407299 20.45 0.294799 20.6365C0.201049 20.7837 -0.0989514 21.2941 0.0510486 21.8046C0.135424 22.0794 0.313549 22.2856 0.576049 22.3935C0.810424 22.4917 1.10105 22.58 1.31667 22.6487C1.44792 22.9727 1.69167 23.3359 2.12292 23.6794C2.42292 23.9248 2.81667 24.0426 3.26667 24.0426C4.03542 24.0426 4.77605 23.699 4.85105 23.6598L4.87917 23.6401L4.88855 23.6303C5.03855 23.7874 5.22605 23.9052 5.4698 23.9543C5.5448 23.9739 5.63855 23.9837 5.75105 23.9837C6.16355 23.9837 6.45417 23.7579 6.72605 23.3457C6.94167 23.7089 7.3448 23.9052 7.81355 23.9052C7.84167 23.9052 7.86042 23.9248 7.89792 23.9248C8.14167 23.9248 8.46042 23.8365 8.71355 23.3948C8.92917 23.7972 9.32292 24.0328 9.79167 24.0328C10.2042 24.0328 10.5698 23.8561 10.6354 23.8168L10.6542 23.807C10.7948 23.7285 10.9073 23.6598 11.001 23.6107C11.3104 23.7874 11.7792 23.9739 12.3604 23.9739C12.4635 23.9739 12.5573 23.9739 12.6604 23.9543H12.7167C13.9354 23.699 14.7323 23.3948 15.2104 23.1592C15.5385 23.5518 16.0729 23.9248 16.8229 23.9837C16.9073 23.9935 16.9917 23.9935 17.076 23.9935C17.6948 23.9935 18.1917 23.807 18.5573 23.6107C18.6698 23.7383 18.8198 23.8561 19.0073 23.9346C19.1198 23.9837 19.2417 24.0033 19.3542 24.0033C20.1135 24.0033 20.4698 23.061 20.5635 22.7371L20.7417 22.2267C20.901 22.4033 21.1073 22.5506 21.3698 22.6291C21.5104 22.6684 21.6698 22.6978 21.8198 22.6978C22.6542 22.6978 23.4604 22.0794 23.5823 21.9714C23.7979 21.7457 24.0417 21.3334 23.9948 20.7739Z" fill="white"/>
<path d="M16.3363 21.0366C16.3363 21.0366 16.2331 20.6439 16.6269 19.8979C17.0206 19.1519 17.3207 19.5544 17.3207 19.5544C17.3207 19.5544 17.6581 19.9372 17.2738 20.5065C16.8894 21.0758 16.3363 21.0366 16.3363 21.0366ZM13.3269 21.5764C12.8769 22.8034 11.7894 22.3028 11.7894 22.3028C11.7894 22.3028 11.6675 21.8611 12.0238 20.6341C12.38 19.4071 13.205 19.8881 13.205 19.8881C13.205 19.8881 13.7769 20.3495 13.3269 21.5764ZM12.5113 16.4231C12.5113 16.4231 13.1863 14.5679 13.355 15.4709C13.5238 16.374 11.93 19.0537 11.93 19.0537C11.9488 18.455 12.5113 16.4231 12.5113 16.4231ZM2.80815 21.0366C2.83627 19.8488 3.5769 19.3286 3.8394 19.5838C4.1019 19.839 4.00815 20.4084 3.51127 20.7519C3.03315 21.1053 2.80815 21.0366 2.80815 21.0366ZM23.3675 20.8403C23.33 20.4378 22.9832 20.585 22.9832 20.585C22.9832 20.585 22.43 21.0366 21.9425 20.9875C21.455 20.9384 21.6144 19.7998 21.6144 19.7998C21.6144 19.7998 21.7175 18.7495 21.4363 18.6611C21.1456 18.5728 20.7988 18.936 20.7988 18.936C20.7988 18.936 20.3582 19.4464 20.1519 20.0942L20.0956 20.1139C20.0956 20.1139 20.1613 18.9752 20.0863 18.7102C20.03 18.5826 19.505 18.5924 19.4207 18.8182C19.3363 19.0439 18.9144 20.6439 18.8863 21.3212C18.8863 21.3212 18.0613 22.0476 17.3488 22.1752C16.6269 22.293 16.4581 21.8218 16.4581 21.8218C16.4581 21.8218 18.4081 21.2525 18.3425 19.6231C18.2769 17.9936 16.7675 18.5924 16.5988 18.7298C16.43 18.8574 15.5581 19.4169 15.2956 20.9482C15.2863 20.9973 15.2675 21.2329 15.2675 21.2329C15.2675 21.2329 14.5081 21.763 14.0956 21.9004C14.0956 21.9004 15.2675 19.8292 13.8331 18.8869C13.1863 18.4746 12.6613 19.3384 12.6613 19.3384C12.6613 19.3384 14.6019 17.0807 14.1706 15.1666C13.9644 14.2537 13.5331 14.1556 13.13 14.3028C12.5206 14.558 12.2956 14.9212 12.2956 14.9212C12.2956 14.9212 11.5081 16.109 11.33 17.8857C11.1519 19.6623 10.88 21.7924 10.88 21.7924C10.88 21.7924 10.505 22.1752 10.1675 22.1949C9.82065 22.2145 9.98002 21.1249 9.98002 21.1249C9.98002 21.1249 10.2425 19.466 10.2238 19.1814C10.205 18.8967 10.1863 18.7495 9.86752 18.6513C9.55815 18.5531 9.21127 18.9752 9.21127 18.9752C9.21127 18.9752 8.3019 20.4182 8.2269 20.6341L8.18002 20.7225L8.13315 20.6636C8.13315 20.6636 8.77065 18.7004 8.16127 18.6709C7.5519 18.6415 7.14877 19.3679 7.14877 19.3679C7.14877 19.3679 6.45502 20.5949 6.4269 20.7323L6.38002 20.6734C6.38002 20.6734 6.67065 19.2501 6.6144 18.8967C6.55815 18.5433 6.2394 18.6218 6.2394 18.6218C6.2394 18.6218 5.83627 18.5728 5.73315 18.8476C5.63002 19.1225 5.24565 20.909 5.19877 21.4783C5.19877 21.4783 4.19565 22.2341 3.5394 22.2341C2.88315 22.2439 2.94877 21.7924 2.94877 21.7924C2.94877 21.7924 5.36752 20.9286 4.71127 19.2108C4.41127 18.7691 4.07377 18.6317 3.58627 18.6415C3.09877 18.6513 2.5269 18.9654 2.13315 19.8783C1.94565 20.32 1.87065 20.7323 1.87065 21.0464C1.87065 21.0464 1.42065 21.1347 1.18627 20.9384C0.951899 20.7421 0.820649 20.9384 0.820649 20.9384C0.820649 20.9384 0.417524 21.5372 0.811274 21.6942C1.20502 21.8513 1.80502 22.0084 1.80502 22.0084C1.86127 22.2636 2.02065 22.6955 2.49877 23.0685C3.21127 23.6378 4.5894 22.9801 4.5894 22.9801L5.1519 22.6268C5.1519 22.6268 5.17065 23.1568 5.58315 23.2353C5.99565 23.3139 6.1644 23.2255 6.88627 21.4096C7.30815 20.4771 7.33627 20.5261 7.33627 20.5261L7.38315 20.5163C7.38315 20.5163 7.05502 22.293 7.18627 22.774C7.31752 23.255 7.8519 23.2059 7.8519 23.2059C7.8519 23.2059 8.1519 23.3139 8.38627 22.4304C8.63002 21.547 9.08002 20.6243 9.08002 20.6243H9.13627C9.13627 20.6243 8.9394 22.401 9.2394 22.9801C9.54877 23.5593 10.3363 23.1568 10.3363 23.1568C10.3363 23.1568 10.8894 22.8525 10.9738 22.7642C10.9738 22.7642 11.63 23.3433 12.5581 23.2353C14.63 22.8034 15.3706 22.2243 15.3706 22.2243C15.3706 22.2243 15.7269 23.1666 16.8331 23.255C18.0988 23.3531 18.7831 22.5188 18.7831 22.5188C18.7831 22.5188 18.7738 23.0587 19.2144 23.2452C19.655 23.4317 19.955 22.4304 19.955 22.4304L20.6957 20.3593H20.7613C20.7613 20.3593 20.7988 21.6844 21.53 21.9004C22.2613 22.1163 23.2081 21.3507 23.2081 21.3507C23.2081 21.3507 23.4144 21.2427 23.3675 20.8403Z" fill="#E24B31"/>
</g>
<defs>
<clipPath id="clip0_1_8122">
<rect width="24" height="24" fill="white"/>
</clipPath>
</defs>
</svg>
