<svg width="175" height="35" viewBox="0 0 175 35" fill="none" xmlns="http://www.w3.org/2000/svg">
<path d="M11.0565 34.4606H4.48002V17.4739H0V11.9433H4.47985V8.00798C4.47985 3.34457 6.46129 0 13.02 0C14.4071 0 16.5849 0.2897 16.5849 0.2897V5.4251H14.2975C11.9669 5.4251 11.0569 6.15965 11.0569 8.19045V11.9433H16.4977L16.0132 17.4739H11.0567L11.0565 34.4606ZM26.1464 11.5014C26.0506 11.5014 25.952 11.505 25.8544 11.5075C19.7563 11.5075 16.9663 16.2603 16.9663 23.0069C16.9663 31.5059 20.5853 34.9074 25.9021 34.9074C28.944 34.9074 30.9425 33.5808 32.1572 31.1051V34.4629H38.4124V11.9457H32.1572V15.4085C31.1654 13.1806 29.111 11.5278 26.1464 11.5014ZM27.7369 16.8221C30.2981 16.8221 31.8354 18.6732 31.8354 21.8217L31.8413 25.0375C31.8413 27.1597 30.5716 29.6424 27.7369 29.6424C23.3789 29.6424 23.4953 24.7666 23.4953 23.1427C23.4953 17.6802 25.8172 16.8221 27.7369 16.8221ZM40.9386 23.2055C40.9386 20.4692 40.8122 11.516 52.0701 11.516C56.5892 11.516 58.4763 13.0049 58.4763 13.0049L56.9596 17.8789C56.9596 17.8789 55.075 16.8037 52.6194 16.8037C49.4741 16.8037 47.4672 18.6929 47.4672 22.0168L47.4707 24.4003C47.4707 27.5942 49.4071 29.7263 52.6258 29.7263C54.863 29.7263 56.9249 28.6409 56.9249 28.6409L58.4377 33.4132C58.4377 33.4132 56.7123 34.9114 52.1017 34.9114C41.3824 34.9114 40.9387 26.8786 40.9387 23.2055H40.9386ZM95.1526 11.5075C101.251 11.5075 104.085 16.2603 104.085 23.0069C104.085 31.5059 100.466 34.9074 95.1489 34.9074C92.1071 34.9074 89.8584 33.581 88.6437 31.1051V34.4629L82.4672 34.4604V0.684647L89.025 0.0920458V15.1035C89.9715 12.4772 93.082 11.5075 95.1528 11.5075H95.1526ZM93.3141 16.8221C90.7529 16.8221 89.025 18.6732 89.025 21.8217L89.0189 25.0375C89.0151 27.1597 90.2155 29.6424 93.3141 29.6424C97.6721 29.6424 97.5557 24.7666 97.5557 23.1427C97.5557 17.6802 95.2339 16.8221 93.3141 16.8221ZM69.8546 11.5262C62.938 11.5262 59.2864 15.4335 59.2864 22.3773V23.6673C59.2864 32.6797 64.4143 35 70.5278 35C76.47 35 79.1597 33.2779 79.1597 33.2779L77.9326 28.6919C77.9326 28.6919 74.7687 30.0867 71.314 30.0867C67.7327 30.0867 66.1924 29.1409 65.7976 25.5748H79.684V21.8957C79.684 14.3635 75.5858 11.526 69.8544 11.526L69.8546 11.5262ZM70.0213 16.1183C72.4155 16.1183 73.9669 17.6395 73.8817 21.1675H65.8097C65.9496 17.4543 67.6227 16.1185 70.0213 16.1185V16.1183ZM117.161 11.4952C110.058 11.4952 106.319 15.6425 106.319 23.0747C106.319 33.2721 112.764 34.9136 117.173 34.9136C123.626 34.9136 127.92 31.3136 127.92 23.1673C127.92 14.6884 123.092 11.4952 117.161 11.4952ZM117.072 16.8406C120.195 16.8406 121.432 19.2625 121.432 22.0194V24.3896C121.432 27.7293 119.701 29.661 117.06 29.661C114.59 29.661 112.854 27.8541 112.854 24.3896V22.0194C112.854 18.3245 114.919 16.8406 117.072 16.8406ZM140.984 11.4952C133.881 11.4952 130.142 15.6425 130.142 23.0747C130.142 33.2721 136.588 34.9136 140.996 34.9136C147.449 34.9136 151.743 31.3136 151.743 23.1673C151.743 14.6884 146.915 11.4952 140.984 11.4952ZM140.895 16.8406C144.018 16.8406 145.255 19.2625 145.255 22.0194V24.3896C145.255 27.7293 143.524 29.661 140.883 29.661C138.413 29.661 136.677 27.8541 136.677 24.3896V22.0194C136.677 18.3245 138.742 16.8406 140.895 16.8406ZM154.221 34.4606V0.684647L160.798 0.0920458V22.7308L167.323 11.9433H174.268L167.462 23.116L174.53 34.4606H167.565L160.798 23.4451V34.4606H154.221Z" fill="#1877F2"/>
</svg>
