<svg width="16" height="24" viewBox="0 0 16 24" fill="none" xmlns="http://www.w3.org/2000/svg">
<path d="M3.69231 23.3846C5.73046 23.3846 7.38462 21.7305 7.38462 19.6923V16H3.69231C1.65415 16 0 17.6542 0 19.6923C0 21.7305 1.65415 23.3846 3.69231 23.3846Z" fill="#0ACF83"/>
<path d="M0 11.6922C0 9.31437 1.65415 7.38452 3.69231 7.38452H7.38462V15.9999H3.69231C1.65415 15.9999 0 14.0701 0 11.6922Z" fill="#A259FF"/>
<path d="M0 3.69231C0 1.65415 1.65415 0 3.69231 0H7.38462V7.38462H3.69231C1.65415 7.38462 0 5.73046 0 3.69231Z" fill="#F24E1E"/>
<path d="M7.38477 0H11.6925C14.0703 0 16.0002 1.65415 16.0002 3.69231C16.0002 5.73046 14.0703 7.38462 11.6925 7.38462H7.38477V0Z" fill="#FF7262"/>
<path d="M16.0002 11.6922C16.0002 14.0701 14.0703 15.9999 11.6925 15.9999C9.31461 15.9999 7.38477 14.0701 7.38477 11.6922C7.38477 9.31437 9.31461 7.38452 11.6925 7.38452C14.0703 7.38452 16.0002 9.31437 16.0002 11.6922Z" fill="#1ABCFE"/>
</svg>
