<svg width="12" height="17" viewBox="0 0 12 17" fill="none" xmlns="http://www.w3.org/2000/svg">
<path d="M2.25 3.09091H9.75V4.63636H11.25V1.54545C11.25 0.695454 10.575 0.00772727 9.75 0.00772727L2.25 0C1.425 0 0.75 0.695454 0.75 1.54545V4.63636H2.25V3.09091ZM8.5575 12.0468L12 8.5L8.5575 4.95318L7.5 6.05045L9.8775 8.5L7.5 10.9495L8.5575 12.0468ZM4.5 10.9495L2.1225 8.5L4.5 6.05045L3.4425 4.95318L0 8.5L3.4425 12.0468L4.5 10.9495ZM9.75 13.9091H2.25V12.3636H0.75V15.4545C0.75 16.3045 1.425 17 2.25 17H9.75C10.575 17 11.25 16.3045 11.25 15.4545V12.3636H9.75V13.9091Z" fill="#121212"/>
</svg>
