<svg width="16" height="20" viewBox="0 0 16 20" fill="none" xmlns="http://www.w3.org/2000/svg">
<path d="M3 3.63636H13V5.45455H15V1.81818C15 0.818182 14.1 0.0090909 13 0.0090909L3 0C1.9 0 1 0.818182 1 1.81818V5.45455H3V3.63636ZM11.41 14.1727L16 10L11.41 5.82727L10 7.11818L13.17 10L10 12.8818L11.41 14.1727ZM6 12.8818L2.83 10L6 7.11818L4.59 5.82727L0 10L4.59 14.1727L6 12.8818ZM13 16.3636H3V14.5455H1V18.1818C1 19.1818 1.9 20 3 20H13C14.1 20 15 19.1818 15 18.1818V14.5455H13V16.3636Z" fill="white"/>
</svg>
