<svg width="111" height="40" viewBox="0 0 111 40" fill="none" xmlns="http://www.w3.org/2000/svg">
<path d="M106.967 24.4285L110.028 26.6871C109.035 28.3067 106.658 31.0853 102.549 31.0853C97.4465 31.0853 93.6465 26.7168 93.6465 21.1596C93.6465 15.2458 97.4868 11.2339 102.119 11.2339C106.779 11.2339 109.061 15.3349 109.8 17.5489L110.203 18.6782L98.1985 24.1759C99.1116 26.167 100.535 27.1774 102.549 27.1774C104.563 27.1774 105.96 26.0779 106.967 24.4285ZM97.5539 20.8475L105.57 17.1626C105.127 15.9293 103.811 15.0526 102.24 15.0526C100.239 15.0526 97.46 17.014 97.5539 20.8475Z" fill="#FF302F"/>
<path d="M87.8589 1.11426H91.726V30.1781H87.8589V1.11426Z" fill="#20B15A"/>
<path d="M81.7622 12.0063H85.4951V29.6586C85.4951 36.984 81.5876 40.0003 76.9685 40.0003C72.6179 40.0003 69.9995 36.7611 69.0193 34.1311L72.4434 32.556C73.061 34.1756 74.5515 36.0924 76.9685 36.0924C79.936 36.0924 81.7622 34.0568 81.7622 30.2529V28.8265H81.6279C80.7417 30.0152 79.0498 31.085 76.9014 31.085C72.4165 31.085 68.3076 26.7611 68.3076 21.189C68.3076 15.5872 72.4165 11.2188 76.9014 11.2188C79.0364 11.2188 80.7417 12.2737 81.6279 13.4327H81.7622V12.0063ZM82.0308 21.189C82.0308 17.6823 79.9226 15.1266 77.2371 15.1266C74.5247 15.1266 72.2419 17.6823 72.2419 21.189C72.2419 24.6511 74.5247 27.1623 77.2371 27.1623C79.9226 27.1771 82.0308 24.6511 82.0308 21.189Z" fill="#3686F7"/>
<path d="M47.0786 21.1134C47.0786 26.8341 43.0503 31.0391 38.1089 31.0391C33.1675 31.0391 29.1392 26.8192 29.1392 21.1134C29.1392 15.363 33.1675 11.1729 38.1089 11.1729C43.0503 11.1729 47.0786 15.363 47.0786 21.1134ZM43.1577 21.1134C43.1577 17.5473 40.8213 15.0956 38.1089 15.0956C35.3965 15.0956 33.0601 17.5473 33.0601 21.1134C33.0601 24.6498 35.3965 27.1312 38.1089 27.1312C40.8213 27.1312 43.1577 24.6498 43.1577 21.1134Z" fill="#FF302F"/>
<path d="M66.6699 21.1596C66.6699 26.8802 62.6416 31.0853 57.7002 31.0853C52.7588 31.0853 48.7305 26.8802 48.7305 21.1596C48.7305 15.4092 52.7588 11.2339 57.7002 11.2339C62.6416 11.2339 66.6699 15.3944 66.6699 21.1596ZM62.7356 21.1596C62.7356 17.5935 60.3992 15.1418 57.6868 15.1418C54.9744 15.1418 52.6379 17.5935 52.6379 21.1596C52.6379 24.696 54.9744 27.1774 57.6868 27.1774C60.4126 27.1774 62.7356 24.6811 62.7356 21.1596Z" fill="#FFBA40"/>
<path d="M14.3958 26.731C8.76954 26.731 4.36524 21.7087 4.36524 15.4829C4.36524 9.25705 8.76954 4.23477 14.3958 4.23477C17.4304 4.23477 19.646 5.5572 21.2842 7.25111L23.9832 4.26448C21.7005 1.84249 18.6524 0 14.3958 0C6.68824 0 0.202637 6.95393 0.202637 15.4829C0.202637 24.0119 6.68824 30.9658 14.3958 30.9658C18.5584 30.9658 21.7005 29.4502 24.1577 26.627C26.6821 23.8336 27.461 19.9108 27.461 16.731C27.461 15.7355 27.3535 14.7102 27.2327 13.9524H14.3958V18.0832H23.5401C23.2715 20.6686 22.533 22.4368 21.4453 23.6404C20.1294 25.1114 18.0481 26.731 14.3958 26.731Z" fill="#3686F7"/>
</svg>
