<svg width="17" height="24" viewBox="0 0 17 24" fill="none" xmlns="http://www.w3.org/2000/svg">
<g clip-path="url(#clip0_1_5913)">
<path d="M16.9702 4.70508L15.4268 22.0143L8.48939 23.9398L1.57105 22.017L0.0292969 4.70508H16.9702Z" fill="#E44D26"/>
<path d="M8.5 22.4676L14.1058 20.9117L15.4246 6.12012H8.5V22.4676Z" fill="#F16529"/>
<path d="M5.49942 10.3664H8.49965V8.24316H3.18164L3.23237 8.81278L3.75366 14.6639H8.49965V12.5406H5.69326L5.49942 10.3664ZM5.97741 15.7255H3.84843L4.14553 19.0593L8.48989 20.2666L8.49965 20.264V18.0549L8.49036 18.0574L6.12842 17.4189L5.97741 15.7255Z" fill="#EBEBEB"/>
<path d="M1.60449 0H2.68227V1.06604H3.6682V0H4.74604V3.22823H3.66827V2.14724H2.68233V3.22823H1.60456V0H1.60449ZM6.16328 1.07056H5.2146V0H8.19053V1.07056H7.24125V3.22823H6.16348V1.07056H6.16341H6.16328ZM8.66281 0H9.78661L10.4779 1.13432L11.1685 0H12.2928V3.22823H11.2194V1.62814L10.4779 2.77596H10.4593L9.71734 1.62814V3.22823H8.66281V0ZM12.8291 0H13.9072V2.1612H15.4229V3.22823H12.8291V0H12.8291Z" fill="black"/>
<path d="M8.49225 14.6639H11.1038L10.8576 17.4175L8.49219 18.0567V20.2656L12.84 19.0593L12.8719 18.7006L13.3703 13.1108L13.4221 12.5406H8.49225V14.6639ZM8.49225 10.3612V10.3664H13.615L13.6575 9.88919L13.7542 8.81278L13.8049 8.24316H8.49225V10.3613V10.3612Z" fill="white"/>
</g>
<defs>
<clipPath id="clip0_1_5913">
<rect width="17" height="24" fill="white"/>
</clipPath>
</defs>
</svg>
