<svg width="25" height="24" viewBox="0 0 25 24" fill="none" xmlns="http://www.w3.org/2000/svg">
<g clip-path="url(#clip0_1_4450)">
<path d="M14.2993 5.601C13.6713 4.073 13.7593 2.354 14.6663 0.971L15.3443 0C14.0903 2.35 15.2843 5.236 17.2043 6.749C17.7181 7.15111 18.2909 7.47154 18.9023 7.699C19.0663 7.759 19.2523 7.823 19.4223 7.866C21.5683 8.406 23.3173 8.033 24.3583 6.477C24.3263 6.525 24.2853 6.601 24.2333 6.697C23.7693 7.557 22.4113 10.074 18.4733 9.284C18.3983 9.269 18.3263 9.244 18.2543 9.221L18.1903 9.199L18.1443 9.184C18.1231 9.17666 18.1018 9.16966 18.0803 9.163C18.022 9.14293 17.964 9.12192 17.9063 9.1C16.3213 8.496 14.9623 7.224 14.2993 5.601Z" fill="black"/>
<path d="M9.11688 2.96598C7.57988 5.26098 7.66388 8.33398 8.86288 10.762C9.08457 11.2138 9.33926 11.6486 9.62488 12.063C9.83388 12.376 10.0639 12.723 10.3329 12.965C10.4439 13.092 10.5599 13.215 10.6779 13.336L10.7459 13.406L10.7689 13.429C10.8883 13.5497 11.0106 13.6674 11.1359 13.782L11.1369 13.783L11.1389 13.785C11.29 13.9217 11.4451 14.0541 11.6039 14.182L11.6439 14.214C11.7839 14.326 11.9269 14.436 12.0739 14.541L12.0799 14.545L12.0869 14.55C12.1339 14.584 12.1819 14.617 12.2299 14.649L12.2829 14.685C12.3143 14.7057 12.3453 14.7271 12.3759 14.749C12.4809 14.819 12.5869 14.886 12.6949 14.952L12.7249 14.969L12.7399 14.979C12.8557 15.048 12.9727 15.115 13.0909 15.18L13.1219 15.196L13.1619 15.218C13.2139 15.246 13.2659 15.275 13.3199 15.302L13.3499 15.317C13.5046 15.3957 13.6613 15.4704 13.8199 15.541L13.8519 15.554C14.0007 15.6195 14.1511 15.6815 14.3029 15.74L14.3329 15.751C14.4359 15.791 14.5389 15.827 14.6429 15.863L14.6949 15.881L14.7829 15.91C14.8219 15.922 14.8609 15.936 14.8989 15.949C15.0079 15.987 15.1169 16.024 15.2309 16.044C23.1649 17.408 24.9969 11.068 24.9969 11.068C23.3459 13.536 20.1479 14.714 16.7359 13.794C16.5848 13.7527 16.4348 13.7077 16.2859 13.659C16.2456 13.6465 16.2056 13.6332 16.1659 13.619L16.1509 13.614C16.0455 13.5786 15.9408 13.5413 15.8369 13.502L15.8339 13.5C15.6613 13.4347 15.4906 13.3646 15.3219 13.29L15.2659 13.265C15.0693 13.1761 14.8758 13.0804 14.6859 12.978L14.6439 12.956L14.5239 12.892C14.4143 12.8308 14.306 12.7674 14.1989 12.702C13.9874 12.5728 13.7806 12.436 13.5789 12.292C13.4332 12.1868 13.2902 12.0781 13.1499 11.966L13.1149 11.937C13.0944 11.9204 13.0741 11.9038 13.0539 11.887C11.5599 10.663 10.3759 8.98998 9.81388 7.09398C9.22388 5.12598 9.35088 2.91798 10.3729 1.12598L9.11688 2.96598Z" fill="black"/>
<path d="M2.52169 5.63713C0.39769 8.80713 0.66169 12.9321 2.28469 16.3001C2.31469 16.3651 2.34769 16.4291 2.37969 16.4921L2.40369 16.5401L2.43369 16.5991C2.45884 16.6516 2.48552 16.7032 2.51369 16.7541L2.52669 16.7791L2.59669 16.9091L2.61169 16.9361C2.66169 17.0281 2.71369 17.1201 2.76669 17.2121L2.78369 17.2421C2.86383 17.3819 2.94752 17.5196 3.03469 17.6551L3.05269 17.6851L3.11169 17.7781C3.19569 17.9081 3.28169 18.0391 3.37169 18.1681V18.1691C3.37382 18.1723 3.37616 18.1753 3.37869 18.1781L3.40269 18.2111L3.42269 18.2391C3.50069 18.3491 3.57969 18.4591 3.66069 18.5671L3.75069 18.6851C3.9467 18.9391 4.14944 19.1879 4.35869 19.4311L4.36469 19.4381L4.36969 19.4431L4.37669 19.4511C4.58884 19.6901 4.80828 19.9226 5.03469 20.1481L5.06469 20.1781L5.13569 20.2481C5.24902 20.3589 5.36437 20.4676 5.48169 20.5741L5.51469 20.6041L5.54069 20.6261C5.66584 20.7379 5.79252 20.8479 5.92069 20.9561L5.97669 21.0031C6.06169 21.0731 6.14769 21.1431 6.23469 21.2111L6.37169 21.3201C6.46769 21.3931 6.56369 21.4651 6.66069 21.5351L6.67669 21.5471L6.76669 21.6131L6.79469 21.6331C6.88269 21.6971 6.97169 21.7571 7.06169 21.8171L7.07569 21.8271C7.11604 21.8543 7.15605 21.8819 7.19569 21.9101C7.36263 22.0197 7.53166 22.1261 7.70269 22.2291L7.75669 22.2611C7.9081 22.3506 8.06113 22.4372 8.21569 22.5211L8.26869 22.5501L8.32769 22.5821C8.38669 22.6141 8.44469 22.6461 8.50469 22.6771L8.52969 22.6891L8.55969 22.7041L8.59369 22.7211C8.61369 22.7311 8.63469 22.7411 8.65569 22.7531C8.77969 22.8141 8.90369 22.8741 9.02969 22.9331L9.07669 22.9541L9.10869 22.9691C9.42118 23.1114 9.73909 23.2415 10.0617 23.3591L10.0717 23.3621L10.1137 23.3781C10.3417 23.4601 10.5717 23.5361 10.8037 23.6061C10.9197 23.6451 11.0367 23.6831 11.1567 23.7061C21.4337 25.6521 24.4187 17.2961 24.4187 17.2961C21.9117 20.6861 17.4617 21.5811 13.2447 20.5851C13.086 20.5466 12.9292 20.5009 12.7747 20.4481L12.6567 20.4111C12.5047 20.3631 12.3537 20.3111 12.2037 20.2581L12.1417 20.2351C12.0067 20.1851 11.8747 20.1351 11.7417 20.0811L11.6297 20.0351C11.4849 19.9758 11.3412 19.9138 11.1987 19.8491L11.1527 19.8291C11.0172 19.7662 10.8825 19.7015 10.7487 19.6351L10.7077 19.6131C10.6863 19.6029 10.665 19.5926 10.6437 19.5821L10.4297 19.4691L10.3617 19.4331C10.3394 19.421 10.3171 19.409 10.2947 19.3971L10.1747 19.3311C10.0607 19.2681 9.94869 19.2011 9.83669 19.1341L9.79369 19.1091L9.72369 19.0691C9.54961 18.9617 9.37758 18.851 9.20769 18.7371L9.16469 18.7071C8.73791 18.4226 8.32882 18.1123 7.93969 17.7781C7.8208 17.6776 7.70345 17.5752 7.58769 17.4711L7.57169 17.4561C7.41968 17.3163 7.27032 17.1736 7.12369 17.0281C7.039 16.9445 6.95566 16.8595 6.87369 16.7731L6.83969 16.7391C6.71017 16.6038 6.58348 16.4657 6.45969 16.3251L6.45369 16.3191L6.45169 16.3161C6.34569 16.1961 6.24169 16.0721 6.13969 15.9481L6.05769 15.8471C5.95301 15.7173 5.85066 15.5856 5.75069 15.4521C5.66269 15.3321 5.57569 15.2141 5.49069 15.0931C3.15069 11.7791 2.30969 7.20712 4.18069 3.45312L2.52169 5.63713Z" fill="black"/>
</g>
<defs>
<clipPath id="clip0_1_4450">
<rect width="24" height="24" fill="white" transform="translate(0.998047)"/>
</clipPath>
</defs>
</svg>
