<svg width="24" height="24" viewBox="0 0 24 24" fill="none" xmlns="http://www.w3.org/2000/svg">
<g clip-path="url(#clip0_1_5929)">
<path d="M0 0H24V24H0V0Z" fill="#F7DF1E"/>
<path d="M6.31064 20.0559L8.1472 18.9444C8.50158 19.5727 8.82389 20.1042 9.59705 20.1042C10.3381 20.1042 10.8055 19.8143 10.8055 18.6867V11.0182H13.0608V18.7186C13.0608 21.0546 11.6915 22.1179 9.6937 22.1179C7.88948 22.1179 6.8422 21.1835 6.31055 20.0558M14.2859 19.8143L16.1222 18.751C16.6057 19.5405 17.234 20.1204 18.3455 20.1204C19.2801 20.1204 19.876 19.6532 19.876 19.0088C19.876 18.2355 19.2638 17.9616 18.2327 17.5106L17.669 17.2688C16.0418 16.5762 14.9625 15.7062 14.9625 13.8697C14.9625 12.178 16.2512 10.8892 18.2651 10.8892C19.6989 10.8892 20.73 11.3887 21.471 12.6936L19.7148 13.8214C19.3281 13.1287 18.9094 12.8548 18.265 12.8548C17.6044 12.8548 17.1855 13.2737 17.1855 13.8214C17.1855 14.498 17.6044 14.772 18.571 15.1909L19.1348 15.4325C21.052 16.2542 22.1313 17.0918 22.1313 18.9766C22.1313 21.0067 20.5365 22.1182 18.3938 22.1182C16.2995 22.1182 14.9462 21.1193 14.2858 19.8143" fill="black"/>
</g>
<defs>
<clipPath id="clip0_1_5929">
<rect width="24" height="24" fill="white"/>
</clipPath>
</defs>
</svg>
