<svg width="22" height="25" viewBox="0 0 22 25" fill="none" xmlns="http://www.w3.org/2000/svg">
<path d="M6.01886 5.54102L9.63566 13.5305L5.75633 14.959L3.80859 6.35568L6.01886 5.54264V5.54102Z" fill="black"/>
<path d="M13.6059 18.6785L11.7051 14.4789L16.3353 12.7734L18.044 15.7373L13.6059 18.6785Z" fill="black"/>
<path d="M17.8702 10.5016L16.958 10.8369L16.1982 9.51853L17.0445 9.28369L17.8702 10.5V10.5016Z" fill="black"/>
<path fill-rule="evenodd" clip-rule="evenodd" d="M0 4.08808C0 3.01422 0.386308 1.98433 1.07394 1.22499C1.76158 0.465654 2.69421 0.0390625 3.66667 0.0390625L18.3333 0.0390625C19.3058 0.0390625 20.2384 0.465654 20.9261 1.22499C21.6137 1.98433 22 3.01422 22 4.08808V20.2842C22 21.358 21.6137 22.3879 20.9261 23.1472C20.2384 23.9066 19.3058 24.3332 18.3333 24.3332H3.66667C2.69421 24.3332 1.76158 23.9066 1.07394 23.1472C0.386308 22.3879 0 21.358 0 20.2842L0 4.08808ZM7.04587 4.1885C6.96675 4.01448 6.83351 3.87776 6.67055 3.8034C6.50758 3.72904 6.32581 3.72201 6.15853 3.7836L2.7016 5.05499C2.52619 5.1195 2.37932 5.25479 2.29039 5.43378C2.20146 5.61277 2.17703 5.82225 2.222 6.02027L4.52613 16.1995C4.55047 16.308 4.59489 16.4098 4.65661 16.4985C4.71832 16.5871 4.79599 16.6607 4.88472 16.7146C4.97345 16.7684 5.07132 16.8014 5.17217 16.8114C5.27301 16.8215 5.37465 16.8083 5.47067 16.7729L10.2989 14.9945L12.6485 20.1837C12.6937 20.2836 12.7572 20.3721 12.8348 20.4437C12.9125 20.5152 13.0027 20.5682 13.0998 20.5994C13.1969 20.6306 13.2988 20.6393 13.3991 20.6249C13.4994 20.6105 13.5959 20.5733 13.6825 20.5158L19.4436 16.6983C19.5276 16.6428 19.6006 16.5692 19.6585 16.4819C19.7163 16.3947 19.7577 16.2955 19.7802 16.1903C19.8028 16.0851 19.806 15.9759 19.7898 15.8693C19.7735 15.7627 19.7381 15.6607 19.6856 15.5695L17.7701 12.2444L19.2984 11.6824C19.4088 11.6419 19.5089 11.573 19.5904 11.4813C19.6719 11.3897 19.7325 11.2779 19.7672 11.1553C19.8019 11.0327 19.8096 10.9027 19.7898 10.7761C19.77 10.6495 19.7233 10.5299 19.6533 10.4272L17.9256 7.88282C17.8389 7.75514 17.72 7.65857 17.5838 7.60527C17.4476 7.55196 17.3001 7.54428 17.16 7.5832L14.8559 8.2197C14.7433 8.25098 14.6391 8.31131 14.5518 8.39573C14.4645 8.48014 14.3965 8.58624 14.3536 8.7053C14.3106 8.82435 14.2939 8.95296 14.3047 9.08056C14.3155 9.20816 14.3536 9.33109 14.4159 9.43927L15.5232 11.3634L11.044 13.0137L7.04587 4.1885Z" fill="black"/>
</svg>
