<svg width="136" height="34" viewBox="0 0 136 34" fill="none" xmlns="http://www.w3.org/2000/svg">
<path d="M18.6341 31.8085C16.5955 32.1408 14.521 32.2404 12.3751 32.5058L5.82978 14.7091V33.2696C3.79119 33.4688 1.93139 33.7344 0 34V0H5.43659L12.8758 19.2913V0H18.6341V31.8085ZM29.9005 12.4512C32.1181 12.4512 35.5159 12.3515 37.5544 12.3515V17.6639C35.0149 17.6639 32.0465 17.6639 29.9005 17.7636V25.666C33.2626 25.4669 36.6246 25.201 40.0222 25.1014V30.2144L24.1777 31.3767V0H40.0222V5.31251H29.9005V12.4512ZM61.303 5.31263H55.3659V29.7501C53.4345 29.7501 51.5031 29.7501 49.6436 29.8163V5.31263H43.7065V0H61.3033L61.303 5.31263ZM70.6021 12.086H78.435V17.3984H70.6021V29.4513H64.9865V0H80.9744V5.31251H70.6021V12.086ZM90.2735 24.8027C93.5283 24.8689 96.8186 25.1018 100.002 25.2675V30.5137C94.8875 30.2146 89.7729 29.9162 84.5511 29.8163V0H90.2735V24.8027ZM104.83 30.8789C106.654 30.9787 108.586 31.0783 110.446 31.2772V0H104.83V30.8789ZM135.518 0L128.257 16.17L135.518 34C133.372 33.7344 131.226 33.3691 129.08 33.037L124.967 23.2091L120.782 32.2404C118.708 31.9081 116.705 31.8085 114.631 31.5428L121.998 15.9706L115.346 0H121.497L125.253 8.93166L129.259 0L135.518 0Z" fill="#D81F26"/>
</svg>
