<svg width="18" height="18" viewBox="0 0 18 18" fill="none" xmlns="http://www.w3.org/2000/svg">
<path d="M8.99935 0.666992C4.39102 0.666992 0.666016 4.39199 0.666016 9.00033C0.666016 13.6087 4.39102 17.3337 8.99935 17.3337C13.6077 17.3337 17.3327 13.6087 17.3327 9.00033C17.3327 4.39199 13.6077 0.666992 8.99935 0.666992ZM12.5827 12.5837C12.5056 12.6609 12.414 12.7222 12.3132 12.764C12.2124 12.8058 12.1043 12.8274 11.9952 12.8274C11.886 12.8274 11.778 12.8058 11.6772 12.764C11.5764 12.7222 11.4848 12.6609 11.4077 12.5837L8.99935 10.1753L6.59102 12.5837C6.4352 12.7395 6.22387 12.827 6.00352 12.827C5.78316 12.827 5.57183 12.7395 5.41602 12.5837C5.2602 12.4278 5.17267 12.2165 5.17267 11.9962C5.17267 11.887 5.19416 11.779 5.23591 11.6782C5.27766 11.5774 5.33886 11.4858 5.41602 11.4087L7.82435 9.00033L5.41602 6.59199C5.2602 6.43618 5.17267 6.22485 5.17267 6.00449C5.17267 5.78414 5.2602 5.57281 5.41602 5.41699C5.57183 5.26118 5.78316 5.17364 6.00352 5.17364C6.22387 5.17364 6.4352 5.26118 6.59102 5.41699L8.99935 7.82533L11.4077 5.41699C11.4848 5.33984 11.5764 5.27864 11.6772 5.23689C11.778 5.19513 11.8861 5.17364 11.9952 5.17364C12.1043 5.17364 12.2123 5.19513 12.3131 5.23689C12.4139 5.27864 12.5055 5.33984 12.5827 5.41699C12.6598 5.49414 12.721 5.58574 12.7628 5.68654C12.8045 5.78734 12.826 5.89538 12.826 6.00449C12.826 6.1136 12.8045 6.22164 12.7628 6.32244C12.721 6.42325 12.6598 6.51484 12.5827 6.59199L10.1743 9.00033L12.5827 11.4087C12.8993 11.7253 12.8993 12.2587 12.5827 12.5837Z" fill="#EC1C24" fill-opacity="0.8"/>
</svg>
