<svg width="22" height="20" viewBox="0 0 22 20" fill="none" xmlns="http://www.w3.org/2000/svg">
<path d="M1.16185 20C1.00129 19.9997 0.842549 19.9678 0.695715 19.9062C0.548882 19.8446 0.41717 19.7546 0.308955 19.6421C0.198784 19.5306 0.114715 19.3982 0.062263 19.2537C0.00981097 19.1091 -0.00983977 18.9557 0.00459903 18.8035L0.288125 15.8462L13.3859 3.42635L17.4791 7.30795L4.38478 19.7267L1.26716 19.9956C1.23215 19.9987 1.197 20.0001 1.16185 20ZM18.2961 6.53185L14.204 2.65025L16.6586 0.321952C16.766 0.219888 16.8937 0.13892 17.0342 0.0836772C17.1746 0.0284343 17.3252 0 17.4773 0C17.6294 0 17.78 0.0284343 17.9205 0.0836772C18.061 0.13892 18.1886 0.219888 18.2961 0.321952L20.7506 2.65025C20.8582 2.7522 20.9435 2.87327 21.0018 3.00653C21.06 3.1398 21.09 3.28264 21.09 3.4269C21.09 3.57116 21.06 3.71401 21.0018 3.84727C20.9435 3.98053 20.8582 4.1016 20.7506 4.20355L18.2972 6.53075L18.2961 6.53185Z" fill="black"/>
</svg>
