<svg width="39" height="11" viewBox="0 0 39 11" fill="none" xmlns="http://www.w3.org/2000/svg">
<path d="M3.17606 2.07696C4.92482 2.07696 6.35212 3.59007 6.35212 5.46064C6.35212 7.33138 4.92482 8.8581 3.17606 8.8581C2.62313 8.8581 2.09595 8.70687 1.64592 8.44547V11.0039L0 10.2611V5.47441C0 3.59007 1.42731 2.07696 3.17606 2.07696ZM18.9921 0V2.07696H20.5222V3.83761H18.9921V5.50196C18.9915 5.71708 19.0307 5.93021 19.1074 6.12908C19.184 6.32795 19.2967 6.50865 19.4389 6.66076C19.5811 6.81288 19.7501 6.93342 19.936 7.01545C20.1219 7.09749 20.3211 7.13939 20.5222 7.13876V8.89941C18.7992 8.89941 17.3977 7.42761 17.3462 5.59827V0.756555L18.9921 0ZM10.1197 2.07696V3.83761C9.91855 3.83698 9.71931 3.87888 9.5334 3.96092C9.34749 4.04295 9.17857 4.16349 9.03637 4.31561C8.89416 4.46772 8.78148 4.64842 8.70479 4.84729C8.6281 5.04616 8.58893 5.25929 8.58952 5.47441V8.89941H6.9436V5.37818L6.94558 5.32335C7.02312 3.51943 8.41387 2.07696 10.1197 2.07696ZM13.5401 2.07696C15.2888 2.07696 16.7033 3.59007 16.7161 5.47441C16.7161 7.34507 15.2888 8.87187 13.5401 8.87187C11.7913 8.87187 10.3639 7.34507 10.3639 5.47441C10.3639 3.60376 11.7913 2.07696 13.54 2.07696H13.5401ZM24.0969 2.07696C25.8457 2.07696 27.273 3.59007 27.273 5.47441C27.273 7.34507 25.8457 8.87187 24.0969 8.87187C22.3481 8.87187 20.9208 7.34507 20.9208 5.47441C20.9208 3.60376 22.3481 2.07696 24.097 2.07696H24.0969ZM35.8239 2.07696C37.5727 2.07696 39 3.59007 39 5.47441C39 7.34507 37.5727 8.87187 35.8239 8.87187C34.0752 8.87187 32.6479 7.34507 32.6479 5.47441C32.6479 3.60376 34.0752 2.07696 35.8239 2.07696ZM32.0049 2.07696V8.87187H30.3591V2.07696H32.0049ZM28.5974 6.58859C28.7377 6.58823 28.8766 6.61751 29.0063 6.67475C29.1359 6.73199 29.2537 6.81607 29.3529 6.92216C29.452 7.02824 29.5306 7.15424 29.5841 7.29291C29.6376 7.43159 29.665 7.5802 29.6647 7.73023C29.665 7.88025 29.6376 8.02887 29.5841 8.16755C29.5306 8.30622 29.452 8.43222 29.3529 8.5383C29.2537 8.64439 29.1359 8.72847 29.0063 8.78571C28.8766 8.84295 28.7377 8.87223 28.5974 8.87187C28.4572 8.87223 28.3183 8.84295 28.1886 8.78572C28.059 8.72848 27.9412 8.64441 27.842 8.53833C27.7429 8.43226 27.6643 8.30627 27.6108 8.1676C27.5572 8.02894 27.5299 7.88033 27.5302 7.73031C27.5298 7.58029 27.5572 7.43167 27.6107 7.29299C27.6642 7.15431 27.7428 7.0283 27.842 6.92221C27.9411 6.81612 28.0589 6.73203 28.1885 6.67478C28.3182 6.61753 28.4571 6.58824 28.5974 6.58859H28.5974ZM13.5401 3.83761C13.339 3.83697 13.1397 3.87887 12.9538 3.96089C12.7679 4.04292 12.599 4.16346 12.4567 4.31558C12.3145 4.4677 12.2018 4.64839 12.1251 4.84727C12.0484 5.04615 12.0093 5.25928 12.0099 5.47441C12.0093 5.68955 12.0484 5.9027 12.1251 6.10158C12.2018 6.30047 12.3145 6.48118 12.4567 6.6333C12.5989 6.78543 12.7679 6.90598 12.9538 6.98801C13.1397 7.07004 13.339 7.11194 13.5401 7.1113C14.3758 7.1113 15.0574 6.36851 15.0702 5.47441C15.0708 5.25929 15.0316 5.04616 14.955 4.84729C14.8783 4.64842 14.7656 4.46772 14.6234 4.31561C14.4812 4.16349 14.3123 4.04295 14.1263 3.96092C13.9404 3.87888 13.7412 3.83698 13.5401 3.83761ZM24.0969 3.83761C23.8958 3.83698 23.6965 3.87888 23.5106 3.96092C23.3247 4.04295 23.1558 4.16349 23.0136 4.31561C22.8714 4.46772 22.7587 4.64842 22.682 4.84729C22.6053 5.04616 22.5662 5.25929 22.5668 5.47441C22.5662 5.68955 22.6053 5.90268 22.682 6.10157C22.7587 6.30045 22.8714 6.48115 23.0136 6.63328C23.1558 6.7854 23.3247 6.90595 23.5106 6.98799C23.6965 7.07002 23.8958 7.11193 24.0969 7.1113C24.9327 7.1113 25.6271 6.36851 25.6271 5.47441C25.6277 5.25928 25.5885 5.04615 25.5118 4.84727C25.4351 4.64839 25.3225 4.4677 25.1802 4.31558C25.038 4.16346 24.8691 4.04292 24.6832 3.96089C24.4973 3.87887 24.298 3.83697 24.0969 3.83761ZM3.17606 3.83761C2.97496 3.83698 2.77571 3.87888 2.5898 3.96092C2.40389 4.04295 2.23497 4.16349 2.09277 4.31561C1.95056 4.46772 1.83788 4.64842 1.76119 4.84729C1.6845 5.04616 1.64533 5.25929 1.64592 5.47441C1.64532 5.68955 1.68448 5.90268 1.76117 6.10157C1.83785 6.30045 1.95053 6.48115 2.09274 6.63328C2.23495 6.7854 2.40387 6.90595 2.58978 6.98799C2.7757 7.07002 2.97495 7.11193 3.17606 7.1113C4.0119 7.1113 4.7062 6.36851 4.7062 5.47441C4.7068 5.25929 4.66762 5.04616 4.59094 4.84729C4.51425 4.64842 4.40156 4.46772 4.25936 4.31561C4.11715 4.16349 3.94824 4.04295 3.76232 3.96092C3.57641 3.87888 3.37717 3.83698 3.17606 3.83761ZM35.8239 3.83761C35.6228 3.83698 35.4236 3.87888 35.2377 3.96092C35.0518 4.04295 34.8828 4.16349 34.7406 4.31561C34.5984 4.46772 34.4858 4.64842 34.4091 4.84729C34.3324 5.04616 34.2932 5.25929 34.2938 5.47441C34.2932 5.68955 34.3324 5.90268 34.409 6.10157C34.4857 6.30045 34.5984 6.48115 34.7406 6.63328C34.8828 6.7854 35.0517 6.90595 35.2377 6.98799C35.4236 7.07002 35.6228 7.11193 35.8239 7.1113C36.6598 7.1113 37.3541 6.36851 37.3541 5.47441C37.3547 5.25929 37.3155 5.04616 37.2388 4.84729C37.1621 4.64842 37.0494 4.46772 36.9072 4.31561C36.765 4.16349 36.5961 4.04295 36.4102 3.96092C36.2243 3.87888 36.025 3.83698 35.8239 3.83761Z" fill="#3E4245"/>
</svg>
