<svg width="28" height="26" viewBox="0 0 28 26" fill="none" xmlns="http://www.w3.org/2000/svg">
<path d="M13.7784 0.0112131C6.73291 0.0112131 7.17847 2.87994 7.17847 2.87994V5.86079H13.8786V6.79523H4.51011C4.51011 6.79523 0 6.27195 0 13.0046C0 19.7372 3.98219 19.4634 3.98219 19.4634H6.28141V16.3228C6.28141 16.3228 6.1524 12.5729 10.1515 12.5729H16.8616C16.8616 12.5729 20.6046 12.6289 20.6046 9.16029V3.46863C20.6046 3.46863 21.1722 0 13.8151 0L13.7784 0.0112131ZM10.0751 2.00811C10.3133 2.00245 10.5479 2.06343 10.7493 2.18335C10.9507 2.30326 11.1098 2.47672 11.2065 2.68179C11.3032 2.88686 11.3331 3.11432 11.2925 3.33541C11.2519 3.55651 11.1426 3.7613 10.9784 3.92389C10.8142 4.08649 10.6025 4.19957 10.37 4.24886C10.1376 4.29814 9.89484 4.28141 9.67249 4.20077C9.45014 4.12013 9.25817 3.97921 9.12087 3.79583C8.98357 3.61245 8.9071 3.39485 8.90114 3.17055V3.15186C8.90114 2.851 9.02806 2.56245 9.25398 2.34971C9.4799 2.13697 9.78632 2.01745 10.1058 2.01745L10.0751 2.00811Z" fill="url(#paint0_linear_1_8771)"/>
<path d="M13.9771 25.9977C21.0225 25.9977 20.577 23.1196 20.577 23.1196V20.1481H13.8778V19.2137H23.2751C23.2751 19.2137 27.7852 19.6884 27.7852 12.995C27.7852 6.30162 23.803 6.53616 23.803 6.53616H21.4741V9.63569C21.4741 9.63569 21.6031 13.3856 17.604 13.3856H10.8909C10.8909 13.3856 7.14491 13.3323 7.14491 16.801V22.5309C7.14491 22.5309 6.5773 25.9996 13.9344 25.9996H13.9741L13.9771 25.9977ZM17.6804 23.9915C17.4422 23.9971 17.2076 23.9361 17.0062 23.8162C16.8048 23.6963 16.6457 23.5228 16.549 23.3178C16.4523 23.1127 16.4224 22.8852 16.463 22.6642C16.5035 22.4431 16.6129 22.2383 16.777 22.0757C16.9412 21.9131 17.153 21.8 17.3854 21.7507C17.6179 21.7014 17.8606 21.7182 18.083 21.7988C18.3053 21.8794 18.4973 22.0204 18.6346 22.2037C18.7719 22.3871 18.8484 22.6047 18.8543 22.829V22.8571C18.8543 23.1579 18.7274 23.4465 18.5015 23.6592C18.2756 23.8719 17.9691 23.9915 17.6496 23.9915H17.6794H17.6804Z" fill="url(#paint1_linear_1_8771)"/>
<defs>
<linearGradient id="paint0_linear_1_8771" x1="2.74592" y1="2.55559" x2="15.1408" y2="15.6885" gradientUnits="userSpaceOnUse">
<stop stop-color="#387EB8"/>
<stop offset="1" stop-color="#366994"/>
</linearGradient>
<linearGradient id="paint1_linear_1_8771" x1="10.5461" y1="10.6249" x2="24.8211" y2="23.8592" gradientUnits="userSpaceOnUse">
<stop stop-color="#FFE052"/>
<stop offset="1" stop-color="#FFC331"/>
</linearGradient>
</defs>
</svg>
