<svg width="14" height="14" viewBox="0 0 14 14" fill="none" xmlns="http://www.w3.org/2000/svg">
<path d="M7 0C3.14031 0 0 3.14031 0 7C0 10.8597 3.14031 14 7 14C10.8597 14 14 10.8597 14 7C14 3.14031 10.8597 0 7 0ZM7 1.07692C10.2776 1.07692 12.9231 3.72238 12.9231 7C12.9231 10.2776 10.2776 12.9231 7 12.9231C3.72238 12.9231 1.07692 10.2776 1.07692 7C1.07692 3.72238 3.72238 1.07692 7 1.07692ZM4.96462 4.18923L4.18923 4.96462L6.22677 7L4.19031 9.03539L4.96569 9.81077L7 7.77377L9.03539 9.80915L9.81077 9.03539L7.77377 7L9.80915 4.96462L9.03539 4.18923L7 6.22677L4.96462 4.19031V4.18923Z" fill="#EC1C24"/>
</svg>
