<svg width="17" height="17" viewBox="0 0 17 17" fill="none" xmlns="http://www.w3.org/2000/svg">
<path d="M7.33268 13.9993C8.81183 13.999 10.2484 13.5039 11.4135 12.5927L15.0768 16.256L16.2552 15.0777L12.5919 11.4143C13.5035 10.2491 13.999 8.81221 13.9993 7.33268C13.9993 3.65685 11.0085 0.666016 7.33268 0.666016C3.65685 0.666016 0.666016 3.65685 0.666016 7.33268C0.666016 11.0085 3.65685 13.9993 7.33268 13.9993ZM7.33268 2.33268C10.0902 2.33268 12.3327 4.57518 12.3327 7.33268C12.3327 10.0902 10.0902 12.3327 7.33268 12.3327C4.57518 12.3327 2.33268 10.0902 2.33268 7.33268C2.33268 4.57518 4.57518 2.33268 7.33268 2.33268Z" fill="black"/>
</svg>
