<svg width="30" height="30" viewBox="0 0 30 30" fill="none" xmlns="http://www.w3.org/2000/svg">
<path d="M21.177 10.4257C20.8422 10.7602 20.8143 11.2806 21.1119 11.6522C22.4607 13.3433 23.1677 15.657 22.5351 18.0822C21.8003 20.9162 19.5771 23.0348 16.7586 23.6016C12.0146 24.5401 7.85666 20.8791 7.85666 16.2982C7.85666 12.5071 10.6938 9.38501 14.368 8.92971V10.8067C12.9221 11.0503 11.6304 11.8527 10.7722 13.0404C9.91399 14.2281 9.55834 15.7055 9.78216 17.153C10.1449 19.5782 12.1635 21.5295 14.6006 21.8268C15.6643 21.9601 16.744 21.7846 17.7105 21.3211C18.6769 20.8577 19.4894 20.126 20.0506 19.2136C20.6118 18.3011 20.898 17.2465 20.8751 16.1758C20.8522 15.1052 20.521 14.0637 19.9213 13.1761C19.605 12.7115 18.926 12.6836 18.526 13.0739L18.5167 13.0832C18.2004 13.3991 18.1725 13.8916 18.4144 14.2632C18.9725 15.1181 19.1957 16.2145 18.8702 17.3482C18.6848 17.9814 18.3337 18.5539 17.8529 19.0063C17.3722 19.4588 16.7793 19.7749 16.1354 19.922C15.5898 20.0479 15.0228 20.0491 14.4766 19.9256C13.9305 19.802 13.4193 19.557 12.9811 19.2086C12.543 18.8603 12.1892 18.4176 11.9462 17.9137C11.7031 17.4098 11.5771 16.8575 11.5774 16.2982C11.5774 14.5699 12.7681 13.1296 14.368 12.7115V14.7C13.8099 15.0252 13.4378 15.6106 13.4378 16.2982C13.4378 17.3203 14.275 18.1565 15.2982 18.1565C16.3214 18.1565 17.1586 17.3203 17.1586 16.2982C17.1586 15.6106 16.7865 15.0159 16.2284 14.7V7.66601C16.2284 7.30363 15.9308 7.00629 15.568 7.00629C10.5821 6.82045 6.28463 10.7788 6.01488 15.7407C5.68001 21.8268 11.0472 26.7237 17.1865 25.4042C20.7957 24.633 23.5863 21.8733 24.3955 18.2773C25.056 15.3411 24.2095 12.5535 22.563 10.5C22.4811 10.3978 22.3786 10.3141 22.262 10.2542C22.1455 10.1944 22.0176 10.1599 21.8867 10.1528C21.7558 10.1458 21.625 10.1665 21.5027 10.2135C21.3804 10.2605 21.2694 10.3328 21.177 10.4257Z" fill="white"/>
</svg>
