<svg width="28" height="28" viewBox="0 0 28 28" fill="none" xmlns="http://www.w3.org/2000/svg">
<path d="M21.3732 6.6274C20.9532 7.0474 20.9182 7.70073 21.2915 8.1674C22.9832 10.2907 23.8699 13.1957 23.0766 16.2407C22.1549 19.7991 19.3666 22.4591 15.8316 23.1707C9.88155 24.3491 4.66655 19.7524 4.66655 14.0007C4.66655 9.24073 8.22488 5.32073 12.8332 4.74906V7.10573C11.0198 7.41164 9.39962 8.41917 8.32325 9.91036C7.24689 11.4016 6.80082 13.2565 7.08155 15.0741C7.53655 18.1191 10.0682 20.5691 13.1249 20.9424C14.459 21.1098 15.8132 20.8893 17.0254 20.3074C18.2375 19.7256 19.2565 18.8069 19.9604 17.6612C20.6643 16.5156 21.0233 15.1914 20.9945 13.8471C20.9658 12.5028 20.5505 11.1952 19.7982 10.0807C19.4016 9.4974 18.5499 9.4624 18.0482 9.9524L18.0366 9.96406C17.6399 10.3607 17.6049 10.9791 17.9082 11.4457C18.6082 12.5191 18.8882 13.8957 18.4799 15.3191C18.2474 16.1142 17.807 16.8329 17.2041 17.401C16.6011 17.9691 15.8575 18.366 15.0499 18.5507C14.3656 18.7088 13.6544 18.7103 12.9694 18.5552C12.2844 18.4001 11.6433 18.0924 11.0937 17.655C10.5442 17.2177 10.1005 16.6619 9.79567 16.0292C9.49085 15.3964 9.33277 14.7031 9.33322 14.0007C9.33322 11.8307 10.8266 10.0224 12.8332 9.4974V11.9941C12.1332 12.4024 11.6665 13.1374 11.6665 14.0007C11.6665 15.2841 12.7166 16.3341 13.9999 16.3341C15.2832 16.3341 16.3332 15.2841 16.3332 14.0007C16.3332 13.1374 15.8666 12.3907 15.1666 11.9941V3.1624C15.1666 2.7074 14.7932 2.33406 14.3382 2.33406C8.08488 2.10073 2.69488 7.07073 2.35655 13.3007C1.93655 20.9424 8.66822 27.0907 16.3682 25.4341C20.8949 24.4657 24.3949 21.0007 25.4099 16.4857C26.2382 12.7991 25.1765 9.29906 23.1115 6.72073C23.0088 6.59242 22.8802 6.48725 22.734 6.41213C22.5878 6.337 22.4274 6.29361 22.2633 6.2848C22.0992 6.27599 21.935 6.30195 21.7816 6.36099C21.6283 6.42003 21.4891 6.51082 21.3732 6.6274Z" fill="#3A3A3A" fill-opacity="0.7"/>
</svg>
