<svg width="682" height="616" viewBox="0 0 682 616" fill="none" xmlns="http://www.w3.org/2000/svg">
<g opacity="0.2">
<path d="M728.787 542.584L728.787 544.831C690.984 515.557 663.113 449.773 657.403 376.131C655.879 356.19 647.457 343.324 633.021 338.882C622.383 335.623 609.025 336.968 594.336 342.862C579.711 348.757 565.151 358.528 552.237 371.162C547.3 375.992 541.033 381.495 534.322 387.336C503.24 414.459 460.764 451.635 480.269 484.612C490.972 502.646 511.17 506.021 532.508 509.565C554.162 513.165 576.576 516.877 587.342 537.383C590.571 543.562 592.853 550.697 594.184 558.786L590.321 558.785C589.054 551.201 586.901 544.573 583.86 538.786C573.916 519.854 553.401 516.423 531.747 512.822C510.411 509.278 488.377 505.622 476.85 486.128C461.651 460.398 480.831 433.103 504.758 409.404C521.661 390.59 542.803 373.351 555.149 360.659C597.562 316.968 661.632 303.501 669.62 361.529C677.543 418.657 699.587 470.734 728.716 503.601L728.787 542.584Z" fill="#121212"/>
<path d="M42.1256 441.761C41.0495 435.224 38.7716 428.406 36.3673 421.198C32.2545 408.848 28.0787 396.219 29.4678 383.982C28.2644 373.086 29.2111 362.359 35.3436 352.525C42.6774 340.793 60.447 336.943 73.5383 341.806C114.583 357.071 116.743 411.662 163.541 419.216L163.605 419.216C183.146 423.915 205.468 414.198 220.076 403.529C244.799 385.375 265.155 352.302 269.323 322.408C269.261 321.068 269.261 319.67 269.196 318.33C268.815 306.373 268.433 293.13 269.443 279.999C269.565 257.649 272.027 234.405 284.484 216.639C304.082 188.594 354.423 196.429 345.51 222.8C346.585 224.029 347.535 225.372 348.167 226.767C350.761 232.245 351.332 241.576 339.001 254.536C325.662 268.614 319.656 281.743 319.975 295.823C320.292 308.229 325.544 321.64 336.929 339.3C347.051 354.947 361.978 369.981 377.853 385.854C402.268 410.389 427.569 435.819 434.72 464.541C439.085 482.143 438.456 502.314 432.769 524.551C429.988 535.446 426.007 546.9 420.824 558.744L416.776 558.743C422.15 546.62 426.258 534.943 429.101 523.824C434.662 502.089 435.293 482.365 431.052 465.266C424.092 437.383 399.17 412.288 375.008 388.032C359.07 371.992 343.953 356.845 333.642 340.92C321.876 322.756 316.498 308.841 316.181 295.879C315.799 280.904 322.12 267.104 336.093 252.356C344.881 243.083 347.789 234.701 344.626 228.052C341.779 222.129 334.253 218.159 324.389 217.487C313.193 216.702 296.815 220.664 287.268 234.24C271.02 257.425 272.101 291.175 272.929 318.274C272.991 321.069 273.118 323.806 273.183 326.489C274.009 358.896 252.2 399.849 222.481 421.633C207.558 432.581 184.478 442.522 164.303 437.656L164.24 437.656C144.066 432.622 130.466 414.124 117.373 396.185C107.885 383.275 98.9657 371.092 87.9609 364.048C77.462 357.285 66.521 354.6 57.2252 356.442C49.3838 358.006 42.9973 362.586 38.2557 370.127C28.4564 385.715 34.3405 403.317 39.9718 420.304C42.4394 427.625 44.7172 434.554 45.8567 441.315C49.0852 460.761 46.6227 483.669 38.9747 505.794C31.7057 526.69 20.136 545.183 6.03596 558.589L0.7871 558.588C15.5828 545.405 27.7848 526.41 35.3065 504.788C42.765 483.445 45.2275 460.481 42.1256 441.761Z" fill="#121212"/>
<path d="M672.435 301.05C654.44 270.505 637.452 241.577 617.187 231.69C604.686 225.601 593.955 224.425 584.361 228.052C558.542 237.985 545.988 282.036 534.883 320.895C526.555 350.206 519.3 375.499 507.56 385.602C493.486 397.715 478.461 402.457 462.932 399.718C418.488 391.946 382.873 326.051 373.022 306.004C357.36 274.231 359.944 251.505 382.16 224.766C384.938 221.417 388.22 217.899 391.691 214.159C406.902 197.748 425.774 177.261 417.059 156.097C410.237 139.512 414.465 122.371 429.298 106.573C441.731 93.3992 461.235 81.7335 482.824 74.6481C490.652 72.081 498.794 69.8506 506.686 67.675C535.974 59.6419 563.624 51.9981 581.232 27.7703C586.913 19.9548 592.528 10.6314 597.514 0.469898L601.619 0.470879C596.381 11.3569 590.447 21.295 584.389 29.6136C566.023 54.8458 536.418 62.9905 507.758 70.9122C499.932 73.0896 491.852 75.2651 484.086 77.8305C463.067 84.6945 444.131 95.967 432.138 108.751C422.419 119.08 412.51 135.492 420.53 154.98C430.003 177.931 410.374 199.2 394.532 216.281C391.123 219.965 387.905 223.483 385.129 226.776C363.858 252.344 361.4 274.175 376.431 304.665C382.05 316.057 393.922 338.171 410.339 358.387C428.461 380.614 446.392 393.404 463.563 396.423C477.83 398.884 491.717 394.476 504.845 383.2C515.829 373.767 523.272 347.638 531.159 320.056C542.452 280.416 555.259 235.527 582.782 224.981C593.386 220.908 605.507 222.194 618.955 228.731C640.23 239.121 657.468 268.44 675.718 299.489C692.01 327.186 708.743 355.554 728.757 370.97L728.758 375.325C707.103 359.965 689.549 330.201 672.435 301.05Z" fill="#121212"/>
<path d="M694.652 238.011C684.506 219.833 674.864 202.661 662.136 194.438C642.228 181.569 619.42 176.531 597.875 180.272C575.89 184.07 556.362 196.761 543.009 215.941C537.655 223.658 532.492 238.7 527.014 254.693C516.059 286.682 503.653 322.918 482.108 327.722C475.054 329.287 468.691 328.558 463.209 325.537C448.528 317.48 442.917 294.717 438.442 276.484C436.488 268.597 434.849 261.775 432.77 257.579C421.613 234.87 423.502 218.596 439.311 199.473C441.705 196.621 444.349 193.825 447.183 190.807C454.554 183.034 462.237 175.038 464.441 165.812C465.511 161.282 464.565 156.975 463.557 152.389C462.358 146.909 461.098 141.203 463.68 135.388C473.757 112.237 510.104 103.744 539.335 96.929C547.463 95.0285 555.146 93.2416 561.321 91.3406C601.512 78.935 656.506 62.0023 682.771 25.7692C687.874 18.7234 692.848 9.99877 697.004 0.49317L701.036 0.494134C696.692 10.7273 691.4 20.1226 685.922 27.6155C658.964 64.7997 603.213 82.0109 562.519 94.5281C556.157 96.484 548.407 98.2728 540.217 100.228C511.806 106.876 476.466 115.09 467.082 136.674C464.942 141.651 466.013 146.574 467.149 151.831C468.157 156.528 469.23 161.45 468.033 166.596C465.64 176.661 457.703 184.993 450.02 193.044C447.248 195.952 444.602 198.748 442.336 201.488C427.408 219.493 425.709 234.816 436.234 256.293C438.44 260.768 440.142 267.76 442.158 275.814C446.509 293.486 451.93 315.411 465.225 322.74C469.887 325.315 475.053 325.875 481.226 324.535C500.756 320.177 513.349 283.38 523.423 253.741C529.216 236.853 534.191 222.258 539.797 214.206C553.778 194.244 574.124 180.994 597.183 177.028C619.797 173.118 643.612 178.325 664.405 191.754C677.888 200.481 687.718 217.988 698.052 236.558C707.191 252.947 716.581 269.672 728.741 280.411L728.742 285.11C714.817 274.088 704.608 255.854 694.652 238.011Z" fill="#121212"/>
<path d="M701.361 179.902L699.468 178.498C675.442 161.011 648.263 141.217 615.605 150.372C607.534 152.619 599.654 156.382 592.088 159.978C575.379 167.9 558.104 176.103 537.233 169.24C524.56 165.077 521.215 159.175 520.584 154.903C519.639 148.045 525.059 140.626 535.84 134.11C552.169 124.22 571.715 119.783 590.629 115.516C599.772 113.439 609.23 111.306 617.992 108.609C653.299 97.6575 700.02 83.2214 728.704 55.1811L728.705 60.0699C699.265 86.9311 653.806 101.029 619.255 111.758C610.3 114.509 600.781 116.699 591.576 118.777C572.976 122.989 553.808 127.368 537.984 136.919C528.591 142.651 523.61 149.057 524.368 154.509C524.999 159.233 529.917 163.224 538.557 166.092C557.851 172.45 573.614 164.921 590.32 156.999C598.077 153.348 606.083 149.528 614.468 147.168L614.532 147.168C649.145 137.508 677.145 157.919 701.927 175.912L703.82 177.318C704.45 177.768 705.333 178.442 706.405 179.229C714.539 185.245 721.981 190.475 728.728 194.861L728.729 199.077C720.089 193.565 711.45 187.381 703.947 181.815C702.874 180.971 701.992 180.354 701.361 179.902Z" fill="#121212"/>
<path d="M106.907 326.403C99.806 311.099 97.3556 297.211 99.9379 287.299C103.618 273.19 116.168 265.426 128.342 257.962C132.682 255.25 137.254 252.427 141.246 249.388C151.674 241.432 157.095 231.893 162.861 221.779C168.872 211.24 175.035 200.354 187.316 191.521L187.595 191.374C194.191 187.916 200.327 185.578 205.824 184.355C228.335 175.876 254.286 175.513 262.929 194.794C273.793 219.089 235.192 246.31 225.216 267.261C211.634 295.696 230.485 323.798 220.906 352.959C214.06 373.821 187.511 387.339 176.649 385.906C175.342 385.743 173.994 385.461 172.694 385.142C171.879 385.114 171.112 385.048 170.3 384.942C159.167 383.5 147.176 377.008 135.566 366.138C124.126 355.507 113.722 341.03 106.907 326.403ZM166.327 223.309C160.66 233.271 154.797 243.54 143.804 251.946C139.671 255.098 135.052 257.959 130.574 260.707C118.491 268.174 107.06 275.27 103.712 288.057C98.771 306.947 114.642 341.73 138.341 363.919C149.343 374.22 160.581 380.332 170.812 381.665C181.764 383.102 190.312 374.611 196.257 356.58C200.362 344.093 202.181 331.019 203.893 318.332C206.249 301.432 208.63 283.985 216.452 267.547C219.309 261.567 223.203 255.74 226.994 250.146C236.765 235.697 245.957 222.013 238.467 205.285C236.12 200.067 233.275 195.851 230.1 192.877C220.969 184.328 207.711 184.734 189.6 194.149C178.108 202.577 172.096 213.117 166.327 223.309Z" fill="#121212"/>
<path d="M558.095 466.24C557.072 464.774 556.304 463.138 555.727 461.39C552.143 450.338 555.85 437.313 565.833 425.7C577.475 412.169 595.135 403.377 610.813 403.381C612.478 403.381 614.206 403.495 615.806 403.664C622.716 404.512 628.219 407.671 632.253 413.085C640.253 423.913 640.449 442.352 636.611 454.248C634.373 461.127 627.783 467.385 618.057 471.837C609.227 475.895 598.348 478.204 588.173 478.201C574.161 478.142 563.152 473.797 558.095 466.24ZM632.899 453.345C636.033 443.817 636.862 425.604 628.99 414.945C625.596 410.377 620.989 407.725 615.23 407.047C613.758 406.878 612.286 406.765 610.75 406.764C596.224 406.761 579.715 414.989 568.84 427.73C559.627 438.498 556.174 450.451 559.375 460.489C559.822 461.955 560.527 463.309 561.36 464.549C565.775 471.091 575.502 474.815 588.173 474.818C606.346 474.766 628.615 466.595 632.899 453.345Z" fill="#121212"/>
<path d="M345.301 472.238C345.848 473.86 346.105 475.585 346.146 477.374C346.36 488.672 339.098 500.206 326.305 508.995C311.385 519.231 292.134 523.619 277.289 520.101C275.715 519.727 274.111 519.232 272.646 518.713C266.346 516.359 262.045 512.125 259.785 506.081C255.327 494.006 260.45 476.456 267.509 466.02C271.608 459.991 279.65 455.528 290.14 453.481C299.668 451.608 310.632 451.854 320.266 454.138C333.517 457.336 342.687 463.929 345.301 472.238ZM270.763 467.71C265.052 476.054 259.025 493.161 263.411 505.046C265.307 510.144 268.906 513.695 274.164 515.63C275.509 516.121 276.869 516.558 278.324 516.903C292.077 520.163 310.075 516.051 324.042 506.393C335.865 498.235 342.576 487.66 342.435 477.412C342.432 475.919 342.155 474.476 341.725 473.112C339.426 465.91 331.287 460.194 319.292 457.35C302.069 453.325 278.635 456.09 270.763 467.71Z" fill="#121212"/>
<path d="M290.711 384.836C292.227 382.487 295.307 379.797 301.248 380.36C306.808 380.883 315.017 384.445 318.813 387.973C324.295 393.049 323.003 403.19 318.606 410.003C315.474 414.858 311.07 417.7 306.518 417.698C305.634 417.711 304.712 417.601 303.797 417.389C298.999 416.32 294.55 412.089 291.568 405.851C288.534 399.427 287.096 390.436 290.711 384.836ZM304.537 414.796C305.208 414.933 305.859 415.009 306.493 415.023C309.961 414.987 313.377 412.679 315.98 408.646C320.831 401.128 320.079 393.065 316.628 389.82C313.389 386.789 305.748 383.52 300.91 383.057C297.442 382.728 294.904 383.766 293.337 386.194C290.683 390.305 291.125 397.946 294.376 404.847C296.94 410.192 300.722 413.921 304.537 414.796Z" fill="#121212"/>
<path d="M127.184 440.688C137.523 440.466 147.8 444.348 158.771 452.503C175.921 465.328 185.822 483.998 195.407 501.993C195.975 503.118 196.543 504.186 197.173 505.254C218.11 544.563 237.912 576.505 266.537 604.514C267.8 605.751 269.186 607.157 270.763 608.675C273.032 610.925 275.617 613.512 278.454 616.268L273.349 616.267C271.394 614.355 269.627 612.555 267.988 610.924C266.476 609.405 265.025 607.999 263.827 606.762C234.886 578.416 214.958 546.249 193.832 506.659C193.265 505.591 192.697 504.466 192.066 503.341C182.67 485.627 172.958 467.351 156.439 454.977C146.225 447.384 136.704 443.727 127.374 443.949C115.144 444.171 104.805 447.037 97.4931 452.208C89.5508 457.829 85.5805 465.756 85.8343 475.821C86.2156 493.645 95.1075 509.785 103.747 525.418C112.324 540.995 121.152 557.022 122.101 575.184C122.86 590.535 120.593 604.704 115.678 616.229L111.643 616.228C116.685 604.984 119.078 590.815 118.318 575.352C117.433 557.921 108.73 542.175 100.343 526.936C91.5774 511.021 82.4964 494.544 82.0519 475.932C81.4807 454.79 98.8151 441.244 127.184 440.688Z" fill="#121212"/>
</g>
</svg>
